<svg width="70" height="70" viewBox="0 0 70 70" fill="none" xmlns="http://www.w3.org/2000/svg">
<g clip-path="url(#clip0_26_12)">
<path d="M34.9975 -0.00178507L-0.00430298 35L34.9975 70.0018L69.9993 35L34.9975 -0.00178507Z" fill="#F4D7AB"/>
<path d="M39.42 25.7925H29.39L34.35 20.8325C34.67 20.5125 34.84 20.0925 34.84 19.6525C34.84 19.2125 34.67 18.7825 34.35 18.4725C33.72 17.8425 32.62 17.8425 31.99 18.4725L25.28 25.1825C24.67 25.7925 24.33 26.6025 24.33 27.4725C24.33 28.3425 24.67 29.1525 25.28 29.7625L31.98 36.4625C32.6 37.0925 33.71 37.1025 34.35 36.4625C34.67 36.1425 34.84 35.7225 34.84 35.2825C34.84 34.8425 34.67 34.4125 34.35 34.1025L29.39 29.1425H39.42C43.67 29.1425 47.12 32.6025 47.12 36.8425C47.12 41.0825 43.66 44.5425 39.42 44.5425H20.67C19.75 44.5425 19 45.2925 19 46.2125C19 47.1325 19.75 47.8825 20.67 47.8825H39.42C45.51 47.8825 50.47 42.9225 50.47 36.8325C50.47 30.7425 45.51 25.7825 39.42 25.7825V25.7925Z" fill="#890000"/>
</g>
<defs>
<clipPath id="clip0_26_12">
<rect width="70" height="70" fill="white"/>
</clipPath>
</defs>
</svg>
