<svg width="70" height="70" viewBox="0 0 70 70" fill="none" xmlns="http://www.w3.org/2000/svg">
<g clip-path="url(#clip0_25_2)">
<path d="M34.9975 -0.00178507L-0.00430298 35L34.9975 70.0018L69.9993 35L34.9975 -0.00178507Z" fill="#890000"/>
<path d="M52.1206 21.7974C50.7995 21.5105 49.2734 21.6943 47.8339 22.2277C47.8476 21.4657 47.843 20.7172 47.8202 20H23.1752C23.1524 20.7172 23.1479 21.4612 23.1615 22.2277C21.722 21.6943 20.1959 21.5105 18.8749 21.7974C16.9206 22.2187 15.5949 23.541 15.1394 25.5177C14.5472 28.095 15.8546 31.0533 18.8247 33.8413C21.1662 36.0377 24.305 37.8664 27.6213 38.996C28.9971 40.9009 30.7555 42.4384 32.9877 43.3707C32.6642 44.5406 31.5208 47.9292 28.7602 50H42.2398C39.4792 47.9292 38.3403 44.5406 38.0123 43.3707C40.2445 42.4384 42.0029 40.9009 43.3787 38.996C46.695 37.8664 49.8338 36.0377 52.1753 33.8413C55.1454 31.0533 56.4528 28.095 55.8606 25.5177C55.4051 23.5455 54.0794 22.2232 52.1206 21.7974ZM20.8018 31.8019C18.6516 29.7848 17.5811 27.6692 17.9319 26.1407C18.1369 25.2398 18.6334 24.7333 19.4944 24.5495C20.6287 24.303 22.1047 24.675 23.321 25.4191C23.5989 28.6508 24.2457 32.026 25.462 35.0202C23.7173 34.1282 22.1092 33.0345 20.8018 31.8064V31.8019ZM50.1936 31.8019C48.8862 33.03 47.2827 34.1237 45.5334 35.0157C46.7497 32.0215 47.3966 28.6463 47.6745 25.4146C48.8908 24.675 50.3713 24.2985 51.501 24.545C52.3575 24.7333 52.854 25.2353 53.0636 26.1363C53.4143 27.6647 52.3438 29.7804 50.1936 31.7974V31.8019Z" fill="#F4D7AB"/>
<path d="M44 52H27V56H44V52Z" fill="#F4D7AB"/>
</g>
<defs>
<clipPath id="clip0_25_2">
<rect width="70" height="70" fill="white"/>
</clipPath>
</defs>
</svg>
