<?xml version="1.0" encoding="UTF-8"?>
<svg id="Layer_2" data-name="Layer 2" xmlns="http://www.w3.org/2000/svg" viewBox="0 0 503.58 170.44">
  <defs>
    <style>
      .cls-1 {
        fill: #f4e9d8;
      }

      .cls-2 {
        fill: none;
      }

      .cls-3 {
        fill: #cc203c;
      }
    </style>
  </defs>
  <g id="Layer_1-2" data-name="Layer 1">
    <g>
      <path class="cls-3" d="M6.21,52.21l14.62-.77c21.56-1.14,36.94,13.64,36.94,32.79,0,13.71-8.81,27.5-23.62,34.67.75,19.49,15.19,23.98,22.31,23.61.75-.04,1.87-.29,2.62-1.27v10.33c-1.5,1.02-3,1.1-4.87,1.2-11.44.6-30.56-10.59-29.62-35.8.19-2.26.56-4.16,1.31-6.27,11.62-1.36,22.12-13.18,22.12-25.76,0-10.51-8.25-24.72-25.12-23.83l-6.37.34v84.11c0,3,.37,5.61.94,7.46l-11.25.59c.56-2.09.75-4.17.75-7.55V59.68c0-3.19-.19-5.44-.75-7.47Z"/>
      <path class="cls-3" d="M113.64,138.17l-2.06,10.25c-1.12-.13-3.19-.21-4.87-.12l-35.06,1.85c.56-1.91.75-4.36.75-7.55V56.23c0-2.44-.19-4.87-.75-6.72l33.37-1.76c1.87-.1,3.37-.37,4.5-.61l1.87,10.04c-1.87-.28-3.56-.38-5.06-.3l-24.37,1.28v48.44l18.75-.99c1.87-.1,3.56-.56,5.06-1.21v10.7c-1.5-.3-3.19-.4-5.06-.3l-18.75.99v24.6l26.44-1.39c1.31-.07,3.37-.37,5.25-.84Z"/>
      <path class="cls-3" d="M135.54,146.77l-11.63.61c1.13-1.94,2.06-4.43,2.81-7.1,7.31-28.55,15-58.24,22.5-86.8.75-2.67,1.12-6.26.94-8.12l13.31-.7c-.38,1.9,0,4.69.94,8.02,7.31,27.78,14.44,56.69,21.94,84.46.75,2.59,1.69,4.98,2.81,6.8l-11.63.61c.37-2.08.19-4.7-.75-8.03l-3-10.73-34.5,1.82-3,11.05c-.94,3.62-1.12,6.07-.75,8.11ZM142.11,118.83l28.87-1.52-13.87-61.98h-.19s-14.81,63.5-14.81,63.5Z"/>
      <path class="cls-3" d="M208.68,92.6c0,23.47,17.62,41.32,40.12,40.13,10.69-.56,21.56-2.83,30-10.78l-2.25,14.01c-3.37,0-6.19,1.08-9.75,2.2-3.94,1.33-8.81,3.09-14.81,3.78,7.12,3.38,10.69,9.95,10.69,13.71,0,8.82-6.19,14.41-12.94,14.76-5.25.28-8.62-2.55-8.62-6.3v-1.13c1.31.87,2.81,1.35,4.5,1.27,3.75-.2,7.69-3.41,7.69-8.67s-4.5-10.46-11.25-10.48v-3c-24.94-2.07-44.06-22.84-44.06-48.93,0-28.16,22.5-52.82,50.44-54.48,6.94-.37,12.75.08,17.62,1.32,3.37.76,6,1.56,9.19,1.39.37-.02.75-.23,1.12-.25l2.44,14.52c-7.12-6.01-17.44-8.09-28.31-7.52l-1.87.1c-20.81,2.04-39.94,20.5-39.94,44.35Z"/>
      <path class="cls-3" d="M340.66,34.19c27.94-1.47,51,20.59,51,48.76s-23.06,52.66-51,54.13c-28.12,1.48-51-20.41-51-48.76s22.87-52.65,51-54.13ZM340.66,127.51c22.31-1.18,40.31-20.71,40.31-43.99s-18-40.92-40.31-39.74c-22.5,1.19-40.31,20.9-40.31,43.99s17.81,40.93,40.31,39.74ZM340.09,9.81c4.12,1.85,8.44,3.31,13.87,3.02,4.5-.24,7.5-2.65,8.81-5.72.75,1.09,1.31,2.56,1.31,4.06,0,4.69-4.31,10.18-11.63,10.56-3.94.21-7.5-1.29-11.06-2.8-4.13-1.85-8.25-3.32-13.69-3.03-3.94.21-8.06,2.3-9.19,5.93-.56-1.1-1.13-2.76-1.13-4.07,0-4.88,4.13-10.36,11.63-10.75,3.75-.2,7.31,1.3,11.06,2.8ZM340.66,79.06c3.56-.19,6.56,2.66,6.56,6.23s-3,6.73-6.56,6.92c-3.56.19-6.56-2.66-6.56-6.23s3-6.73,6.56-6.92Z"/>
      <path class="cls-3" d="M444.53,120.71l-2.06,10.25c-1.12-.13-3.19-.21-4.87-.12l-35.06,1.85c.56-1.91.75-4.36.75-7.55V38.77c0-2.44-.19-4.87-.75-6.72l33.37-1.76c1.87-.1,3.37-.37,4.5-.61l1.87,10.04c-1.87-.28-3.56-.38-5.06-.3l-24.37,1.28v48.44l18.75-.99c1.87-.1,3.56-.56,5.06-1.21v10.7c-1.5-.3-3.19-.4-5.06-.3l-18.75.99v24.6l26.44-1.39c1.31-.07,3.37-.37,5.25-.84Z"/>
      <path class="cls-3" d="M471.15,49.27c0,7.51,6.19,13.19,13.31,19.76,8.81,7.98,19.12,17.77,19.12,32.6,0,16.71-12.75,29.02-27.75,29.81-14.44.76-23.62-9.46-23.62-20.91,0-9.95,7.13-16.71,14.44-17.1,5.81-.31,9.37,3.64,9.37,7.58v.56c-1.31-1.06-3.37-1.7-5.06-1.61-4.13.22-8.62,4.21-8.62,10.03,0,6.2,5.06,12.12,13.87,11.66,10.12-.53,17.62-9,17.62-19.7s-7.87-18.55-16.31-25.8c-8.06-6.9-16.12-14.17-16.12-25.62s8.06-22.96,21-23.64c2.25-.12,4.69.13,6.56.4,2.25.26,3.37.39,4.31-.23v12.96c-1.31-2.75-4.5-4.64-9-4.41-7.5.4-13.13,6.51-13.13,13.65Z"/>
      <path d="M3.39,48.71l14.62-.77c21.56-1.14,36.94,13.64,36.94,32.79,0,13.71-8.81,27.5-23.62,34.67.75,19.49,15.19,23.98,22.31,23.61.75-.04,1.87-.29,2.62-1.27v10.33c-1.5,1.02-3,1.1-4.87,1.2-11.44.6-30.56-10.59-29.62-35.8.19-2.26.56-4.16,1.31-6.27,11.62-1.36,22.12-13.18,22.12-25.76,0-10.51-8.25-24.72-25.12-23.83l-6.37.34v84.11c0,3,.37,5.61.94,7.46l-11.25.59c.56-2.09.75-4.17.75-7.55V56.18c0-3.19-.19-5.44-.75-7.47Z"/>
      <path d="M110.82,134.67l-2.06,10.25c-1.12-.13-3.19-.21-4.87-.12l-35.06,1.85c.56-1.91.75-4.36.75-7.55V52.73c0-2.44-.19-4.87-.75-6.72l33.37-1.76c1.87-.1,3.37-.37,4.5-.61l1.87,10.04c-1.87-.28-3.56-.38-5.06-.3l-24.37,1.28v48.44l18.75-.99c1.87-.1,3.56-.56,5.06-1.21v10.7c-1.5-.3-3.19-.4-5.06-.3l-18.75.99v24.6l26.44-1.39c1.31-.07,3.37-.37,5.25-.84Z"/>
      <path d="M132.73,143.28l-11.63.61c1.13-1.94,2.06-4.43,2.81-7.1,7.31-28.55,15-58.24,22.5-86.8.75-2.67,1.12-6.26.94-8.12l13.31-.7c-.38,1.9,0,4.69.94,8.02,7.31,27.78,14.44,56.69,21.94,84.46.75,2.59,1.69,4.98,2.81,6.8l-11.63.61c.37-2.08.19-4.7-.75-8.03l-3-10.73-34.5,1.82-3,11.05c-.94,3.62-1.12,6.07-.75,8.11ZM139.29,115.33l28.87-1.52-13.87-61.98h-.19s-14.81,63.5-14.81,63.5Z"/>
      <path d="M205.86,89.1c0,23.47,17.62,41.32,40.12,40.13,10.69-.56,21.56-2.83,30-10.78l-2.25,14.01c-3.37,0-6.19,1.08-9.75,2.2-3.94,1.33-8.81,3.09-14.81,3.78,7.12,3.38,10.69,9.95,10.69,13.71,0,8.82-6.19,14.41-12.94,14.76-5.25.28-8.62-2.55-8.62-6.3v-1.13c1.31.87,2.81,1.35,4.5,1.27,3.75-.2,7.69-3.41,7.69-8.67s-4.5-10.46-11.25-10.48v-3c-24.94-2.07-44.06-22.84-44.06-48.93,0-28.16,22.5-52.82,50.44-54.48,6.94-.37,12.75.08,17.62,1.32,3.37.76,6,1.56,9.19,1.39.37-.02.75-.23,1.12-.25l2.44,14.52c-7.12-6.01-17.44-8.09-28.31-7.52l-1.87.1c-20.81,2.04-39.94,20.5-39.94,44.35Z"/>
      <path d="M337.84,30.69c27.94-1.47,51,20.59,51,48.76s-23.06,52.66-51,54.13c-28.12,1.48-51-20.41-51-48.76s22.87-52.65,51-54.13ZM337.84,124.01c22.31-1.18,40.31-20.71,40.31-43.99s-18-40.92-40.31-39.74c-22.5,1.19-40.31,20.9-40.31,43.99s17.81,40.93,40.31,39.74ZM337.28,6.31c4.12,1.85,8.44,3.31,13.87,3.02,4.5-.24,7.5-2.65,8.81-5.72.75,1.09,1.31,2.56,1.31,4.06,0,4.69-4.31,10.18-11.63,10.56-3.94.21-7.5-1.29-11.06-2.8-4.13-1.85-8.25-3.32-13.69-3.03-3.94.21-8.06,2.3-9.19,5.93-.56-1.1-1.13-2.76-1.13-4.07,0-4.88,4.13-10.36,11.63-10.75,3.75-.2,7.31,1.3,11.06,2.8ZM337.84,75.57c3.56-.19,6.56,2.66,6.56,6.23s-3,6.73-6.56,6.92c-3.56.19-6.56-2.66-6.56-6.23s3-6.73,6.56-6.92Z"/>
      <path d="M441.72,117.21l-2.06,10.25c-1.12-.13-3.19-.21-4.87-.12l-35.06,1.85c.56-1.91.75-4.36.75-7.55V35.27c0-2.44-.19-4.87-.75-6.72l33.37-1.76c1.87-.1,3.37-.37,4.5-.61l1.87,10.04c-1.87-.28-3.56-.38-5.06-.3l-24.37,1.28v48.44l18.75-.99c1.87-.1,3.56-.56,5.06-1.21v10.7c-1.5-.3-3.19-.4-5.06-.3l-18.75.99v24.6l26.44-1.39c1.31-.07,3.37-.37,5.25-.84Z"/>
      <path d="M468.33,45.77c0,7.51,6.19,13.19,13.31,19.76,8.81,7.98,19.12,17.77,19.12,32.6,0,16.71-12.75,29.02-27.75,29.81-14.44.76-23.62-9.46-23.62-20.91,0-9.95,7.13-16.71,14.44-17.1,5.81-.31,9.37,3.64,9.37,7.58v.56c-1.31-1.06-3.37-1.7-5.06-1.61-4.13.22-8.62,4.21-8.62,10.03,0,6.2,5.06,12.12,13.87,11.66,10.12-.53,17.62-9,17.62-19.7s-7.87-18.55-16.31-25.8c-8.06-6.9-16.12-14.17-16.12-25.62s8.06-22.96,21-23.64c2.25-.12,4.69.13,6.56.4,2.25.26,3.37.39,4.31-.23v12.96c-1.31-2.75-4.5-4.64-9-4.41-7.5.4-13.13,6.51-13.13,13.65Z"/>
      <path class="cls-2" d="M233.19,43.25c.64.23,1.47.31,2.48.26.86-.05,1.8-.21,2.82-.5,1.39-.39,2.82-.99,4.27-1.78l-.36.02c-3.13.31-6.22.99-9.22,2Z"/>
      <path class="cls-2" d="M253.12,31.86c.88-1.22,1.76-2.53,2.62-3.98-3.44,1.2-6.84,2.28-10.21,3.24-.51.14-1,.32-1.51.48,3.29-.11,6.31-.02,9.09.25Z"/>
      <path class="cls-2" d="M334.45,36.77c-22.5,1.19-40.31,20.9-40.31,43.99s17.81,40.93,40.31,39.74c22.31-1.18,40.31-20.71,40.31-43.99s-18-40.92-40.31-39.74ZM334.45,85.21c-3.56.19-6.56-2.66-6.56-6.23s3-6.73,6.56-6.92c3.56-.19,6.56,2.66,6.56,6.23s-3,6.73-6.56,6.92Z"/>
      <polygon class="cls-2" points="150.71 48.34 135.9 111.83 164.77 110.31 150.9 48.33 150.71 48.34"/>
      <path class="cls-1" d="M27.94,111.9c14.81-7.16,23.62-20.96,23.62-34.67,0-19.15-15.37-33.92-36.94-32.79l-14.62.77c.56,2.04.75,4.28.75,7.47v86.37c0,3.38-.19,5.46-.75,7.55l11.25-.59c-.56-1.85-.94-4.46-.94-7.46V54.43l6.37-.34c16.87-.89,25.12,13.32,25.12,23.83,0,12.58-10.5,24.4-22.12,25.76-.75,2.1-1.13,4-1.31,6.27-.94,25.21,18.19,36.4,29.62,35.8,1.87-.1,3.37-.18,4.87-1.2v-10.33c-.75.98-1.87,1.23-2.62,1.27-7.12.38-21.56-4.12-22.31-23.61Z"/>
      <path class="cls-1" d="M75.75,133.4v-24.6l18.75-.99c1.87-.1,3.56,0,5.06.3v-10.7c-1.5.64-3.19,1.11-5.06,1.21l-18.75.99v-48.44l24.37-1.28c1.5-.08,3.19.02,5.06.3l-1.87-10.04c-1.12.25-2.62.51-4.5.61l-33.37,1.76c.56,1.85.75,4.28.75,6.72v86.37c0,3.19-.19,5.64-.75,7.55l35.06-1.85c1.69-.09,3.75,0,4.87.12l2.06-10.25c-1.88.47-3.94.77-5.25.84l-26.44,1.39Z"/>
      <path class="cls-1" d="M158.21,45.69c-.94-3.33-1.31-6.13-.94-8.02l-13.31.7c.19,1.87-.19,5.46-.94,8.12-7.5,28.56-15.19,58.25-22.5,86.8-.75,2.67-1.69,5.16-2.81,7.1l11.63-.61c-.37-2.05-.19-4.5.75-8.11l3-11.05,34.5-1.82,3,10.73c.94,3.33,1.12,5.95.75,8.03l11.63-.61c-1.13-1.82-2.06-4.21-2.81-6.8-7.5-27.77-14.62-56.68-21.94-84.46ZM135.9,111.83l14.81-63.49h.19s13.87,61.97,13.87,61.97l-28.87,1.52Z"/>
      <path class="cls-1" d="M231.57,40.91c0,1.18.54,1.96,1.62,2.34,3-1.01,6.09-1.7,9.22-2l.36-.02c1.4-.76,2.83-1.71,4.29-2.84,2.06-1.6,4.08-3.78,6.06-6.53-2.78-.28-5.8-.36-9.09-.25-2.92.96-5.78,2.29-8.58,4.04-2.58,1.62-3.87,3.38-3.87,5.25Z"/>
      <path class="cls-1" d="M228.76,40.59c0-1.1.41-2.27,1.23-3.53.82-1.26,2.09-2.44,3.81-3.55.51-.33,1.06-.63,1.59-.93-24.68,4.9-43.6,27.76-43.6,53.59s19.12,46.87,44.06,48.93v3c6.75.02,11.25,5.04,11.25,10.48s-3.94,8.47-7.69,8.67c-1.69.09-3.19-.4-4.5-1.27v1.13c0,3.75,3.37,6.58,8.62,6.3,6.75-.36,12.94-5.94,12.94-14.76,0-3.75-3.56-10.33-10.69-13.71,6-.69,10.87-2.45,14.81-3.78,3.56-1.13,6.38-2.21,9.75-2.2l2.25-14.01c-8.44,7.96-19.31,10.22-30,10.78-22.5,1.19-40.12-16.66-40.12-40.13,0-19.2,12.4-34.9,28.09-41.36-1.18-1.02-1.81-2.22-1.81-3.65Z"/>
      <path class="cls-1" d="M254.56,38.93c-.89.83-1.85,1.58-2.84,2.27,8.05.56,15.4,2.85,20.88,7.47l-2.44-14.52c-.37.02-.75.23-1.12.25-3.19.17-5.81-.63-9.19-1.39-.05-.01-.11-.02-.17-.04-1.51,2.19-3.21,4.18-5.12,5.96Z"/>
      <path class="cls-1" d="M311.2,10.77c0,1.31.56,2.97,1.13,4.07,1.12-3.63,5.25-5.72,9.19-5.93,5.44-.29,9.56,1.19,13.69,3.03,3.56,1.5,7.12,3,11.06,2.8,7.31-.39,11.63-5.87,11.63-10.56,0-1.5-.56-2.97-1.31-4.06-1.31,3.07-4.31,5.48-8.81,5.72-5.44.29-9.75-1.18-13.87-3.02-3.75-1.49-7.31-2.99-11.06-2.8-7.5.4-11.63,5.87-11.63,10.75Z"/>
      <path class="cls-1" d="M334.45,27.19c-28.12,1.48-51,25.97-51,54.13s22.87,50.24,51,48.76c27.94-1.47,51-25.78,51-54.13s-23.06-50.23-51-48.76ZM334.45,120.51c-22.5,1.19-40.31-16.46-40.31-39.74s17.81-42.81,40.31-43.99c22.31-1.18,40.31,16.65,40.31,39.74s-18,42.82-40.31,43.99Z"/>
      <path class="cls-1" d="M334.45,72.07c-3.56.19-6.56,3.35-6.56,6.92s3,6.41,6.56,6.23c3.56-.19,6.56-3.35,6.56-6.92s-3-6.41-6.56-6.23Z"/>
      <path class="cls-1" d="M406.64,115.95v-24.6l18.75-.99c1.87-.1,3.56,0,5.06.3v-10.7c-1.5.64-3.19,1.11-5.06,1.21l-18.75.99v-48.44l24.37-1.28c1.5-.08,3.19.02,5.06.3l-1.87-10.04c-1.12.25-2.62.51-4.5.61l-33.37,1.76c.56,1.85.75,4.28.75,6.72v86.37c0,3.19-.19,5.64-.75,7.55l35.06-1.85c1.69-.09,3.75,0,4.87.12l2.06-10.25c-1.88.47-3.94.77-5.25.84l-26.44,1.39Z"/>
      <path class="cls-1" d="M478.25,62.04c-7.12-6.57-13.31-12.25-13.31-19.76s5.63-13.25,13.13-13.65c4.5-.24,7.69,1.66,9,4.41v-12.96c-.94.61-2.06.48-4.31.23-1.87-.28-4.31-.52-6.56-.4-12.94.68-21,12.37-21,23.64s8.06,18.73,16.12,25.62c8.44,7.25,16.31,14.72,16.31,25.8s-7.5,19.17-17.62,19.7c-8.81.46-13.87-5.46-13.87-11.66,0-5.82,4.5-9.81,8.62-10.03,1.69-.09,3.75.55,5.06,1.61v-.56c0-3.94-3.56-7.89-9.37-7.58-7.31.39-14.44,7.14-14.44,17.1,0,11.45,9.19,21.67,23.62,20.91,15-.79,27.75-13.1,27.75-29.81,0-14.83-10.31-24.62-19.12-32.6Z"/>
      <path class="cls-1" d="M247.06,38.39c-1.46,1.13-2.89,2.08-4.29,2.84l1.52-.08c2.52-.13,5.01-.12,7.43.05,1-.69,1.95-1.44,2.84-2.27,1.91-1.78,3.61-3.78,5.12-5.96-2.02-.51-4.21-.87-6.57-1.1-1.98,2.74-4,4.92-6.06,6.53Z"/>
    </g>
  </g>
</svg>