<?xml version="1.0" encoding="UTF-8"?>
<svg id="Layer_2" data-name="Layer 2" xmlns="http://www.w3.org/2000/svg" viewBox="0 0 228.5 85.36">
  <defs>
    <style>
      .cls-1 {
        fill: none;
      }

      .cls-2 {
        fill: #cc203c;
      }
    </style>
  </defs>
  <g id="Layer_1-2" data-name="Layer 1">
    <g>
      <path class="cls-2" d="M142.46,80.33l-1.52.08c-1.45.79-2.88,1.39-4.27,1.78-1.02.29-1.95.46-2.82.5-1.02.05-1.85-.03-2.48-.26-.89.3-1.76.63-2.63.99.24.21.48.42.78.62,1.72,1.12,4.03,1.53,6.92,1.22,5.25-.65,9.73-2.28,13.46-4.88-2.43-.17-4.91-.19-7.43-.05Z"/>
      <path class="cls-2" d="M129.75,80.09c0-1.88,1.29-3.63,3.87-5.25,2.8-1.75,5.67-3.08,8.58-4.04-.6.02-1.19.04-1.8.07-2.32.14-4.6.45-6.83.89-.53.31-1.08.6-1.59.93-1.72,1.11-2.99,2.29-3.81,3.55-.82,1.26-1.23,2.43-1.23,3.53,0,1.43.63,2.63,1.81,3.65.87-.36,1.74-.69,2.63-.99-1.08-.38-1.62-1.16-1.62-2.34Z"/>
      <g>
        <path class="cls-1" d="M193.66,58.92c2.03-1.63,3.89-3.73,5.57-6.28,1.68-2.56,3.09-5.29,4.22-8.21,1.13-2.92,1.89-5.72,2.29-8.4.08-.47.12-.93.12-1.36v-1.23c0-.7-.04-1.35-.12-1.93-.08-.58-.23-1.03-.47-1.33-.16,0-.27-.02-.35-.1-.94-.11-1.62-.3-2.05-.6-.43-.29-.92-.62-1.47-.98-.31-.37-.47-.84-.47-1.38s.21-.99.64-1.33c.43-.34.92-.44,1.47-.31,1.95.29,4.07.53,6.33.72.78-1.37,1.17-2.61,1.17-3.7,0-1.88-1.41-2.74-4.22-2.6-1.72.09-3.5.83-5.34,2.22-1.84,1.39-3.66,3.17-5.45,5.34-1.8,2.17-3.52,4.53-5.16,7.09-1.64,2.55-3.05,5.04-4.22,7.45-.78,1.61-1.47,3.56-2.05,5.86-.59,2.3-.88,4.51-.88,6.62,0,1.96.33,3.64,1,5.06.66,1.42,1.74,2.08,3.23,2,2.11-.11,4.18-.98,6.22-2.62Z"/>
        <path class="cls-1" d="M98.42,66.24c2.11-.11,4.18-.99,6.22-2.62,2.03-1.63,3.89-3.73,5.57-6.28,1.68-2.56,3.09-5.29,4.22-8.21,1.13-2.92,1.89-5.72,2.29-8.4.08-.47.12-.93.12-1.36v-1.23c0-.7-.04-1.35-.12-1.93-.08-.58-.23-1.03-.47-1.33-.16,0-.28-.02-.35-.1-.94-.11-1.62-.31-2.05-.6-.43-.29-.92-.62-1.47-.98-.31-.37-.47-.84-.47-1.38s.21-.99.64-1.33c.43-.34.92-.44,1.47-.31,1.95.29,4.07.53,6.33.72.78-1.37,1.17-2.61,1.17-3.7,0-1.88-1.41-2.74-4.22-2.6-1.72.09-3.5.83-5.34,2.22-1.84,1.39-3.66,3.17-5.45,5.34-1.8,2.17-3.52,4.53-5.16,7.09-1.64,2.55-3.05,5.04-4.22,7.45-.78,1.61-1.47,3.56-2.05,5.86-.59,2.3-.88,4.51-.88,6.62,0,1.96.33,3.64,1,5.06.66,1.42,1.74,2.08,3.23,2Z"/>
        <path class="cls-2" d="M47.24,52.97c-2.16,2.56-4.3,4.87-6.42,6.91-.7.66-1.7,1.54-2.99,2.62-1.29,1.09-2.58,2.07-3.87,2.97-1.29.89-2.33,1.36-3.11,1.4-.63.03-.94-.46-.94-1.48,0-1.17.35-2.88,1.06-5.11.7-2.23,1.56-4.62,2.58-7.18,1.01-2.56,2.03-4.96,3.05-7.21,1.01-2.25,1.8-4.01,2.35-5.29.55-1.2,1.25-2.83,2.11-4.87.86-2.04,1.29-4.08,1.29-6.12,0-1.72-.51-2.91-1.53-3.56-1.02-.65-2.23-.94-3.64-.86-1.8.1-3.75.75-5.86,1.95-2.11,1.21-4.42,3.37-6.92,6.47l-3.75,4.66c-2.66,3.27-4.75,6.12-6.28,8.55-1.52,2.43-2.72,4.26-3.58,5.48.55-1.36,1.39-3.13,2.52-5.3,1.13-2.17,2.36-4.47,3.69-6.89,1.33-2.42,2.62-4.72,3.87-6.9,1.25-2.18,2.31-3.96,3.17-5.34.7-1.37,1.06-2.29,1.06-2.76,0-.86-.59-1.26-1.76-1.2-1.25.07-2.7.63-4.34,1.7-1.64,1.07-2.82,2.28-3.52,3.65-2.42,4.98-4.87,10.52-7.33,16.6-2.46,6.08-5.06,11.82-7.8,17.21-.23.72-.35,1.35-.35,1.9,0,.86.23,1.55.7,2.08.47.52.98.77,1.53.74.94-.05,1.76-.72,2.46-2.01.86-1.69,2.21-3.95,4.05-6.79,1.84-2.84,3.91-5.9,6.22-9.2,2.31-3.29,4.59-6.41,6.86-9.35l4.34-5.63c1.88-2.45,3.56-4.22,5.04-5.32,1.33-1.09,2.46-1.66,3.4-1.71.7-.04,1.23.25,1.58.86.35.61.53,1.42.53,2.44,0,2.11-.69,4.72-2.05,7.8-1.37,3.09-2.95,6.36-4.75,9.82-1.8,3.46-3.38,6.84-4.75,10.12-1.37,3.28-2.05,6.18-2.05,8.68,0,1.41.27,2.61.82,3.6.55.99,1.48,1.45,2.82,1.38.31-.02.62-.05.94-.11.31-.06.63-.13.94-.23.31-.09.72-.25,1.23-.48.51-.22,1.07-.51,1.7-.85,2.42-1.46,4.63-3.06,6.63-4.81,1.99-1.75,3.81-3.57,5.45-5.46,1.1-1.23,2.15-2.52,3.17-3.87.06-.07.1-.14.16-.21,0-.15-.03-.29-.03-.44,0-.97.11-2,.31-3.06Z"/>
        <path class="cls-2" d="M71.91,15.01c.47-.49,1.07-1.21,1.82-2.15.74-.94,1.74-1.44,2.99-1.51,1.17-.06,2.21.18,3.11.72.9.54,1.86,1.08,2.87,1.61,1.02.53,2.31.76,3.87.68.78-.04,1.68-.34,2.7-.91,1.02-.56,1.91-1.31,2.7-2.26.78-.94,1.17-1.92,1.17-2.94,0-.63-.1-.97-.29-1.04-.2-.07-.37-.1-.53-.09-.63.97-1.17,1.69-1.64,2.14-.47.46-1.1.7-1.88.75-1.72.09-3.42-.29-5.1-1.14-1.68-.85-3.54-1.22-5.57-1.12-1.1.06-2.19.47-3.28,1.23-1.1.76-1.99,1.69-2.7,2.79-.7,1.09-1.06,2.11-1.06,3.05,0,.39.27.45.82.19Z"/>
        <path class="cls-2" d="M87.28,53.55c-.7.82-1.49,1.68-2.35,2.59-1.57,1.89-3.21,3.68-4.93,5.37-1.72,1.7-3.44,3.02-5.16,3.97-1.1.69-1.92,1.04-2.46,1.07-.78.04-1.17-.45-1.17-1.47,0-1.17.55-3,1.64-5.49.55-1.28,1.39-3.09,2.52-5.42,1.13-2.33,2.35-4.78,3.64-7.36,1.29-2.57,2.46-4.89,3.52-6.94,1.06-2.05,1.74-3.44,2.05-4.16.31-.72.16-1.24-.47-1.56-.63-.32-1.41-.45-2.35-.4-.78.04-1.52.2-2.23.47-.7.27-1.21.65-1.53,1.14-.55.81-1.25,1.91-2.11,3.28-1.02,1.23-2.43,2.95-4.22,5.16-1.8,2.21-3.71,4.45-5.75,6.71-2.03,2.26-3.91,4.1-5.63,5.52-2.58,2.17-4.54,3.29-5.87,3.36-1.17.06-1.76-.65-1.76-2.14,0-1.17.51-3,1.53-5.48,1.09-2.72,2.7-5.78,4.81-9.18,2.11-3.4,4.53-6.54,7.27-9.43,2.42-2.63,4.89-4.92,7.39-6.85,2.5-1.93,4.77-2.95,6.8-3.06,2.27-.12,3.91,1.13,4.93,3.73.31.92.82,1.37,1.52,1.33.94-.05,1.41-.62,1.41-1.72s-.59-2.08-1.76-2.96c-1.49-1.1-2.97-1.86-4.46-2.29-1.49-.43-3.01-.6-4.57-.52-2.97.16-6.1,1.32-9.38,3.49-3.28,2.17-6.38,4.86-9.27,8.07-2.89,3.21-5.36,6.47-7.39,9.79-1.17,2.02-2.23,4.31-3.17,6.86-.51,1.38-.87,2.69-1.1,3.94.48-.57.96-1.14,1.44-1.73.39-.49.7-.74.94-.75.23-.01.35.22.35.69,0,.24-.1.55-.29.96-.2.4-.41.84-.64,1.33-.44.76-1.14,1.78-2.07,3.02.08,1.6.56,2.96,1.49,4.06,1.01,1.2,2.74,1.78,5.16,1.72,2.58-.14,5-1.09,7.27-2.85,2.27-1.76,4.4-3.93,6.39-6.5,1.99-2.57,3.81-5.15,5.46-7.75-.24.8-.67,1.9-1.29,3.3-.63,1.4-1.29,2.89-1.99,4.45-.7,1.56-1.33,2.99-1.88,4.27-.55,1.28-.9,2.2-1.05,2.76-.47,1.75-.7,3.33-.7,4.74,0,4.07,1.56,6.03,4.69,5.86,1.17-.06,2.52-.53,4.05-1.39,1.53-.86,3.15-2.16,4.87-3.9.94-.91,1.86-1.88,2.76-2.91.9-1.03,1.78-2.07,2.64-3.13.94-1.07,1.84-2.13,2.7-3.2.24-.29.47-.61.71-.91.11-1.17.31-2.35.58-3.52-.49.67-.99,1.34-1.53,1.97Z"/>
        <path class="cls-2" d="M49.68,52.13c.19-.4.29-.72.29-.96,0-.47-.12-.7-.35-.69-.24.01-.55.26-.94.75-.48.59-.96,1.16-1.44,1.73-.2,1.07-.31,2.09-.31,3.06,0,.15.03.29.03.44.93-1.24,1.63-2.26,2.07-3.02.23-.48.45-.92.64-1.33Z"/>
        <path class="cls-2" d="M90.74,66.06c1.76,2.18,3.97,3.2,6.63,3.06,2.5-.13,5.14-1.13,7.92-3,2.78-1.87,5.4-4.26,7.86-7.17,2.46-2.91,4.46-6.03,5.98-9.36,1.52-3.33,2.29-6.56,2.29-9.69,0-2.35-.47-4.16-1.41-5.45l1.17-.65c.31.06.66.08,1.06.06.39-.02.86-.05,1.41-.07,1.56-.08,3.32-.27,5.28-.57,1.95-.3,3.83-.65,5.63-1.06,1.8-.41,3.09-.79,3.87-1.14.7-.27,1.06-.56,1.06-.88s-.31-.45-.94-.42l-.47.02c-1.49.39-2.97.71-4.46.94-1.49.24-2.97.39-4.46.47-1.96.1-3.95.09-5.98-.04.63-1.13.94-2.16.94-3.1,0-1.49-.61-2.73-1.82-3.72-1.21-.99-2.91-1.43-5.1-1.32-2.82.15-5.92,1.33-9.33,3.55-3.4,2.22-6.43,4.76-9.09,7.65-2.03,2.22-3.85,4.59-5.46,7.1-1.6,2.51-2.87,5.13-3.81,7.84-.28.83-.5,1.66-.7,2.49.15-.2.32-.39.46-.6.23-.25.43-.38.59-.38.47-.03.7.31.7,1.02,0,.39-.16.75-.47,1.08-.62.83-1.25,1.61-1.87,2.4-.08.8-.13,1.6-.13,2.41,0,3.52.88,6.38,2.64,8.55ZM95.08,52.55c.59-2.3,1.27-4.26,2.05-5.86,1.17-2.41,2.58-4.89,4.22-7.45,1.64-2.55,3.36-4.91,5.16-7.09,1.8-2.17,3.62-3.95,5.45-5.34,1.84-1.39,3.62-2.13,5.34-2.22,2.82-.15,4.22.72,4.22,2.6,0,1.1-.39,2.33-1.17,3.7-2.27-.19-4.38-.43-6.33-.72-.55-.13-1.04-.02-1.47.31-.43.34-.64.78-.64,1.33s.16,1.01.47,1.38c.55.36,1.04.69,1.47.98.43.29,1.11.49,2.05.6.08.08.19.11.35.1.24.3.39.74.47,1.33.08.58.12,1.23.12,1.93v1.23c0,.43-.04.88-.12,1.36-.39,2.68-1.15,5.49-2.29,8.4-1.13,2.92-2.54,5.66-4.22,8.21-1.68,2.56-3.54,4.65-5.57,6.28-2.03,1.63-4.11,2.51-6.22,2.62-1.49.08-2.56-.59-3.23-2-.67-1.41-1-3.1-1-5.06,0-2.11.29-4.32.88-6.62Z"/>
        <path class="cls-2" d="M90.57,51.62c0-.7-.24-1.04-.7-1.02-.16,0-.35.14-.59.38-.15.21-.31.39-.46.6-.28,1.17-.47,2.34-.58,3.52.62-.79,1.25-1.57,1.87-2.4.31-.33.47-.69.47-1.08Z"/>
        <path class="cls-2" d="M176.32,49.44c-.63.74-1.25,1.48-1.88,2.21-1.8,1.97-3.6,3.66-5.4,5.04-1.8,1.39-3.68,2.64-5.63,3.76,1.09-3.58,1.95-7.46,2.58-11.65.39-2.84.65-5.42.76-7.73.12-2.32.18-4.41.18-6.29v-2.64c0-.82-.04-1.58-.12-2.28,1.49-1.41,3.01-2.84,4.57-4.29,1.56-1.45,2.66-2.31,3.28-2.58.24-.87.08-1.73-.47-2.56-.55-.83-1.6-1.21-3.17-1.12-1.49.08-2.68.65-3.58,1.72-.9,1.07-1.58,2.36-2.05,3.87-.47,1.51-.82,2.94-1.06,4.28l-2.93,3.21c-1.64,1.81-3.25,3.58-4.81,5.31-1.57,1.73-3.01,3.41-4.34,5.05l-8.45,10.55c-.94,1.22-1.41,2.31-1.41,3.25,0,.39.12.58.35.57.24-.01.59-.3,1.06-.88,2.89-3.52,5.47-6.63,7.74-9.34,2.27-2.7,4.44-5.23,6.51-7.57,2.07-2.34,4.24-4.71,6.51-7.1-.23,2.36-.7,5.28-1.41,8.77-.7,3.48-1.53,6.88-2.46,10.17-.94,3.3-1.88,5.99-2.82,8.08l-2.23,4.82c-4.22,1.56-8.41,2.85-12.55,3.89-3.5.88-6.67,2.17-9.56,3.82,2.24-.44,4.51-.75,6.83-.89.61-.03,1.21-.05,1.8-.07.5-.16,1-.34,1.51-.48,3.36-.96,6.76-2.04,10.21-3.24-.87,1.44-1.74,2.76-2.62,3.98,2.36.23,4.54.6,6.57,1.1,1.83-2.65,3.38-5.58,4.62-8.82,2.27-1.29,4.42-2.68,6.45-4.16,2.03-1.48,3.87-3.08,5.51-4.81.98-1.03,1.89-2.09,2.75-3.16.07-1.14.23-2.27.45-3.4-.44.56-.88,1.12-1.32,1.64Z"/>
        <path class="cls-2" d="M204.57,12.59h.12c.24-.1.76-.4,1.58-.91.82-.51,1.7-1.11,2.64-1.78.94-.68,1.64-1.18,2.11-1.52.7-.51,1.7-1.24,2.99-2.21,1.29-.97,2.48-1.91,3.58-2.83,1.09-.92,1.64-1.46,1.64-1.61,0-.31-.27-.69-.82-1.13-.55-.44-1.37-.63-2.46-.57-.55.03-1.06.23-1.53.61-.47.38-.9.77-1.29,1.18-.78.82-2.09,2.21-3.93,4.14-1.84,1.94-3.5,3.61-4.99,5.02-.23.25-.35.53-.35.84,0,.55.23.81.7.79Z"/>
        <path class="cls-2" d="M194.31,61.41c2.78-1.87,5.4-4.26,7.86-7.17,2.46-2.91,4.46-6.03,5.98-9.36,1.52-3.33,2.29-6.56,2.29-9.69,0-2.35-.47-4.16-1.41-5.45l1.17-.65c.31.06.66.08,1.06.06.39-.02.86-.05,1.41-.07,1.56-.08,3.32-.27,5.28-.57,1.95-.3,3.83-.65,5.63-1.06,1.8-.41,3.09-.79,3.87-1.14.7-.27,1.06-.56,1.06-.88s-.31-.45-.94-.42l-.47.02c-1.49.39-2.97.71-4.46.94-1.49.24-2.97.39-4.46.47-1.96.1-3.95.09-5.98-.04.63-1.13.94-2.16.94-3.1,0-1.49-.61-2.73-1.82-3.72-1.21-.99-2.91-1.43-5.1-1.32-2.82.15-5.92,1.33-9.33,3.55-3.4,2.22-6.43,4.76-9.09,7.65-2.03,2.22-3.85,4.59-5.46,7.1-1.6,2.51-2.87,5.13-3.81,7.84-.38,1.13-.66,2.27-.89,3.41.18-.23.37-.45.55-.69.16-.16.31-.25.47-.26.24-.01.45.17.65.55.19.38.18.74-.06,1.06-.64.93-1.34,1.84-2.06,2.73-.03.54-.07,1.07-.07,1.61,0,3.52.88,6.38,2.64,8.55,1.76,2.18,3.97,3.2,6.63,3.06,2.5-.13,5.14-1.13,7.92-3ZM184.22,59.54c-.67-1.41-1-3.1-1-5.06,0-2.11.29-4.32.88-6.62.59-2.3,1.27-4.26,2.05-5.86,1.17-2.41,2.58-4.89,4.22-7.45,1.64-2.55,3.36-4.91,5.16-7.09,1.8-2.17,3.62-3.95,5.45-5.34,1.84-1.39,3.62-2.13,5.34-2.22,2.82-.15,4.22.72,4.22,2.6,0,1.1-.39,2.33-1.17,3.7-2.27-.19-4.38-.43-6.33-.72-.55-.13-1.04-.02-1.47.31-.43.34-.64.78-.64,1.33s.16,1.01.47,1.38c.55.36,1.04.69,1.47.98.43.29,1.11.49,2.05.6.08.08.19.11.35.1.24.3.39.74.47,1.33.08.58.12,1.23.12,1.93v1.23c0,.43-.04.88-.12,1.36-.39,2.68-1.15,5.48-2.29,8.4-1.13,2.92-2.54,5.66-4.22,8.21-1.68,2.55-3.54,4.65-5.57,6.28-2.03,1.63-4.11,2.51-6.22,2.62-1.49.08-2.56-.59-3.23-2Z"/>
      </g>
      <path class="cls-2" d="M179.31,47.4c-.2-.38-.41-.57-.65-.55-.16,0-.31.1-.47.26-.18.24-.37.45-.55.69-.22,1.13-.38,2.26-.45,3.4.72-.9,1.42-1.81,2.06-2.73.24-.32.25-.68.06-1.06Z"/>
    </g>
  </g>
</svg>