<?xml version="1.0" encoding="UTF-8"?>
<svg id="Layer_2" data-name="Layer 2" xmlns="http://www.w3.org/2000/svg" viewBox="0 0 479.63 141.44">
  <defs>
    <style>
      .cls-1 {
        fill: #f4e9d8;
      }

      .cls-2 {
        fill: #cc203c;
      }
    </style>
  </defs>
  <g id="Layer_1-2" data-name="Layer 1">
    <g>
      <g>
        <path class="cls-2" d="M135.22,134.29l-9.19.49c.46-1.71.61-3.41.61-6.17V62.68c0-16.56-9.19-32.33-23.58-43.22v110.39c0,2.45.31,4.58.77,6.09l-9.19.48c.46-1.71.61-3.41.61-6.17v-50.29c-3.06,18.87-20.97,32.38-41.19,33.45-26.03,1.37-47.31-18.81-47.31-45.8C6.76,36.96,33.25,4.75,69.54,2.83c28.32-1.49,52.67,17.15,62.16,43.02,1.53,4.37,2.14,7.86,2.91,12.57,4.44-8.82,11.79-13.96,19.14-14.35,11.18-.59,18.37,9.3,18.37,19.27,0,8.28-4.13,15.4-8.57,22.38-4.9,8.08-10.41,16.49-10.41,26.92,0,12.11,8.57,14.88,14.09,14.59,5.82-.31,10.41-5,10.41-10.52,0-4.45-3.37-7.18-6.74-7-1.38.07-3.06.78-4.13,1.75v-.46c0-3.22,2.91-7.21,7.81-7.47,5.82-.31,11.64,4.75,11.64,12.57s-7.2,18.16-18.98,18.79c-9.49.5-22.05-4.82-22.05-21.83,0-11.65,5.51-20.53,10.56-28.62,4.44-7.13,8.42-13.63,8.42-21.3,0-6.44-4.9-11.85-12.25-11.47-9.49.5-17.45,12.73-17.45,23.61v52.9c0,2.45.31,4.58.77,6.09ZM95.26,68.17V20.79c0-1.69-.31-3.82-.46-5.65-8.11-3.25-16.69-4.79-25.11-4.35-31.08,1.64-54.51,28.48-54.51,56.39,0,23.61,17.15,39.88,38.74,38.74,18.37-.97,33.68-14.35,33.68-31.37,0-13.95-10.26-22.61-19.75-22.11-6.89.36-12.55,5.26-12.55,11.24,0,4.45,3.37,7.18,6.74,7,1.38-.07,3.22-.78,4.13-1.75v.92c0,2.76-2.6,6.73-7.96,7.01-5.97.31-11.64-4.14-11.64-11.96,0-10.43,9.19-19.5,21.28-20.14,15-.79,25.11,9.87,27.41,23.39Z"/>
        <path class="cls-2" d="M199.9,130.11l-9.49.5c.92-1.58,1.68-3.62,2.3-5.79,5.97-23.31,12.25-47.56,18.37-70.88.61-2.18.92-5.11.77-6.63l10.87-.57c-.31,1.55,0,3.83.76,6.55,5.97,22.68,11.79,46.29,17.91,68.97.61,2.11,1.38,4.07,2.3,5.55l-9.49.5c.31-1.7.15-3.84-.61-6.56l-2.45-8.76-28.17,1.49-2.45,9.02c-.77,2.95-.92,4.95-.61,6.62ZM205.26,107.29l23.58-1.24-11.33-50.61h-.15s-12.1,51.86-12.1,51.86Z"/>
        <path class="cls-2" d="M252.89,44.53l11.94-.63c17.61-.93,30.16,11.13,30.16,26.77,0,11.19-7.2,22.46-19.29,28.31.61,15.91,12.4,19.58,18.22,19.28.61-.03,1.53-.23,2.14-1.03v8.43c-1.22.83-2.45.9-3.98.98-9.34.49-24.96-8.65-24.19-29.23.15-1.85.46-3.4,1.07-5.12,9.49-1.11,18.07-10.77,18.07-21.04,0-8.59-6.74-20.19-20.52-19.46l-5.21.28v68.69c0,2.45.31,4.58.76,6.09l-9.19.48c.46-1.71.61-3.41.61-6.17V50.63c0-2.61-.15-4.44-.61-6.1Z"/>
        <path class="cls-2" d="M304.34,83.52c0-23.15,18.68-43.3,41.64-44.51,2.6-.14,5.82,0,8.42.48l.92,7.92c-2.45-.94-5.51-1.09-8.57-.93-17.61,1.08-33.99,16.51-33.99,36.6s14.7,34.03,33.22,33.05c4.13-.22,6.89-.67,9.49-2.19l-1.07,8.34c-2.6.75-5.82,1.23-8.42,1.36-24.04,1.27-41.64-17.12-41.64-40.12Z"/>
        <path class="cls-2" d="M373.71,120.94l-9.49.5c.92-1.58,1.69-3.62,2.3-5.79,5.97-23.31,12.25-47.56,18.37-70.88.61-2.18.92-5.11.76-6.63l10.87-.57c-.31,1.55,0,3.83.77,6.55,5.97,22.68,11.79,46.29,17.91,68.97.61,2.11,1.38,4.07,2.3,5.55l-9.49.5c.31-1.7.15-3.84-.61-6.56l-2.45-8.76-28.17,1.49-2.45,9.02c-.77,2.95-.92,4.95-.61,6.62ZM379.07,98.12l23.58-1.24-11.33-50.61h-.15s-12.1,51.86-12.1,51.86Z"/>
        <path class="cls-2" d="M445.8,51.39c0,6.59,5.21,11.68,12.55,18.81,10.26,9.88,21.28,20.8,21.28,38.13,0,21.01-16.38,32.3-31.08,33.07-16.38.86-26.49-11.33-26.49-24.21,0-11.96,8.57-19.92,17.61-20.4,5.67-.3,10.26,2.52,10.26,8.2,0,1.38-.31,2.47-.92,3.42-1.38-2.69-4.59-3.9-7.66-3.74-5.51.29-10.72,5.16-10.72,12.22,0,8.74,7.96,16.44,18.68,15.88,10.41-.55,21.74-8.66,21.74-24.3,0-13.19-7.96-21.2-17.76-30.34-8.12-7.54-16.08-15.25-16.08-25.68,0-9.51,6.74-19.67,17.91-20.26,1.99-.1,4.13.09,5.67.31,1.07.1,1.68.22,2.91.15l.92-.05v9.81c-1.84-1.74-4.59-2.82-7.66-2.66-6.12.32-11.18,5.19-11.18,11.63Z"/>
      </g>
      <g>
        <path d="M132.24,133l-9.19.49c.46-1.71.61-3.41.61-6.17V61.39c0-16.56-9.19-32.33-23.58-43.22v110.39c0,2.45.31,4.58.77,6.09l-9.19.48c.46-1.71.61-3.41.61-6.17v-50.29c-3.06,18.87-20.97,32.38-41.19,33.45-26.03,1.37-47.31-18.81-47.31-45.8C3.78,35.68,30.27,3.46,66.56,1.55c28.32-1.49,52.67,17.15,62.16,43.02,1.53,4.37,2.14,7.86,2.91,12.57,4.44-8.82,11.79-13.96,19.14-14.35,11.18-.59,18.37,9.3,18.37,19.27,0,8.28-4.13,15.4-8.57,22.38-4.9,8.08-10.41,16.49-10.41,26.92,0,12.11,8.57,14.88,14.09,14.59,5.82-.31,10.41-5,10.41-10.52,0-4.45-3.37-7.18-6.74-7-1.38.07-3.06.78-4.13,1.75v-.46c0-3.22,2.91-7.21,7.81-7.47,5.82-.31,11.64,4.75,11.64,12.57s-7.2,18.16-18.98,18.79c-9.49.5-22.05-4.82-22.05-21.83,0-11.65,5.51-20.53,10.56-28.62,4.44-7.13,8.42-13.63,8.42-21.3,0-6.44-4.9-11.85-12.25-11.47-9.49.5-17.45,12.73-17.45,23.61v52.9c0,2.45.31,4.58.77,6.09ZM92.28,66.88V19.51c0-1.69-.31-3.82-.46-5.65-8.11-3.25-16.69-4.79-25.11-4.35-31.08,1.64-54.51,28.48-54.51,56.39,0,23.61,17.15,39.88,38.74,38.74,18.37-.97,33.68-14.35,33.68-31.37,0-13.95-10.26-22.61-19.75-22.11-6.89.36-12.55,5.26-12.55,11.24,0,4.45,3.37,7.18,6.74,7,1.38-.07,3.22-.78,4.13-1.75v.92c0,2.76-2.6,6.73-7.96,7.01-5.97.31-11.64-4.14-11.64-11.96,0-10.43,9.19-19.5,21.28-20.14,15-.79,25.11,9.87,27.41,23.39Z"/>
        <path d="M196.92,128.83l-9.49.5c.92-1.58,1.68-3.62,2.3-5.79,5.97-23.31,12.25-47.56,18.37-70.88.61-2.18.92-5.11.77-6.63l10.87-.57c-.31,1.55,0,3.83.76,6.55,5.97,22.68,11.79,46.29,17.91,68.97.61,2.11,1.38,4.07,2.3,5.55l-9.49.5c.31-1.7.15-3.84-.61-6.56l-2.45-8.76-28.17,1.49-2.45,9.02c-.77,2.95-.92,4.95-.61,6.62ZM202.28,106.01l23.58-1.24-11.33-50.61h-.15s-12.1,51.86-12.1,51.86Z"/>
        <path d="M249.92,43.24l11.94-.63c17.61-.93,30.16,11.13,30.16,26.77,0,11.19-7.2,22.46-19.29,28.31.61,15.91,12.4,19.58,18.22,19.28.61-.03,1.53-.23,2.14-1.03v8.43c-1.22.83-2.45.9-3.98.98-9.34.49-24.96-8.65-24.19-29.23.15-1.85.46-3.4,1.07-5.12,9.49-1.11,18.07-10.77,18.07-21.04,0-8.59-6.74-20.19-20.52-19.46l-5.21.28v68.69c0,2.45.31,4.58.76,6.09l-9.19.48c.46-1.71.61-3.41.61-6.17V49.34c0-2.61-.15-4.44-.61-6.1Z"/>
        <path d="M301.36,82.23c0-23.15,18.68-43.3,41.64-44.51,2.6-.14,5.82,0,8.42.48l.92,7.92c-2.45-.94-5.51-1.09-8.57-.93-17.61,1.08-33.99,16.51-33.99,36.6s14.7,34.03,33.22,33.05c4.13-.22,6.89-.67,9.49-2.19l-1.07,8.34c-2.6.75-5.82,1.23-8.42,1.36-24.04,1.27-41.64-17.12-41.64-40.12Z"/>
        <path d="M370.74,119.66l-9.49.5c.92-1.58,1.69-3.62,2.3-5.79,5.97-23.31,12.25-47.56,18.37-70.88.61-2.18.92-5.11.76-6.63l10.87-.57c-.31,1.55,0,3.83.77,6.55,5.97,22.68,11.79,46.29,17.91,68.97.61,2.11,1.38,4.07,2.3,5.55l-9.49.5c.31-1.7.15-3.84-.61-6.56l-2.45-8.76-28.17,1.49-2.45,9.02c-.77,2.95-.92,4.95-.61,6.62ZM376.1,96.84l23.58-1.24-11.33-50.61h-.15s-12.1,51.86-12.1,51.86Z"/>
        <path d="M442.82,50.11c0,6.59,5.21,11.68,12.55,18.81,10.26,9.88,21.28,20.8,21.28,38.13,0,21.01-16.38,32.3-31.08,33.07-16.38.86-26.49-11.33-26.49-24.21,0-11.96,8.57-19.92,17.61-20.4,5.67-.3,10.26,2.52,10.26,8.2,0,1.38-.31,2.47-.92,3.42-1.38-2.69-4.59-3.9-7.66-3.74-5.51.29-10.72,5.16-10.72,12.22,0,8.74,7.96,16.44,18.68,15.88,10.41-.55,21.74-8.66,21.74-24.3,0-13.19-7.96-21.2-17.76-30.34-8.12-7.54-16.08-15.25-16.08-25.68,0-9.51,6.74-19.67,17.91-20.26,1.99-.1,4.13.09,5.67.31,1.07.1,1.68.22,2.91.15l.92-.05v9.81c-1.84-1.74-4.59-2.82-7.66-2.66-6.12.32-11.18,5.19-11.18,11.63Z"/>
      </g>
      <g>
        <path class="cls-1" d="M128.46,131.54l-9.19.49c.46-1.71.61-3.41.61-6.17V59.93c0-16.56-9.19-32.33-23.58-43.22v110.39c0,2.45.31,4.58.77,6.09l-9.19.48c.46-1.71.61-3.41.61-6.17v-50.29c-3.06,18.87-20.97,32.38-41.19,33.45C21.28,112.05,0,91.86,0,64.88,0,34.22,26.49,2,62.77.08c28.32-1.49,52.67,17.15,62.16,43.02,1.53,4.37,2.14,7.86,2.91,12.57,4.44-8.82,11.79-13.96,19.14-14.35,11.18-.59,18.37,9.3,18.37,19.27,0,8.28-4.13,15.4-8.57,22.38-4.9,8.08-10.41,16.49-10.41,26.92,0,12.11,8.57,14.88,14.09,14.59,5.82-.31,10.41-5,10.41-10.52,0-4.45-3.37-7.18-6.74-7-1.38.07-3.06.78-4.13,1.75v-.46c0-3.22,2.91-7.21,7.81-7.47,5.82-.31,11.64,4.75,11.64,12.57s-7.2,18.16-18.98,18.79c-9.49.5-22.05-4.82-22.05-21.83,0-11.65,5.51-20.53,10.56-28.62,4.44-7.13,8.42-13.63,8.42-21.3,0-6.44-4.9-11.85-12.25-11.47-9.49.5-17.45,12.73-17.45,23.61v52.9c0,2.45.31,4.58.77,6.09ZM88.5,65.42V18.04c0-1.69-.31-3.82-.46-5.65-8.11-3.25-16.69-4.79-25.11-4.35-31.08,1.64-54.51,28.48-54.51,56.39,0,23.61,17.15,39.88,38.74,38.74,18.37-.97,33.68-14.35,33.68-31.37,0-13.95-10.26-22.61-19.75-22.11-6.89.36-12.55,5.26-12.55,11.24,0,4.45,3.37,7.18,6.74,7,1.38-.07,3.22-.78,4.13-1.75v.92c0,2.76-2.6,6.73-7.96,7.01-5.97.31-11.64-4.14-11.64-11.96,0-10.43,9.19-19.5,21.28-20.14,15-.79,25.11,9.87,27.41,23.39Z"/>
        <path class="cls-1" d="M193.14,127.37l-9.49.5c.92-1.58,1.68-3.62,2.3-5.79,5.97-23.31,12.25-47.56,18.37-70.88.61-2.18.92-5.11.77-6.63l10.87-.57c-.31,1.55,0,3.83.76,6.55,5.97,22.68,11.79,46.29,17.91,68.97.61,2.11,1.38,4.07,2.3,5.55l-9.49.5c.31-1.7.15-3.84-.61-6.56l-2.45-8.76-28.17,1.49-2.45,9.02c-.77,2.95-.92,4.95-.61,6.62ZM198.5,104.54l23.58-1.24-11.33-50.61h-.15s-12.1,51.86-12.1,51.86Z"/>
        <path class="cls-1" d="M246.13,41.78l11.94-.63c17.61-.93,30.16,11.13,30.16,26.77,0,11.19-7.2,22.46-19.29,28.31.61,15.91,12.4,19.58,18.22,19.28.61-.03,1.53-.23,2.14-1.03v8.43c-1.22.83-2.45.9-3.98.98-9.34.49-24.96-8.65-24.19-29.23.15-1.85.46-3.4,1.07-5.12,9.49-1.11,18.07-10.77,18.07-21.04,0-8.59-6.74-20.19-20.52-19.46l-5.21.28v68.69c0,2.45.31,4.58.76,6.09l-9.19.48c.46-1.71.61-3.41.61-6.17V47.88c0-2.61-.15-4.44-.61-6.1Z"/>
        <path class="cls-1" d="M297.58,80.77c0-23.15,18.68-43.3,41.64-44.51,2.6-.14,5.82,0,8.42.48l.92,7.92c-2.45-.94-5.51-1.09-8.57-.93-17.61,1.08-33.99,16.51-33.99,36.6s14.7,34.03,33.22,33.05c4.13-.22,6.89-.67,9.49-2.19l-1.07,8.34c-2.6.75-5.82,1.23-8.42,1.36-24.04,1.27-41.64-17.12-41.64-40.12Z"/>
        <path class="cls-1" d="M366.95,118.2l-9.49.5c.92-1.58,1.69-3.62,2.3-5.79,5.97-23.31,12.25-47.56,18.37-70.88.61-2.18.92-5.11.76-6.63l10.87-.57c-.31,1.55,0,3.83.77,6.55,5.97,22.68,11.79,46.29,17.91,68.97.61,2.11,1.38,4.07,2.3,5.55l-9.49.5c.31-1.7.15-3.84-.61-6.56l-2.45-8.76-28.17,1.49-2.45,9.02c-.77,2.95-.92,4.95-.61,6.62ZM372.31,95.37l23.58-1.24-11.33-50.61h-.15s-12.1,51.86-12.1,51.86Z"/>
        <path class="cls-1" d="M439.03,48.64c0,6.59,5.21,11.68,12.55,18.81,10.26,9.88,21.28,20.8,21.28,38.13,0,21.01-16.38,32.3-31.08,33.07-16.38.86-26.49-11.33-26.49-24.21,0-11.96,8.57-19.92,17.61-20.4,5.67-.3,10.26,2.52,10.26,8.2,0,1.38-.31,2.47-.92,3.42-1.38-2.69-4.59-3.9-7.66-3.74-5.51.29-10.72,5.16-10.72,12.22,0,8.74,7.96,16.44,18.68,15.88,10.41-.55,21.74-8.66,21.74-24.3,0-13.19-7.96-21.2-17.76-30.34-8.12-7.54-16.08-15.25-16.08-25.68,0-9.51,6.74-19.67,17.91-20.26,1.99-.1,4.13.09,5.67.31,1.07.1,1.68.22,2.91.15l.92-.05v9.81c-1.84-1.74-4.59-2.82-7.66-2.66-6.12.32-11.18,5.19-11.18,11.63Z"/>
      </g>
    </g>
  </g>
</svg>