<?xml version="1.0" encoding="UTF-8"?>
<svg id="Layer_2" data-name="Layer 2" xmlns="http://www.w3.org/2000/svg" viewBox="0 0 504.48 153.8">
  <defs>
    <style>
      .cls-1 {
        fill: #f4e9d8;
      }

      .cls-2 {
        fill: #f4e9d8;
      }

      .cls-3 {
        fill: none;
      }

      .cls-4 {
        fill: #cc203c;
      }

      .cls-5 {
        fill: #cc203c;
      }
    </style>
  </defs>
  <g id="Layer_1-2" data-name="Layer 1">
    <g>
      <path class="cls-5" d="M31.6,109.97c13.35-6.46,21.3-18.89,21.3-31.25,0-17.26-13.86-30.58-33.3-29.55l-13.18.69c.51,1.84.68,3.86.68,6.73v77.85c0,3.05-.17,4.92-.68,6.81l10.14-.53c-.51-1.67-.84-4.02-.84-6.73V58.17l5.75-.3c15.21-.8,22.65,12.01,22.65,21.48,0,11.34-9.47,21.99-19.94,23.22-.68,1.9-1.01,3.61-1.18,5.65-.84,22.72,16.39,32.82,26.7,32.27,1.69-.09,3.04-.16,4.39-1.08v-9.31c-.68.88-1.69,1.11-2.37,1.14-6.42.34-19.44-3.71-20.11-21.28Z"/>
      <path class="cls-5" d="M81.77,46.56l-16.37.86c.51,1.67.68,3.86.68,6.06v77.85c0,2.88-.17,5.09-.68,6.81l31.6-1.67c1.52-.08,3.38,0,4.39.11l1.86-9.24c-1.69.43-3.55.69-4.73.76l-23.83,1.26v-22.17l16.9-.89c1.69-.09,3.21,0,4.56.27v-9.65c-1.35.58-2.87,1-4.56,1.09l-16.9.89v-43.67l7.88-.42c-.68-1.32-1.02-2.99-1.02-5.02,0-1,.09-2.09.22-3.23Z"/>
      <path class="cls-5" d="M92.52,54.12c-.07.07-.15.11-.23.18l4.37-.23c1.35-.07,2.87.02,4.56.27l-1.69-9.05c-.32.07-.68.14-1.07.21-.33.75-.68,1.48-1.05,2.18-1.44,2.63-3.07,4.77-4.9,6.44Z"/>
      <path class="cls-5" d="M81.25,51.54c0,1.09.95,2.82,1.32,3.27l9.72-.51c.74-.44,1.38-.85,2.1-1.79,1.31-1.64,3.23-2.9,4.27-5.44.04-.09.25-1.57.29-1.66l-12.18.89c-.14.58-.29,1.16-.42,1.72-.39,1.69-5.09,2.35-5.09,3.53Z"/>
      <path class="cls-5" d="M123.56,126.78V50.45c0-2.2,0-4.06.68-6.13l-10.14.53c.51,1.83.84,4.02.84,6.05v77.85c0,3.05-.17,4.92-.68,6.81l31.6-1.67c1.69-.09,3.38,0,4.56.27.51-3.24,1.01-6.82,1.69-10.92-1.35,1.26-3.38,2.21-7.1,2.41l-21.46,1.13Z"/>
      <path class="cls-5" d="M198.77,47.66c-.84-3-1.18-5.52-.84-7.23l-12,.63c.17,1.68-.17,4.92-.84,7.32-6.76,25.74-13.69,52.51-20.28,78.25-.68,2.4-1.52,4.65-2.54,6.4l10.48-.55c-.34-1.84-.17-4.05.68-7.31l2.7-9.96,31.1-1.64,2.7,9.67c.84,3,1.01,5.36.68,7.24l10.48-.55c-1.01-1.64-1.86-3.79-2.54-6.13-6.76-25.03-13.18-51.09-19.77-76.13ZM178.66,107.28l13.35-57.23h.17s12.51,55.86,12.51,55.86l-26.03,1.37Z"/>
      <path class="cls-5" d="M274.62,43.66l1.69-.09c9.8-.52,19.1,1.36,25.52,6.78l-2.2-13.09c-.34.02-.68.2-1.01.22-2.87.15-5.24-.57-8.28-1.26-4.39-1.12-9.63-1.52-15.89-1.19-25.18,1.5-45.46,23.72-45.46,49.11,0,23.52,17.24,42.25,39.72,44.11v2.71c6.08.02,10.14,4.54,10.14,9.45s-3.55,7.63-6.93,7.81c-1.52.08-2.87-.36-4.06-1.14v1.02c0,3.38,3.04,5.93,7.77,5.68,6.08-.32,11.66-5.35,11.66-13.31,0-3.38-3.21-9.31-9.63-12.35,5.41-.62,9.8-2.21,13.35-3.41,3.21-1.02,5.75-2,8.79-1.99l2.03-12.63c-7.61,7.17-17.41,9.21-27.04,9.72-20.28,1.07-36.17-15.02-36.17-36.17s17.24-38.14,36-39.98Z"/>
      <path class="cls-4" d="M356.57,13.51c.58.24,1.16.48,1.73.74,3.21,1.35,6.42,2.71,9.97,2.52,6.59-.35,10.48-5.29,10.48-9.52,0-1.35-.51-2.68-1.18-3.66-1.18,2.77-3.89,4.94-7.94,5.16-2.77.15-5.2-.22-7.47-.86-.49.64-.82,1.07-.94,1.24-1.28,1.54-2.83,3-4.64,4.38Z"/>
      <path class="cls-4" d="M345.87,8.27c.1-.46.18-.93.24-1.39.24-.97.58-2.1,1.01-3.38-6.75.36-10.46,5.29-10.46,9.69,0,1.18.51,2.68,1.01,3.67,1.01-3.26,4.71-5.15,8.25-5.34-.12-.59-.21-1.2-.21-1.87,0-.46.05-.92.15-1.38Z"/>
      <path class="cls-4" d="M357.62,30.99c-25.35,1.34-45.97,23.41-45.97,48.8s20.62,45.29,45.97,43.95c25.18-1.33,45.97-23.24,45.97-48.8s-20.79-45.28-45.97-43.95ZM357.62,115.1c-20.28,1.07-36.34-14.84-36.34-35.83s16.06-38.59,36.34-39.66c20.11-1.06,36.34,15.01,36.34,35.83s-16.22,38.6-36.34,39.66Z"/>
      <path class="cls-4" d="M356.46,70.87c-3.2-.33-6.31,2.07-6.81,5.25s1.78,6.13,4.98,6.46,6.31-2.07,6.81-5.25c.5-3.18-1.78-6.13-4.98-6.46Z"/>
      <path class="cls-4" d="M422.69,111v-22.17l16.9-.89c1.69-.09,3.21,0,4.56.27v-9.65c-1.35.58-2.87,1-4.56,1.09l-16.9.89v-43.67l21.97-1.16c1.35-.07,2.87.02,4.56.27l-1.69-9.05c-1.01.22-2.37.46-4.06.55l-30.08,1.59c.51,1.67.68,3.86.68,6.06v77.85c0,2.88-.17,5.09-.68,6.81l31.6-1.67c1.52-.08,3.38,0,4.39.11l1.86-9.24c-1.69.43-3.55.69-4.73.76l-23.83,1.26Z"/>
      <path class="cls-4" d="M487.24,62.4c-6.42-5.92-12-11.05-12-17.82s5.07-11.95,11.83-12.3c4.06-.21,6.93,1.5,8.11,3.97v-11.68c-.85.55-1.86.44-3.89.2-1.69-.25-3.89-.47-5.91-.36-11.66.61-18.93,11.15-18.93,21.31s7.27,16.88,14.54,23.1c7.61,6.54,14.7,13.27,14.7,23.26s-6.76,17.28-15.89,17.76c-7.94.42-12.51-4.93-12.51-10.51,0-5.25,4.06-8.85,7.77-9.04,1.52-.08,3.38.5,4.56,1.45v-.51c0-3.55-3.21-7.11-8.45-6.83-6.59.35-13.01,6.44-13.01,15.41,0,10.32,8.28,19.53,21.29,18.85,13.52-.71,25.01-11.81,25.01-26.88,0-13.37-9.3-22.19-17.24-29.39Z"/>
      <path d="M29.32,108.4c13.35-6.46,21.3-18.89,21.3-31.25,0-17.26-13.86-30.58-33.3-29.55l-13.18.69c.51,1.84.68,3.86.68,6.73v77.85c0,3.05-.17,4.92-.68,6.81l10.14-.53c-.51-1.67-.84-4.02-.84-6.73V56.6l5.75-.3c15.21-.8,22.65,12.01,22.65,21.48,0,11.34-9.47,21.99-19.94,23.22-.68,1.9-1.01,3.61-1.18,5.65-.84,22.72,16.39,32.82,26.7,32.27,1.69-.09,3.04-.16,4.39-1.08v-9.31c-.68.88-1.69,1.11-2.37,1.14-6.42.34-19.44-3.71-20.11-21.28Z"/>
      <path d="M79.5,45l-16.37.86c.51,1.67.68,3.86.68,6.06v77.85c0,2.88-.17,5.09-.68,6.81l31.6-1.67c1.52-.08,3.38,0,4.39.11l1.86-9.24c-1.69.43-3.55.69-4.73.76l-23.83,1.26v-22.17l16.9-.89c1.69-.09,3.21,0,4.56.27v-9.65c-1.35.58-2.87,1-4.56,1.09l-16.9.89v-43.67l7.88-.42c-.68-1.32-1.02-2.99-1.02-5.02,0-1,.09-2.09.22-3.23Z"/>
      <path d="M90.25,52.55c-.07.07-.15.11-.23.18l4.37-.23c1.35-.07,2.87.02,4.56.27l-1.69-9.05c-.32.07-.68.14-1.07.21-.33.75-.68,1.48-1.05,2.18-1.44,2.63-3.07,4.77-4.9,6.44Z"/>
      <path d="M79.6,49.92c0,1.09.39,2.41.76,2.85l6.62.12c.74-.44,1.47-1.11,2.19-2.05,1.31-1.64,2.48-3.73,3.53-6.27.04-.09.07-.19.11-.28l-8.31.44c-.14.58-.29,1.16-.42,1.72-.39,1.69-4.48,2.29-4.48,3.47Z"/>
      <path d="M121.29,125.21V48.88c0-2.2,0-4.06.68-6.13l-10.14.53c.51,1.83.84,4.02.84,6.05v77.85c0,3.05-.17,4.92-.68,6.81l31.6-1.67c1.69-.09,3.38,0,4.56.27.51-3.24,1.01-6.82,1.69-10.92-1.35,1.26-3.38,2.21-7.1,2.41l-21.46,1.13Z"/>
      <path d="M196.5,46.1c-.84-3-1.18-5.52-.84-7.23l-12,.63c.17,1.68-.17,4.92-.84,7.32-6.76,25.74-13.69,52.51-20.28,78.25-.68,2.4-1.52,4.65-2.54,6.4l10.48-.55c-.34-1.84-.17-4.05.68-7.31l2.7-9.96,31.1-1.64,2.7,9.67c.84,3,1.01,5.36.68,7.24l10.48-.55c-1.01-1.64-1.86-3.79-2.54-6.13-6.76-25.03-13.18-51.09-19.77-76.13ZM176.38,105.72l13.35-57.23h.17s12.51,55.86,12.51,55.86l-26.03,1.37Z"/>
      <path d="M272.35,42.1l1.69-.09c9.8-.52,19.1,1.36,25.52,6.78l-2.2-13.09c-.34.02-.68.2-1.01.22-2.87.15-5.24-.57-8.28-1.26-4.39-1.12-9.63-1.52-15.89-1.19-25.18,1.5-45.46,23.72-45.46,49.11,0,23.52,17.24,42.25,39.72,44.11v2.71c6.08.02,10.14,4.54,10.14,9.45s-3.55,7.63-6.93,7.81c-1.52.08-2.87-.36-4.06-1.14v1.02c0,3.38,3.04,5.93,7.77,5.68,6.08-.32,11.66-5.35,11.66-13.31,0-3.38-3.21-9.31-9.63-12.35,5.41-.62,9.8-2.21,13.35-3.41,3.21-1.02,5.75-2,8.79-1.99l2.03-12.63c-7.61,7.17-17.41,9.21-27.04,9.72-20.28,1.07-36.17-15.02-36.17-36.17s17.24-38.14,36-39.98Z"/>
      <path d="M348.05,10.16c1.2.18,2.34.44,3.44.78.68-.54,1.58-1.38,2.7-2.53.9-.93,1.86-1.96,2.85-3.04-.74-.29-1.47-.59-2.18-.91-1.52-.61-3.01-1.2-4.49-1.67-.48,1.28-.92,2.53-1.32,3.73-.47,1.43-.79,2.63-.99,3.65Z"/>
      <path d="M354.29,11.95c.58.24,1.16.48,1.73.74,3.21,1.35,6.42,2.71,9.97,2.52,6.59-.35,10.48-5.29,10.48-9.52,0-1.35-.51-2.68-1.18-3.66-1.18,2.77-3.89,4.94-7.94,5.16-2.77.15-5.2-.22-7.47-.86-.49.64-.82,1.07-.94,1.24-1.28,1.54-2.83,3-4.64,4.38Z"/>
      <path d="M343.6,6.71c.1-.46.18-.93.24-1.39.24-.97.58-2.1,1.01-3.38-6.75.36-10.46,5.29-10.46,9.69,0,1.18.51,2.68,1.01,3.67,1.01-3.26,4.71-5.15,8.25-5.34-.12-.59-.21-1.2-.21-1.87,0-.46.05-.92.15-1.38Z"/>
      <path d="M355.35,29.43c-25.35,1.34-45.97,23.41-45.97,48.8s20.62,45.29,45.97,43.95c25.18-1.33,45.97-23.24,45.97-48.8s-20.79-45.28-45.97-43.95ZM355.35,113.54c-20.28,1.07-36.34-14.84-36.34-35.83s16.06-38.59,36.34-39.66c20.11-1.06,36.34,15.01,36.34,35.83s-16.22,38.6-36.34,39.66Z"/>
      <path d="M354.19,69.31c-3.2-.33-6.31,2.07-6.81,5.25-.5,3.18,1.78,6.13,4.98,6.46,3.2.33,6.31-2.07,6.81-5.25s-1.78-6.13-4.98-6.46Z"/>
      <path d="M420.42,109.43v-22.17l16.9-.89c1.69-.09,3.21,0,4.56.27v-9.65c-1.35.58-2.87,1-4.56,1.09l-16.9.89v-43.67l21.97-1.16c1.35-.07,2.87.02,4.56.27l-1.69-9.05c-1.01.22-2.37.46-4.06.55l-30.08,1.59c.51,1.67.68,3.86.68,6.06v77.85c0,2.88-.17,5.09-.68,6.81l31.6-1.67c1.52-.08,3.38,0,4.39.11l1.86-9.24c-1.69.43-3.55.69-4.73.76l-23.83,1.26Z"/>
      <path d="M484.97,60.84c-6.42-5.92-12-11.05-12-17.82s5.07-11.95,11.83-12.3c4.06-.21,6.93,1.5,8.11,3.97v-11.68c-.85.55-1.86.44-3.89.2-1.69-.25-3.89-.47-5.91-.36-11.66.61-18.93,11.15-18.93,21.31s7.27,16.88,14.54,23.1c7.61,6.54,14.7,13.27,14.7,23.26s-6.76,17.28-15.89,17.76c-7.94.42-12.51-4.93-12.51-10.51,0-5.25,4.06-8.85,7.77-9.04,1.52-.08,3.38.5,4.56,1.45v-.51c0-3.55-3.21-7.11-8.45-6.83-6.59.35-13.01,6.44-13.01,15.41,0,10.32,8.28,19.53,21.29,18.85,13.52-.71,25.01-11.81,25.01-26.88,0-13.37-9.3-22.19-17.24-29.39Z"/>
      <path d="M92.81,44.29c-.04.09-.07.19-.11.28-1.05,2.54-2.22,4.63-3.53,6.27-.72.94-1.45,1.61-2.19,2.05l3.04-.16c.08-.07.16-.11.23-.18,1.83-1.67,3.46-3.81,4.9-6.44.37-.71.72-1.44,1.05-2.18-.84.15-1.83.28-2.99.34l-.4.02Z"/>
      <path d="M351.49,10.94c.96.29,1.89.63,2.81,1.01,1.81-1.38,3.36-2.84,4.64-4.38.12-.17.45-.6.94-1.24-.98-.27-1.92-.6-2.85-.96-.98,1.07-1.94,2.1-2.85,3.04-1.12,1.15-2.01,1.99-2.7,2.53Z"/>
      <path class="cls-3" d="M81.01,51.57c.62-.03,1.22-.25,1.82-.62l-2.93.15c.27.32.64.49,1.11.46Z"/>
      <polygon class="cls-3" points="185.59 46.55 172.24 103.78 198.27 102.41 185.76 46.54 185.59 46.55"/>
      <path class="cls-3" d="M343.72,9.65c0,.46.26.67.78.65,0,.06.03.1.1.09.52-.03,1.21-.33,2.06-.89.2-.12.43-.29.69-.49-1.1-.34-2.24-.6-3.44-.78-.08.41-.14.79-.18,1.13v.29Z"/>
      <path class="cls-3" d="M351.21,36.12c-20.28,1.07-36.34,18.84-36.34,39.66s16.06,36.89,36.34,35.83c20.11-1.06,36.34-18.67,36.34-39.66s-16.22-36.89-36.34-35.83ZM351.21,79.79c-3.21.17-5.91-2.4-5.91-5.61s2.7-6.07,5.91-6.24,5.92,2.4,5.92,5.61-2.7,6.07-5.92,6.24Z"/>
      <path class="cls-1" d="M25.18,106.46c13.35-6.46,21.3-18.89,21.3-31.25,0-17.26-13.86-30.58-33.3-29.55l-13.18.69c.51,1.84.68,3.86.68,6.73v77.85c0,3.05-.17,4.92-.68,6.81l10.14-.53c-.51-1.67-.84-4.02-.84-6.73V54.67l5.75-.3c15.21-.8,22.65,12.01,22.65,21.48,0,11.34-9.47,21.99-19.94,23.22-.68,1.9-1.01,3.61-1.18,5.65-.84,22.72,16.39,32.82,26.7,32.27,1.69-.09,3.04-.16,4.39-1.08v-9.31c-.68.88-1.69,1.11-2.37,1.14-6.42.34-19.44-3.71-20.11-21.28Z"/>
      <path class="cls-1" d="M75.35,43.06l-16.37.86c.51,1.67.68,3.86.68,6.06v77.85c0,2.88-.17,5.09-.68,6.81l31.6-1.67c1.52-.08,3.38,0,4.39.11l1.86-9.24c-1.69.43-3.55.69-4.73.76l-23.83,1.26v-22.17l16.9-.89c1.69-.09,3.21,0,4.56.27v-9.65c-1.35.58-2.87,1-4.56,1.09l-16.9.89v-43.67l7.88-.42c-.68-1.32-1.02-2.99-1.02-5.02,0-1,.09-2.09.22-3.23Z"/>
      <path class="cls-1" d="M86.11,50.62c-.07.07-.15.11-.23.18l4.37-.23c1.35-.07,2.87.02,4.56.27l-1.69-9.05c-.32.07-.68.14-1.07.21-.33.75-.68,1.48-1.05,2.18-1.44,2.63-3.07,4.77-4.9,6.44Z"/>
      <path class="cls-1" d="M79.35,48.81c0,1.09.19,1.85.56,2.3l2.93-.15c.74-.44,1.47-1.11,2.19-2.05,1.31-1.64,2.48-3.73,3.53-6.27.04-.09.07-.19.11-.28l-8.31.44c-.14.58-.29,1.16-.42,1.72-.39,1.69-.59,3.12-.59,4.3Z"/>
      <path class="cls-1" d="M117.14,123.28V46.95c0-2.2,0-4.06.68-6.13l-10.14.53c.51,1.83.84,4.02.84,6.05v77.85c0,3.05-.17,4.92-.68,6.81l31.6-1.67c1.69-.09,3.38,0,4.56.27.51-3.24,1.01-6.82,1.69-10.92-1.35,1.26-3.38,2.21-7.1,2.41l-21.46,1.13Z"/>
      <path class="cls-1" d="M192.35,44.16c-.84-3-1.18-5.52-.84-7.23l-12,.63c.17,1.68-.17,4.92-.84,7.32-6.76,25.74-13.69,52.51-20.28,78.25-.68,2.4-1.52,4.65-2.54,6.4l10.48-.55c-.34-1.84-.17-4.05.68-7.31l2.7-9.96,31.1-1.64,2.7,9.67c.84,3,1.01,5.36.68,7.24l10.48-.55c-1.01-1.64-1.86-3.79-2.54-6.13-6.76-25.03-13.18-51.09-19.77-76.13ZM172.24,103.78l13.35-57.23h.17s12.51,55.86,12.51,55.86l-26.03,1.37Z"/>
      <path class="cls-1" d="M268.21,40.16l1.69-.09c9.8-.52,19.1,1.36,25.52,6.78l-2.2-13.09c-.34.02-.68.2-1.01.22-2.87.15-5.24-.57-8.28-1.26-4.39-1.12-9.63-1.52-15.89-1.19-25.18,1.5-45.46,23.72-45.46,49.11,0,23.52,17.24,42.25,39.72,44.11v2.71c6.08.02,10.14,4.54,10.14,9.45s-3.55,7.63-6.93,7.81c-1.52.08-2.87-.36-4.06-1.14v1.02c0,3.38,3.04,5.93,7.77,5.68,6.08-.32,11.66-5.35,11.66-13.31,0-3.38-3.21-9.31-9.63-12.35,5.41-.62,9.8-2.21,13.35-3.41,3.21-1.02,5.75-2,8.79-1.99l2.03-12.63c-7.61,7.17-17.41,9.21-27.04,9.72-20.28,1.07-36.17-15.02-36.17-36.17s17.24-38.14,36-39.98Z"/>
      <path class="cls-2" d="M343.9,8.23c1.2.18,2.34.44,3.44.78.68-.54,1.58-1.38,2.7-2.53.9-.93,1.86-1.96,2.85-3.04-.74-.29-1.47-.59-2.18-.91-1.52-.61-3.01-1.2-4.49-1.67-.48,1.28-.92,2.53-1.32,3.73-.47,1.43-.79,2.63-.99,3.65Z"/>
      <path class="cls-2" d="M350.15,10.01c.58.24,1.16.48,1.73.74,3.21,1.35,6.42,2.71,9.97,2.52,6.59-.35,10.48-5.29,10.48-9.52,0-1.35-.51-2.68-1.18-3.66-1.18,2.77-3.89,4.94-7.94,5.16-2.77.15-5.2-.22-7.47-.86-.49.64-.82,1.07-.94,1.24-1.28,1.54-2.83,3-4.64,4.38Z"/>
      <path class="cls-2" d="M339.46,4.77c.1-.46.18-.93.24-1.39.24-.97.58-2.1,1.01-3.38-6.75.36-10.46,5.29-10.46,9.69,0,1.18.51,2.68,1.01,3.67,1.01-3.26,4.71-5.15,8.25-5.34-.12-.59-.21-1.2-.21-1.87,0-.46.05-.92.15-1.38Z"/>
      <path class="cls-2" d="M351.21,27.49c-25.35,1.34-45.97,23.41-45.97,48.8s20.62,45.29,45.97,43.95c25.18-1.33,45.97-23.24,45.97-48.8s-20.79-45.28-45.97-43.95ZM351.21,111.6c-20.28,1.07-36.34-14.84-36.34-35.83s16.06-38.59,36.34-39.66c20.11-1.06,36.34,15.01,36.34,35.83s-16.22,38.6-36.34,39.66Z"/>
      <path class="cls-2" d="M351.21,67.94c-3.21.17-5.91,3.02-5.91,6.24s2.7,5.78,5.91,5.61,5.92-3.02,5.92-6.24-2.7-5.78-5.92-5.61Z"/>
      <path class="cls-2" d="M416.27,107.49v-22.17l16.9-.89c1.69-.09,3.21,0,4.56.27v-9.65c-1.35.58-2.87,1-4.56,1.09l-16.9.89v-43.67l21.97-1.16c1.35-.07,2.87.02,4.56.27l-1.69-9.05c-1.01.22-2.37.46-4.06.55l-30.08,1.59c.51,1.67.68,3.86.68,6.06v77.85c0,2.88-.17,5.09-.68,6.81l31.6-1.67c1.52-.08,3.38,0,4.39.11l1.86-9.24c-1.69.43-3.55.69-4.73.76l-23.83,1.26Z"/>
      <path class="cls-2" d="M480.83,58.9c-6.42-5.92-12-11.05-12-17.82s5.07-11.95,11.83-12.3c4.06-.21,6.93,1.5,8.11,3.97v-11.68c-.85.55-1.86.44-3.89.2-1.69-.25-3.89-.47-5.91-.36-11.66.61-18.93,11.15-18.93,21.31s7.27,16.88,14.54,23.1c7.61,6.54,14.7,13.27,14.7,23.26s-6.76,17.28-15.89,17.76c-7.94.42-12.51-4.93-12.51-10.51,0-5.25,4.06-8.85,7.77-9.04,1.52-.08,3.38.5,4.56,1.45v-.51c0-3.55-3.21-7.11-8.45-6.83-6.59.35-13.01,6.44-13.01,15.41,0,10.32,8.28,19.53,21.29,18.85,13.52-.71,25.01-11.81,25.01-26.88,0-13.37-9.3-22.19-17.24-29.39Z"/>
      <path class="cls-1" d="M88.67,42.36c-.04.09-.07.19-.11.28-1.05,2.54-2.22,4.63-3.53,6.27-.72.94-1.45,1.61-2.19,2.05l3.04-.16c.08-.07.16-.11.23-.18,1.83-1.67,3.46-3.81,4.9-6.44.37-.71.72-1.44,1.05-2.18-.84.15-1.83.28-2.99.34l-.4.02Z"/>
      <path class="cls-2" d="M347.35,9c.96.29,1.89.63,2.81,1.01,1.81-1.38,3.36-2.84,4.64-4.38.12-.17.45-.6.94-1.24-.98-.27-1.92-.6-2.85-.96-.98,1.07-1.94,2.1-2.85,3.04-1.12,1.15-2.01,1.99-2.7,2.53Z"/>
    </g>
  </g>
</svg>