<?xml version="1.0" encoding="UTF-8"?>
<svg id="Layer_2" data-name="Layer 2" xmlns="http://www.w3.org/2000/svg" viewBox="0 0 302.99 103.82">
  <defs>
    <style>
      .cls-1 {
        fill: none;
      }

      .cls-2 {
        fill: #cc203c;
      }

      .cls-3 {
        fill: #cc203c;
      }
    </style>
  </defs>
  <g id="Layer_1-2" data-name="Layer 1">
    <g>
      <path class="cls-3" d="M8.53,102.1c-.47.02-.83-.14-1.11-.46l-3.75.2s.03.09.05.12c.72,1.34,1.99,1.96,3.82,1.86,2.13-.11,4.07-.96,5.85-2.5l-3.04.16c-.6.36-1.21.58-1.82.62Z"/>
      <path class="cls-3" d="M6.86,99.34c0-1.18.2-2.61.59-4.3.13-.56.28-1.14.42-1.72l-5,.26c-.13,1.14-.22,2.23-.22,3.23,0,2.03.34,3.7,1.02,5.02l3.75-.2c-.37-.44-.56-1.2-.56-2.3Z"/>
      <path class="cls-2" d="M274.18,60.01c-.85.57-1.54.87-2.06.89-.07,0-.1-.03-.1-.09-.52.03-.78-.19-.78-.65v-.29c.04-.34.1-.72.18-1.13-1.36-.2-2.79-.29-4.36-.21,0,0-.02,0-.03,0,.21.97.56,1.86,1.11,2.62.88,1.23,2.01,1.81,3.38,1.73,2.16-.11,4.16-.87,6.03-2.28.04-.03.07-.06.11-.09-.92-.38-1.85-.72-2.81-1.01-.26.2-.49.37-.69.49Z"/>
      <path class="cls-2" d="M268.23,50.52c-.43,1.28-.77,2.41-1.01,3.38-.07.46-.15.92-.24,1.39-.1.46-.15.92-.15,1.38,0,.67.08,1.28.21,1.87,0,0,.02,0,.03,0,1.56-.08,3,.01,4.36.21.2-1.01.53-2.22.99-3.65.39-1.2.84-2.46,1.32-3.73-1.81-.57-3.62-.95-5.48-.85,0,0-.01,0-.02,0Z"/>
      <g>
        <path class="cls-3" d="M191.24,34.95c0-.52-.2-.77-.59-.75-.04,0-.08.03-.13.05-.16.4-.34.81-.49,1.21-.38,1-.7,1.92-.95,2.77.6-.77,1.16-1.53,1.67-2.26.33-.47.49-.81.49-1.01Z"/>
        <g>
          <path class="cls-1" d="M28.32,22.16c-1.7.09-3.66.96-5.88,2.62-2.22,1.65-4.28,3.55-6.17,5.67-2.29,2.48-4.33,5.12-6.12,7.93-1.8,2.81-3.15,5.35-4.07,7.62-.78,1.87-1.18,3.4-1.18,4.58,0,1.31.49,1.94,1.47,1.88,1.18-.06,2.81-1,4.9-2.81,4.12-3.55,7.92-7.42,11.42-11.59,3.49-4.17,6.55-8.69,9.16-13.53-.78-1.66-1.96-2.45-3.53-2.37Z"/>
          <path class="cls-1" d="M18.81,84.77c.78-3.05,1.34-6.02,1.67-8.92.06-.92.13-1.82.2-2.71.06-.89.1-1.72.1-2.51,0-1.7-.13-3.22-.39-4.54-.26-1.33-.69-2.34-1.27-3.02-2.03,4.69-3.97,9.37-5.83,14.05-1.86,4.68-3.35,8.88-4.46,12.6-.35,1.24-.66,2.43-.95,3.6l8.31-.44c1-2.47,1.88-5.17,2.63-8.11Z"/>
          <path class="cls-1" d="M83.97,40.22c1.5-.99,2.89-2,4.17-3.02,1.27-1.01,2.3-1.87,3.09-2.57,1.5-1.26,2.61-2.62,3.33-4.1.72-1.48,1.08-2.74,1.08-3.79,0-.72-.18-1.33-.54-1.84-.36-.5-.9-.74-1.62-.7-1.37.07-2.86.82-4.46,2.25-1.6,1.43-3.2,3.21-4.8,5.36-1.6,2.14-3.1,4.32-4.51,6.52-1.41,2.2-2.56,4.11-3.48,5.73.91-.11,2.06-.53,3.43-1.26,1.37-.73,2.81-1.59,4.31-2.58Z"/>
          <path class="cls-3" d="M39.98,21.2c1.04-1.59,2.22-3.24,3.53-4.95-1.24-.13-2.35-.17-3.33-.12-1.18.06-2.27.48-3.28,1.25-1.01.77-2.24,2.41-3.67,4.9-1.11-.86-2.34-1.45-3.67-1.77-1.34-.32-2.63-.45-3.87-.38-2.55.13-5.18,1.11-7.89,2.92-2.71,1.81-5.29,4.06-7.74,6.74-2.45,2.68-4.49,5.41-6.12,8.17-.98,1.69-1.88,3.6-2.69,5.74-.82,2.14-1.22,4.12-1.22,5.95,0,1.51.42,2.76,1.27,3.76.85,1,2.32,1.48,4.41,1.44,1.76-.09,3.53-.76,5.29-2,1.76-1.24,3.53-2.82,5.29-4.74,1.76-1.92,3.49-3.99,5.19-6.21,1.7-2.21,3.33-4.31,4.9-6.29-.92,2.01-2.09,4.51-3.53,7.5-1.44,2.99-2.94,6.08-4.51,9.27-1.57,3.19-2.94,6.09-4.12,8.71-2.22,4.76-4.28,9.47-6.17,14.11-1.9,4.65-3.27,8.86-4.12,12.63-.39,1.59-.7,3.16-.93,4.71-.05.37-.08.7-.12,1.06l5-.26c.29-1.17.6-2.36.95-3.6,1.11-3.72,2.6-7.92,4.46-12.6,1.86-4.68,3.8-9.36,5.83-14.05.59.69,1.01,1.7,1.27,3.02.26,1.33.39,2.84.39,4.54,0,.78-.03,1.62-.1,2.51-.07.89-.13,1.79-.2,2.71-.33,2.9-.88,5.87-1.67,8.92-.76,2.94-1.64,5.64-2.63,8.11l.4-.02c1.16-.06,2.15-.19,2.99-.34.9-2.03,1.66-4.2,2.28-6.53.52-1.93.91-3.84,1.18-5.75.26-1.91.39-3.78.39-5.61,0-1.18-.05-2.32-.15-3.43-.1-1.11-.28-2.18-.54-3.21-.59-2.59-1.6-4.59-3.04-6.02h-.2c1.57-3.6,3.12-7.1,4.65-10.49,1.53-3.38,2.92-6.42,4.17-9.1.98-2.01,1.93-3.99,2.84-5.94.91-1.94,1.5-3.15,1.76-3.63,1.5-2.5,2.79-4.66,3.87-6.48s2.14-3.53,3.18-5.12ZM22.69,38.06c-3.5,4.18-7.3,8.04-11.42,11.59-2.09,1.81-3.72,2.75-4.9,2.81-.98.05-1.47-.58-1.47-1.88,0-1.18.39-2.7,1.18-4.58.91-2.27,2.27-4.81,4.07-7.62,1.8-2.81,3.84-5.45,6.12-7.93,1.89-2.13,3.95-4.02,6.17-5.67,2.22-1.65,4.18-2.53,5.88-2.62,1.57-.08,2.74.71,3.53,2.37-2.61,4.85-5.67,9.36-9.16,13.53Z"/>
          <path class="cls-3" d="M70.67,41.09s-.02.02-.04.03c-.52.75-1.08,1.46-1.67,2.15-.59.69-1.21,1.41-1.86,2.16-1.31,1.57-2.68,3.07-4.12,4.49-1.44,1.42-2.88,2.52-4.31,3.32-.39.22-.72.33-.98.35-.52.03-.85-.38-.98-1.22-.07-.19-.12-.42-.15-.68-.03-.26-.05-.52-.05-.78,0-1.11.13-2.23.39-3.36.2-1.19.64-2.81,1.32-4.88.69-2.06,1.49-4.2,2.4-6.41.91-2.21,1.86-4.12,2.84-5.74.52-.88.93-1.7,1.22-2.47.29-.77.44-1.51.44-2.23,0-.59-.29-.87-.88-.84-.85.04-1.78.31-2.79.78-1.01.48-1.68,1.05-2.01,1.73l-2.25,4.24c-.65,1.02-1.5,2.3-2.55,3.86-1.05,1.56-2.14,3.17-3.28,4.83-1.14,1.66-2.2,3.19-3.18,4.58-.98,1.39-1.73,2.43-2.25,3.11-2.16,2.67-3.92,4.03-5.29,4.11-1.05.06-1.57-.7-1.57-2.27,0-.65.11-1.48.34-2.47.23-.99.6-2.12,1.13-3.4.85-2.14,1.91-4.65,3.18-7.53,1.27-2.88,2.63-5.78,4.07-8.7,1.44-2.92,2.78-5.54,4.02-7.87,1.24-2.32,2.22-3.93,2.94-4.82.91-1.16,1.58-2.18,2.01-3.05.42-.87.64-1.54.64-2s-.2-.68-.59-.66c-.78.04-1.96.89-3.53,2.54-2.35,2.61-4.65,5.68-6.91,9.2-2.25,3.52-4.33,7.18-6.22,10.98-1.9,3.8-3.43,7.39-4.61,10.79-.26.8-.47,1.71-.64,2.73-.16,1.02-.24,2.06-.24,3.1,0,1.64.34,3.06,1.03,4.26.69,1.21,1.94,1.76,3.77,1.67,1.11-.06,2.34-.61,3.68-1.67,1.34-1.05,2.69-2.37,4.07-3.94,1.37-1.58,2.68-3.25,3.92-5.02,1.24-1.77,2.32-3.39,3.23-4.88-.98,2.54-1.81,5.02-2.5,7.44-.69,2.42-1.03,4.49-1.03,6.19,0,1.44.29,2.57.88,3.39.59.82,1.53,1.19,2.84,1.13,1.11-.06,2.38-.47,3.82-1.23,1.44-.76,2.81-1.8,4.12-3.11.72-.76,1.47-1.57,2.25-2.43.78-.86,1.53-1.73,2.25-2.62l1.54-1.94c.24-.66.48-1.32.77-2.01.4-.96.85-1.95,1.35-2.95Z"/>
          <path class="cls-3" d="M95.29,55.72c1.47-1.84,2.87-3.62,4.21-5.32,1.34-1.7,2.46-3.11,3.38-4.2.72-.89,1.49-1.84,2.3-2.87.82-1.02,1.55-2.01,2.2-2.96.33-.47.49-.81.49-1.01,0-.52-.2-.77-.59-.75-.13,0-.29.11-.49.32l-3.92,4.72-7.25,8.82c-.59.75-1.62,1.9-3.09,3.45s-3.17,3.18-5.1,4.88c-1.93,1.7-3.87,3.18-5.83,4.43-1.96,1.25-3.72,1.91-5.29,2-1.76.09-2.99-.55-3.67-1.92-.69-1.37-1.03-3.04-1.03-5,0-.33.02-.64.05-.94.03-.3.05-.58.05-.84.13-1.32.37-2.82.73-4.5.36-1.69.8-3.31,1.32-4.88.52-1.56,1.04-2.72,1.57-3.47,1.5-.14,3.49-.67,5.98-1.59,2.48-.92,5.59-2.65,9.31-5.2,2.81-1.98,4.8-4,5.98-6.06,1.18-2.06,1.76-3.9,1.76-5.54,0-2.22-.78-3.72-2.35-4.49-1.31-.58-2.81-.83-4.51-.74-2.42.13-4.93.98-7.55,2.56-2.61,1.58-5.03,3.86-7.25,6.86-2.5,3.38-4.52,6.58-6.04,9.61.18-.18.33-.28.45-.29.39-.02.59.23.59.75,0,.39-.13.73-.39,1l-2.77,3.49c-1.14,3.1-1.9,5.99-2.22,8.65-.06.72-.11,1.41-.15,2.07-.03.65-.05,1.31-.05,1.97,0,3.79.69,6.69,2.06,8.67s3.33,2.92,5.88,2.78c3.14-.17,6.12-1.17,8.97-3.02,2.84-1.85,5.5-4.05,7.99-6.6,1.37-1.38,2.79-2.99,4.26-4.84ZM79.71,38.33c1.4-2.2,2.91-4.37,4.51-6.52,1.6-2.15,3.2-3.93,4.8-5.36,1.6-1.43,3.09-2.17,4.46-2.25.72-.04,1.26.2,1.62.7.36.51.54,1.12.54,1.84,0,1.05-.36,2.31-1.08,3.79-.72,1.48-1.83,2.84-3.33,4.1-.78.7-1.81,1.55-3.09,2.57-1.27,1.02-2.66,2.02-4.17,3.02-1.5,1-2.94,1.86-4.31,2.58-1.37.73-2.52,1.15-3.43,1.26.91-1.62,2.07-3.53,3.48-5.73Z"/>
          <path class="cls-3" d="M71.72,41.55c0-.52-.2-.78-.59-.75-.12,0-.28.11-.45.29-.5,1-.96,1.98-1.35,2.95-.28.68-.52,1.34-.77,2.01l2.77-3.49c.26-.27.39-.61.39-1Z"/>
          <path class="cls-3" d="M147.69,43.33c-.16-.32-.11-.62.15-.89.33-.39.64-.79.97-1.18-1.62,1.77-3.4,3.52-5.34,5.24-1.96,1.74-4.03,3.19-6.22,4.35-2.19,1.16-4.43,1.8-6.71,1.92-1.37.07-2.34-.37-2.89-1.32-.56-.95-.83-2.15-.83-3.59,0-.85.06-1.74.2-2.66.13-.92.33-1.85.59-2.78.39-1.72.96-3.63,1.71-5.73.75-2.1,1.55-4.11,2.4-6.02.85-1.91,1.63-3.54,2.35-4.88.91-1.68,2.06-3.53,3.43-5.53,1.37-2,2.87-3.93,4.51-5.78,1.63-1.85,3.25-3.38,4.85-4.57,1.6-1.2,3.09-1.83,4.46-1.9.39-.02.69,0,.88.05.06.91-.05,1.98-.34,3.21-.29,1.23-.64,2.42-1.03,3.59-.39,1.17-.72,2.05-.98,2.65-.52,1.4-.78,2.33-.78,2.79s.16.68.49.66c.98-.05,2.55-1.7,4.7-4.96,1.04-1.56,1.57-3.29,1.57-5.19,0-1.77-.47-3.29-1.42-4.59-.95-1.29-2.37-1.89-4.26-1.79-2.16.11-4.36.93-6.61,2.46-2.25,1.53-4.43,3.49-6.52,5.89-2.09,2.4-4.05,5.04-5.88,7.92-1.83,2.88-3.4,5.69-4.7,8.44-.72,1.48-1.45,3.28-2.2,5.42-.75,2.13-1.37,4.34-1.86,6.62s-.73,4.37-.73,6.27c0,2.62.59,4.74,1.76,6.38,1.18,1.64,3.17,2.38,5.98,2.24,2.35-.12,4.77-.86,7.25-2.2,2.48-1.34,4.8-2.97,6.96-4.88,2.13-1.89,3.87-3.68,5.24-5.37-.13.09-.25.15-.38.16-.33.02-.57-.13-.73-.45Z"/>
          <path class="cls-3" d="M152.58,38.96l.59-.73c.13-.14.23-.29.3-.45-.11.15-.23.3-.34.45-.19.25-.37.48-.55.72Z"/>
          <path class="cls-3" d="M148.8,43.63c.07-.05.14-.09.21-.17.98-1.15,2.18-2.66,3.57-4.5l-3.72,4.6s-.04.04-.05.06Z"/>
          <path class="cls-3" d="M190.53,34.25c-.11.05-.22.12-.36.27l-1.96,2.26c-.72.82-1.37,1.64-1.96,2.46-1.44,1.71-3.01,3.61-4.7,5.69-1.7,2.09-3.32,4.04-4.85,5.85-1.54,1.81-2.79,3.24-3.77,4.27-1.83,1.93-3.59,3.61-5.29,5.04-1.7,1.43-3.56,2.79-5.59,4.07-1.5.93-2.78,1.42-3.82,1.48-.72.04-1.18-.27-1.37-.91-.26-1.16.02-2.78.83-4.85.82-2.07,1.88-4.27,3.18-6.6,1.31-2.33,2.55-4.47,3.72-6.43,1.18-1.83,2.58-3.98,4.21-6.45,1.63-2.47,3.12-4.89,4.46-7.25,1.34-2.36,2.17-4.33,2.5-5.92.06-.33.11-.66.15-.99.03-.33.05-.62.05-.89,0-1.57-.47-2.61-1.42-3.11-.95-.51-2.17-.92-3.68-1.23-1.5-.31-3.04-1.02-4.61-2.11.06-2.42-.23-4.08-.88-4.96-.65-.75-1.31-1.11-1.96-1.07h-.1c-.92.25-1.37.93-1.37,2.04,0,.78.23,1.61.69,2.47.46.86.95,1.44,1.47,1.74l-1.18,2.12-1.18,2.02c-1.96,3.44-4.13,6.74-6.52,9.91-2.08,2.76-4.23,5.45-6.43,8.09.02-.02.03-.03.05-.05,1.37-1.45,2.58-2.92,3.63-4.41.2-.21.36-.31.49-.32.39-.02.59.26.59.85,0,.16-.03.31-.1.46,1.53-2.05,3.11-4.17,4.76-6.39,1.76-2.38,3.33-4.56,4.7-6.53l1.37-2.23,1.37-2.33c.26.25.65.52,1.18.82l1.37.81c1.24.78,1.86,1.96,1.86,3.53,0,1.44-.46,2.9-1.37,4.39l-4.8,7.91c-.85,1.35-1.67,2.67-2.45,3.96-.78,1.28-1.57,2.54-2.35,3.75-.98,1.56-2.11,3.66-3.38,6.31s-2.17,5.1-2.69,7.35c-.39,1.46-.59,2.71-.59,3.76,0,1.63.44,2.94,1.32,3.9.88.97,2.34,1.4,4.36,1.29,2.16-.11,4.05-.7,5.68-1.77,1.63-1.07,3.2-2.3,4.7-3.68,1.89-1.8,3.87-3.93,5.93-6.4,2.06-2.46,4.12-4.98,6.17-7.54,2.06-2.56,3.94-4.87,5.64-6.92.72-.89,1.48-1.84,2.3-2.87.19-.24.36-.47.54-.7.25-.85.57-1.77.95-2.77.15-.4.33-.81.49-1.21Z"/>
          <path class="cls-3" d="M152.97,36.48c-.13,0-.29.11-.49.32-1.05,1.49-2.25,2.96-3.63,4.41-.02.02-.03.03-.05.05-.33.39-.64.79-.97,1.18-.26.28-.31.57-.15.89.16.32.41.47.73.45.13,0,.25-.07.38-.16.02-.02.04-.04.05-.06l3.72-4.6c.18-.24.36-.47.55-.72.11-.15.23-.3.34-.45.06-.15.1-.3.1-.46,0-.59-.2-.87-.59-.85Z"/>
          <path class="cls-3" d="M209.79,33.9c-.23.3-.46.61-.69.94-.26.37-.56.73-.88,1.08l-1.96,2.16c-.65.76-1.62,1.8-2.89,3.15-1.27,1.34-2.58,2.56-3.92,3.64-1.34,1.09-2.53,1.65-3.58,1.71-.98.05-1.65-.21-2.01-.78-.36-.57-.54-1.35-.54-2.33,0-1.83.52-4.05,1.57-6.66,1.04-2.61,2.35-5.36,3.92-8.25,1.57-2.89,3.19-5.73,4.85-8.5,1.67-2.77,3.12-5.2,4.36-7.3.26-.34.39-.71.39-1.1,0-.59-.52-.86-1.57-.8-.92.05-1.96.35-3.14.9-1.18.55-1.96,1.27-2.35,2.14-.2.4-.69,1.25-1.47,2.53-.78,1.28-1.6,2.67-2.45,4.15-.85,1.48-1.6,2.77-2.25,3.85-.78,1.42-1.65,3.11-2.6,5.09-.75,1.57-1.43,3.15-2.06,4.71.04-.02.09-.05.13-.05.39-.02.59.23.59.75,0,.2-.16.53-.49,1.01-.5.73-1.07,1.49-1.67,2.26-.25.83-.44,1.58-.57,2.27-.2,1.19-.29,2.24-.29,3.16,0,4.25,1.7,6.29,5.1,6.11,2.61-.14,5-1.18,7.15-3.12,2.16-1.94,4.05-3.94,5.68-5.99.78-.89,1.53-1.78,2.25-2.67.39-.49.79-1.01,1.19-1.52,0-.1-.02-.2-.02-.31,0-.71.08-1.46.21-2.24Z"/>
          <path class="cls-3" d="M209.2,6.04c.85-.04,1.58-.36,2.2-.95.62-.59,1.03-1.31,1.22-2.17.13-.86-.05-1.57-.54-2.13s-1.16-.82-2.01-.78c-.85.04-1.63.43-2.35,1.15-.72.73-1.08,1.58-1.08,2.56,0,1.64.85,2.41,2.55,2.32Z"/>
          <path class="cls-3" d="M239.02,41.41c.75-.86,1.48-1.73,2.2-2.62.78-.89,1.53-1.78,2.25-2.67.06-.08.12-.16.18-.23.07-.19.16-.39.23-.57.47-1.23.91-2.43,1.36-3.64-.09.05-.19.13-.31.25-.52.75-1.08,1.46-1.67,2.15-.59.69-1.24,1.41-1.96,2.16-1.31,1.58-2.68,3.07-4.12,4.49-1.44,1.42-2.88,2.52-4.31,3.32-.92.57-1.6.87-2.06.89-.65.03-.98-.37-.98-1.22,0-.98.46-2.51,1.37-4.59.46-1.07,1.16-2.58,2.11-4.53.95-1.95,1.96-3.99,3.04-6.15,1.08-2.15,2.06-4.08,2.94-5.8s1.45-2.87,1.71-3.48c.26-.6.13-1.04-.39-1.3-.52-.27-1.18-.38-1.96-.34-.65.03-1.27.17-1.86.39-.59.23-1.01.54-1.27.95-.46.68-1.05,1.59-1.76,2.74-.85,1.03-2.03,2.46-3.53,4.31-1.5,1.85-3.1,3.71-4.8,5.6-1.7,1.89-3.27,3.43-4.7,4.61-2.16,1.82-3.79,2.75-4.9,2.81-.98.05-1.47-.54-1.47-1.79,0-.98.42-2.51,1.27-4.58.91-2.27,2.25-4.83,4.02-7.67,1.76-2.84,3.79-5.47,6.08-7.88,2.02-2.2,4.08-4.11,6.17-5.72,2.09-1.61,3.98-2.47,5.68-2.56,1.89-.1,3.27.94,4.12,3.12.26.77.69,1.14,1.27,1.11.78-.04,1.18-.52,1.18-1.44s-.49-1.74-1.47-2.47c-1.24-.92-2.48-1.55-3.72-1.91-1.24-.36-2.52-.51-3.82-.44-2.48.13-5.1,1.1-7.84,2.92-2.74,1.81-5.33,4.06-7.74,6.74-2.42,2.68-4.48,5.41-6.17,8.18-.98,1.69-1.86,3.6-2.65,5.73-.47,1.27-.78,2.47-.97,3.61.03-.04.06-.09.1-.13.2-.21.36-.31.49-.32.39-.02.59.26.59.85,0,.33-.13.63-.39.9-.32.43-.65.83-.97,1.24.06,1.37.46,2.52,1.25,3.45.85,1,2.29,1.48,4.31,1.44,2.16-.11,4.18-.91,6.08-2.38,1.89-1.47,3.67-3.28,5.34-5.43,1.67-2.15,3.19-4.3,4.56-6.47-.2.67-.56,1.58-1.08,2.76-.52,1.17-1.08,2.41-1.67,3.72-.59,1.31-1.11,2.5-1.57,3.57-.46,1.07-.75,1.84-.88,2.3-.39,1.46-.59,2.78-.59,3.96,0,3.4,1.31,5.03,3.92,4.9.98-.05,2.11-.44,3.38-1.16,1.27-.72,2.63-1.81,4.07-3.26.78-.76,1.55-1.57,2.3-2.43Z"/>
          <path class="cls-3" d="M210.96,34.3c0-.59-.2-.87-.59-.85-.13,0-.29.11-.49.32-.03.04-.06.09-.1.13-.13.77-.21,1.52-.21,2.24,0,.11.02.2.02.31.32-.42.65-.81.97-1.24.26-.27.39-.58.39-.9Z"/>
          <path class="cls-2" d="M246.03,32.45c0,.33-.13.63-.39.9-.66.87-1.32,1.71-1.97,2.53-1.08,2.73-2.47,5.75-4.18,9.08-.13.86.02,1.51.44,1.94.43.43.9.64,1.42.61,1.11-.06,1.89-.59,2.35-1.6.59-1.21,1.44-2.73,2.55-4.55,1.11-1.82,2.38-3.82,3.82-5.99,1.37-2.1,2.84-4.3,4.41-6.61,1.57-2.24,3.17-4.44,4.8-6.58,1.63-2.15,3.27-4.15,4.9-6,1.57-1.78,3-3.3,4.31-4.54,1.89-1.8,3.23-2.72,4.02-2.76.33-.02.49.2.49.66,0,.39-.12.95-.34,1.69-.23.73-.61,1.67-1.13,2.81-.98,2.15-2.24,4.47-3.77,6.97-1.54,2.5-3.07,4.97-4.61,7.41-1.54,2.44-2.83,4.68-3.87,6.73-1.05,2.05-1.57,3.7-1.57,4.94,0,.98.26,1.57.78,1.77.52.2.98.29,1.37.27,1.04-.06,1.88-.39,2.5-1.02.62-.62,1.09-1.23,1.42-1.84,1.63-2.51,3.46-5.09,5.49-7.75,2.02-2.66,4.07-5.15,6.12-7.49,2.06-2.33,3.9-4.26,5.54-5.79,2.29-2.02,3.43-2.47,3.43-1.36,0,.85-.59,2.35-1.76,4.51-.59,1.08-1.27,2.34-2.06,3.79-.78,1.45-1.54,2.8-2.25,4.04-.72,1.25-1.24,2.11-1.57,2.59-.85,1.42-1.75,3.1-2.7,5.05-.95,1.95-1.9,3.99-2.84,6.14-.95,2.14-1.76,4.17-2.45,6.07-.18.51-.35.99-.51,1.46,0,0,.01,0,.02,0,1.86-.1,3.67.28,5.48.85.31-.84.63-1.69.99-2.57.88-2.21,1.75-4.21,2.6-6.02.72-1.61,1.58-3.48,2.6-5.63,1.01-2.15,1.99-4.16,2.94-6.04.95-1.88,1.65-3.26,2.11-4.13,1.31-2.36,2.35-4.41,3.14-6.15.78-1.74,1.18-3.01,1.18-3.79,0-.92-.23-1.71-.69-2.37-.46-.66-1.37-.96-2.74-.89-1.11.06-2.39.58-3.82,1.58-1.44.99-2.88,2.2-4.31,3.61-1.44,1.42-2.71,2.81-3.82,4.18-1.31,1.57-2.66,3.3-4.07,5.17-1.41,1.87-2.7,3.67-3.87,5.41-1.18,1.73-2.09,3.14-2.74,4.22-.26.41-.46.58-.59.52-.13-.06-.13-.25,0-.59.2-.4.72-1.31,1.57-2.73.85-1.42,1.75-2.89,2.69-4.41.95-1.52,1.65-2.69,2.11-3.5.59-1.01,1.44-2.33,2.55-3.96,1.11-1.63,2.25-3.32,3.43-5.09,1.18-1.76,2.17-3.39,2.99-4.87.82-1.48,1.22-2.58,1.22-3.3,0-1.11-.26-2.05-.78-2.8-.52-.76-1.5-1.23-2.94-1.42-1.31-.13-2.79.38-4.46,1.51-1.67,1.14-3.38,2.63-5.14,4.49-1.83,1.86-3.66,3.96-5.49,6.28-1.83,2.39-3.51,4.68-5.05,6.89-1.54,2.21-2.89,4.19-4.07,5.96l-2.55,3.86c.85-1.81,1.86-3.91,3.04-6.29,1.18-2.38,2.35-4.69,3.53-6.91,1.18-2.22,2.16-3.97,2.94-5.26.65-1.08.98-1.88.98-2.41,0-.65-.52-.95-1.57-.9-.98.05-2.17.56-3.58,1.51-1.41.96-2.37,1.94-2.89,2.95-1.7,3.43-3.05,6.54-4.07,9.34-.58,1.6-1.21,3.24-1.82,4.87.06-.04.13-.07.18-.07.39-.02.59.26.59.85Z"/>
          <path class="cls-2" d="M284.27,53.59c1.11-1.43,2.42-3.12,3.92-5.06,1.5-1.94,3-3.87,4.51-5.78,1.5-1.91,2.74-3.51,3.72-4.81.98-1.29,1.5-1.98,1.57-2.05.72-.89,1.49-1.84,2.3-2.87.82-1.02,1.58-2.01,2.3-2.97.26-.34.39-.67.39-1,0-.52-.2-.77-.59-.75-.13,0-.29.11-.49.32l-3.92,4.72c-.52.55-1.41,1.61-2.65,3.18l-4.61,5.64c-.65.82-1.75,2.1-3.28,3.85-1.54,1.75-3.19,3.62-4.95,5.61-.72.82-1.42,1.58-2.1,2.33.93.36,1.87.68,2.85.96.28-.37.61-.79,1.02-1.32Z"/>
          <path class="cls-2" d="M243.66,35.89c.66-.82,1.31-1.65,1.97-2.53.26-.27.39-.58.39-.9,0-.59-.2-.87-.59-.85-.05,0-.12.03-.18.07-.46,1.22-.89,2.41-1.36,3.64-.07.19-.16.38-.23.57Z"/>
        </g>
      </g>
    </g>
  </g>
</svg>