<svg width="290" height="122" viewBox="0 0 290 122" fill="none" xmlns="http://www.w3.org/2000/svg">
<g clip-path="url(#clip0_1_3)">
<path d="M0 0.539993V81.51H40.16V122L80.32 81.51V0.539993H0Z" fill="#EC1A3B"/>
<path d="M93.58 39.21H86.99V0.539993H96.23C99.91 0.539993 102.69 1.41999 104.57 3.16999C106.45 4.91999 107.39 7.84999 107.39 11.95C107.39 13.52 107.26 14.86 106.99 15.97C106.72 17.08 106.37 18.01 105.93 18.78C105.49 19.55 104.99 20.16 104.44 20.63C103.89 21.09 103.33 21.45 102.77 21.7L108.35 39.22H101.66L96.98 23.21C96.56 23.28 96.03 23.33 95.41 23.34C94.79 23.36 94.18 23.37 93.58 23.37V39.22V39.21ZM93.58 17.89H95.92C96.81 17.89 97.56 17.8 98.18 17.62C98.8 17.44 99.3 17.12 99.69 16.66C100.08 16.2 100.36 15.58 100.54 14.81C100.72 14.04 100.81 13.09 100.81 11.94C100.81 9.65999 100.44 8.08999 99.69 7.24999C98.95 6.40999 97.69 5.98999 95.92 5.98999H93.58V17.88V17.89Z" fill="black"/>
<path d="M111.95 39.21V0.539993H129.59V6.32999H118.54V16.29H127.04V22.07H118.54V33.43H130.34V39.21H111.96H111.95Z" fill="black"/>
<path d="M147.07 13.44V10.44C147.07 8.80001 146.75 7.61001 146.11 6.88001C145.47 6.15001 144.73 5.78001 143.88 5.78001C142.53 5.78001 141.61 6.13001 141.12 6.82001C140.62 7.52001 140.38 8.60001 140.38 10.06V29.66C140.38 31.12 140.63 32.2 141.12 32.9C141.62 33.6 142.54 33.94 143.88 33.94C145.08 33.94 145.92 33.6 146.38 32.92C146.84 32.24 147.07 31.28 147.07 30.03V25.37H153.66V29.82C153.66 31.18 153.46 32.46 153.05 33.68C152.64 34.89 152.04 35.95 151.24 36.84C150.44 37.73 149.42 38.44 148.19 38.96C146.95 39.48 145.51 39.74 143.89 39.74C142.15 39.74 140.66 39.48 139.4 38.96C138.14 38.44 137.1 37.74 136.26 36.84C135.43 35.95 134.81 34.89 134.4 33.68C133.99 32.47 133.79 31.18 133.79 29.82V9.91001C133.79 8.55001 133.99 7.27001 134.4 6.05001C134.81 4.84001 135.43 3.78001 136.26 2.89001C137.09 2.00001 138.14 1.29001 139.4 0.770005C140.66 0.250005 142.15 -0.00999451 143.89 -0.00999451C145.52 -0.00999451 146.95 0.280006 148.19 0.850006C149.43 1.42001 150.45 2.19001 151.24 3.15001C152.04 4.11001 152.64 5.24001 153.05 6.52001C153.46 7.81001 153.66 9.16001 153.66 10.59V13.43H147.07V13.44Z" fill="black"/>
<path d="M162.45 39.21H156.07L163.14 0.539993H171.32L178.39 39.21H172.01L170.84 30.64H163.61L162.44 39.21H162.45ZM164.57 24.85H169.88L167.28 8.24999H167.17L164.57 24.85Z" fill="black"/>
<path d="M181.22 39.21V0.539993H187.81V33.43H198.17V39.21H181.22Z" fill="black"/>
<path d="M201.13 39.21V0.539993H207.72V33.43H218.08V39.21H201.13Z" fill="black"/>
<path d="M87 42.84H96.78C100.22 42.84 102.81 43.79 104.56 45.68C106.31 47.57 107.19 50.52 107.19 54.52V69.84C107.19 73.84 106.31 76.78 104.56 78.68C102.81 80.57 100.21 81.52 96.78 81.52H87V42.85V42.84ZM93.58 76.05H95.86C97.63 76.05 98.86 75.66 99.55 74.87C100.24 74.08 100.59 72.67 100.59 70.64V53.71C100.59 51.67 100.24 50.26 99.55 49.48C98.86 48.69 97.63 48.3 95.86 48.3H93.58V76.04V76.05Z" fill="black"/>
<path d="M111.38 81.51V42.84H129.02V48.63H117.97V58.59H126.47V64.37H117.97V75.73H129.76V81.51H111.38Z" fill="black"/>
<path d="M171.04 42.84V81.51H165.3V51.3H165.19L159.24 81.51H156.05L150.1 51.3H149.99V81.51H144.25V42.84H152.91L157.59 65.44H157.7L162.38 42.84H171.04Z" fill="black"/>
<path d="M180.3 81.51H173.92L180.99 42.84H189.17L196.24 81.51H189.86L188.69 72.94H181.46L180.29 81.51H180.3ZM182.43 67.16H187.74L185.14 50.56H185.03L182.43 67.16Z" fill="black"/>
<path d="M205.81 81.51H199.22V42.84H208.46C212.14 42.84 214.92 43.72 216.8 45.47C218.68 47.22 219.61 50.15 219.61 54.25C219.61 55.82 219.48 57.16 219.21 58.27C218.94 59.38 218.59 60.31 218.15 61.08C217.71 61.85 217.21 62.46 216.66 62.93C216.11 63.39 215.55 63.75 214.99 64L220.57 81.52H213.88L209.2 65.51C208.78 65.58 208.25 65.63 207.63 65.64C207.01 65.66 206.4 65.67 205.8 65.67V81.52L205.81 81.51ZM205.81 60.19H208.15C209.04 60.19 209.79 60.1 210.41 59.92C211.03 59.74 211.53 59.42 211.92 58.96C212.31 58.5 212.59 57.88 212.77 57.11C212.95 56.34 213.04 55.39 213.04 54.24C213.04 51.96 212.67 50.39 211.92 49.55C211.17 48.71 209.92 48.29 208.15 48.29H205.81V60.18V60.19Z" fill="black"/>
<path d="M236.96 55.75V52.75C236.96 51.11 236.64 49.92 236 49.19C235.36 48.46 234.62 48.09 233.77 48.09C232.42 48.09 231.5 48.44 231.01 49.13C230.51 49.83 230.27 50.91 230.27 52.37V71.97C230.27 73.43 230.52 74.51 231.01 75.21C231.5 75.91 232.43 76.25 233.77 76.25C234.97 76.25 235.81 75.91 236.27 75.23C236.73 74.55 236.96 73.59 236.96 72.34V67.68H243.55V72.13C243.55 73.49 243.35 74.77 242.94 75.99C242.53 77.2 241.93 78.26 241.13 79.15C240.33 80.04 239.31 80.75 238.08 81.27C236.84 81.79 235.4 82.05 233.78 82.05C232.04 82.05 230.55 81.79 229.29 81.27C228.03 80.75 226.99 80.05 226.15 79.15C225.32 78.26 224.7 77.2 224.29 75.99C223.88 74.78 223.68 73.49 223.68 72.13V52.2C223.68 50.84 223.88 49.56 224.29 48.34C224.7 47.13 225.32 46.07 226.15 45.18C226.98 44.29 228.03 43.58 229.29 43.06C230.55 42.54 232.04 42.28 233.78 42.28C235.41 42.28 236.84 42.57 238.08 43.14C239.32 43.71 240.34 44.48 241.13 45.44C241.93 46.4 242.53 47.53 242.94 48.81C243.35 50.1 243.55 51.45 243.55 52.88V55.72H236.96V55.75Z" fill="black"/>
<path d="M252.34 81.51H245.96L253.03 42.84H261.21L268.28 81.51H261.9L260.73 72.94H253.5L252.33 81.51H252.34ZM254.47 67.16H259.78L257.18 50.56H257.07L254.47 67.16Z" fill="black"/>
<path d="M283.41 52.37C283.34 51.55 283.19 50.86 282.96 50.31C282.73 49.76 282.45 49.32 282.11 49C281.77 48.68 281.41 48.45 281.02 48.3C280.63 48.16 280.26 48.09 279.9 48.09C278.84 48.09 278.02 48.42 277.46 49.08C276.89 49.74 276.61 50.68 276.61 51.89C276.61 53 276.94 54.01 277.59 54.94C278.25 55.87 279.07 56.8 280.06 57.73C281.05 58.66 282.13 59.6 283.3 60.54C284.47 61.49 285.55 62.53 286.54 63.67C287.53 64.81 288.35 66.07 289.01 67.45C289.67 68.83 289.99 70.39 289.99 72.14C289.99 73.75 289.73 75.17 289.22 76.4C288.71 77.63 288 78.67 287.09 79.51C286.19 80.35 285.09 80.98 283.8 81.41C282.51 81.84 281.1 82.05 279.58 82.05C278.06 82.05 276.69 81.76 275.49 81.19C274.28 80.62 273.27 79.84 272.44 78.86C271.61 77.88 270.96 76.74 270.5 75.46C270.04 74.17 269.77 72.8 269.7 71.34L275.97 70.43C276.11 72.39 276.54 73.86 277.25 74.82C277.96 75.78 278.84 76.27 279.91 76.27C281.04 76.27 281.96 75.97 282.67 75.36C283.38 74.75 283.73 73.88 283.73 72.74C283.73 71.45 283.4 70.31 282.75 69.31C282.09 68.31 281.27 67.35 280.28 66.42C279.29 65.49 278.21 64.56 277.04 63.64C275.87 62.71 274.79 61.69 273.8 60.59C272.81 59.48 271.98 58.23 271.33 56.84C270.67 55.45 270.35 53.82 270.35 51.97C270.35 48.86 271.23 46.48 273.01 44.82C274.78 43.16 277.29 42.33 280.55 42.33C281.9 42.33 283.1 42.56 284.16 43.03C285.22 43.49 286.13 44.15 286.9 44.98C287.66 45.82 288.28 46.81 288.76 47.95C289.24 49.09 289.55 50.34 289.69 51.7L283.42 52.4L283.41 52.37Z" fill="black"/>
<path d="M9.38 63.98H13.82C15.9 63.98 17.36 63.54 18.19 62.67C19.03 61.8 19.45 60.49 19.45 58.74V9.51H30.19V59.97C30.19 62.01 29.96 63.84 29.5 65.47C29.04 67.1 28.25 68.51 27.12 69.7C25.99 70.89 24.45 71.81 22.49 72.45C20.53 73.09 18.07 73.41 15.13 73.41H9.39001V63.98H9.38ZM58.01 30.55V25.66C58.01 22.98 57.49 21.05 56.45 19.85C55.41 18.66 54.2 18.06 52.81 18.06C50.61 18.06 49.11 18.63 48.31 19.76C47.5 20.9 47.1 22.66 47.1 25.04V56.99C47.1 59.38 47.5 61.14 48.31 62.27C49.12 63.4 50.62 63.97 52.81 63.97C54.77 63.97 56.13 63.42 56.88 62.31C57.63 61.2 58.01 59.63 58.01 57.59V50H68.75V57.25C68.75 59.46 68.42 61.56 67.75 63.54C67.09 65.52 66.11 67.24 64.81 68.69C63.51 70.15 61.85 71.3 59.83 72.14C57.81 72.98 55.47 73.41 52.82 73.41C49.99 73.41 47.55 72.99 45.5 72.14C43.45 71.3 41.75 70.15 40.39 68.69C39.03 67.24 38.02 65.52 37.36 63.54C36.69 61.56 36.36 59.47 36.36 57.25V24.78C36.36 22.57 36.69 20.47 37.36 18.49C38.02 16.51 39.03 14.79 40.39 13.34C41.75 11.89 43.45 10.74 45.5 9.89C47.55 9.05 49.99 8.62 52.82 8.62C55.47 8.62 57.81 9.09 59.83 10.02C61.85 10.95 63.51 12.2 64.81 13.77C66.11 15.34 67.09 17.17 67.75 19.27C68.41 21.37 68.75 23.58 68.75 25.91V30.54H58.01V30.55Z" fill="#231F20"/>
<path d="M96.03 103.61H102.6V108.2H87.26V104.45C90.03 102.15 90.83 101.43 92.8 99.74C96.37 96.72 96.37 96.22 96.37 94.61V94.53C96.37 93.46 95.57 93.11 93.83 93.11C92.35 93.11 89.92 93.49 88.13 94.07L87.03 89.67C88.89 88.94 91.89 88.29 94.09 88.29C100.01 88.29 101.72 90.13 101.72 93.8V94.26C101.72 96.86 101.72 98.39 98.68 101.19C97.35 102.42 97.12 102.68 96.02 103.6L96.03 103.61Z" fill="black"/>
<path d="M123.37 101.82C123.37 105.65 121.4 108.6 114.98 108.6C108.56 108.6 106.59 105.65 106.59 101.82V95.08C106.59 91.25 108.56 88.3 114.98 88.3C121.4 88.3 123.37 91.25 123.37 95.08V101.82ZM111.98 101.13C111.98 103.04 112.74 103.85 114.98 103.85C117.22 103.85 117.98 103.05 117.98 101.13V95.77C117.98 93.86 117.26 93.05 114.98 93.05C112.7 93.05 111.98 93.85 111.98 95.77V101.13Z" fill="black"/>
<path d="M136.17 103.61H142.74V108.2H127.4V104.45C130.17 102.15 130.97 101.43 132.94 99.74C136.51 96.72 136.51 96.22 136.51 94.61V94.53C136.51 93.46 135.71 93.11 133.97 93.11C132.49 93.11 130.06 93.49 128.27 94.07L127.17 89.67C129.03 88.94 132.03 88.29 134.23 88.29C140.15 88.29 141.86 90.13 141.86 93.8V94.26C141.86 96.86 141.86 98.39 138.82 101.19C137.49 102.42 137.26 102.68 136.16 103.6L136.17 103.61Z" fill="black"/>
<path d="M153.03 103.35C150.3 103.23 149.31 103.2 147.26 103.16V88.69H160.86V93.48H152.73V98.69C154.02 98.73 154.4 98.77 155.88 98.84C160.25 99.07 161.39 101.25 161.39 104.28V107C161.35 111.36 159.76 113.81 152.85 113.81C151.14 113.81 148.44 113.5 146.36 112.85L147.16 108.41C149.06 108.83 151 109.02 152.82 109.02C155.4 109.02 155.93 108.29 155.93 106.68V105.65C155.93 103.93 155.47 103.47 153.04 103.35H153.03Z" fill="black"/>
</g>
<defs>
<clipPath id="clip0_1_3">
<rect width="290" height="122" fill="white"/>
</clipPath>
</defs>
</svg>
