<svg width="200" height="112" viewBox="0 0 200 112" fill="none" xmlns="http://www.w3.org/2000/svg">
<g clip-path="url(#clip0_1_46)">
<path d="M154.85 55.99C154.85 86.91 129.79 112 98.86 112C67.93 112 42.87 86.93 42.87 55.99C42.87 25.05 67.95 0 98.88 0C129.81 0 154.87 25.07 154.87 56.01" fill="#DF1E26"/>
<path d="M57.78 60.26C57.68 54.19 57.63 52.26 57.6 51.64L57.47 51.67C57.27 51.7 56.93 51.77 56.82 51.79C56.42 51.86 56.03 51.91 55.68 51.96H55.58C55.43 51.98 55.28 51.99 55.15 52.01C55.08 52.01 55.03 52.01 54.97 52.03H54.82C54.75 52.03 54.69 52.03 54.62 52.05H54.37C54.29 52.05 54.22 52.05 54.15 52.07H52.18C52.08 52.07 52 52.07 51.9 52.05H51.8C51.72 52.05 51.65 52.05 51.57 52.03H51.49C51.39 52.03 51.31 52.01 51.21 52H51.19C51.11 52 51.02 51.97 50.96 51.97H50.88C50.83 51.97 50.76 51.95 50.71 51.94H50.63C50.58 51.94 50.53 51.92 50.5 51.91C50.33 51.88 50.18 51.84 50.03 51.81C50.03 51.81 49.96 51.81 49.93 51.79C46.13 51.07 44.43 51.61 43.81 53.21C41.62 58.9 19.84 47.24 19.3 50.67L19.07 52.13C18.97 52.28 18.87 52.43 18.77 52.57C18.69 52.69 18.59 52.8 18.5 52.9V52.92C18.05 53.47 17.61 53.77 17.16 53.91H17.13C17.06 53.91 17 53.94 16.95 53.94C16.92 53.94 16.88 53.94 16.85 53.96H16.48C14.54 53.88 11.81 51.55 5.21 50.41C2.27 49.9034 2.27 49.9034 5.21 50.41C4.99 50.38 4.76 50.33 4.52 50.29C4.42 50.29 4.32 50.26 4.24 50.24C4.11 50.22 3.97 50.21 3.84 50.19C3.66 50.16 3.47 50.14 3.29 50.12H3.27C3.02 50.09 2.75 50.05 2.5 50.04H2.37C2.14 50.02 1.88 49.99 1.65 49.97H1.5C1.22 49.95 0.91 49.92 0.61 49.9H0.18L0 60.68C1.56 60.48 2.98 60.43 4.28 60.46H4.55C8.33 60.73 10.89 62.07 12.9 63.12C14.77 64.11 16.25 64.88 17.82 64.32C17.94 64.27 19.28 63.38 19.48 62.61C19.61 62.06 19.6 61.46 19.58 61V60.51C21.34 60.33 22.78 60.51 23.85 60.66C24.84 60.81 28.23 61.63 29.47 62.05C30.57 62.43 31.8 62.87 32.65 63.17L33.54 63.49C36.5 64.53 38.59 64.88 40.06 64.88C41.53 64.88 42.99 64.21 43.39 63.91C43.96 63.47 43.98 62.2 43.98 62.05V61.2C43.98 61.1 44 61.03 44.08 60.97C44.63 60.4 47.09 60.35 48.91 60.38C50.38 60.4 51.62 60.4 53.33 60.4H57.88V60.22L57.8 60.27L57.78 60.26Z" fill="white"/>
<path d="M0.149994 49.93H0.479994C0.749994 42.13 3.48999 35.09 7.46999 32.28C9.63999 30.76 12.1 30.46 14.6 31.41C17.41 32.48 18.63 32.2 18.97 31.93V28.05C28.64 23.28 34.03 27.97 37.64 31.13C40.73 33.82 41.74 34.51 43.73 32.33V41.45C43.14 41.67 42.58 41.77 41.99 41.77C39.38 41.77 36.89 39.73 34.75 37.95C30.2 34.2 25.9 30.67 18.98 36.96V39.4C18.06 39.68 16.92 39.58 15.6 39.07C14.04 38.47 12.77 38.53 11.74 39.27C9.61999 40.78 8.23999 45.13 7.90999 51.03C12.54 52.23 14.75 53.91 16.39 53.98H16.76C16.76 53.98 16.83 53.98 16.86 53.96C16.93 53.96 16.98 53.94 17.04 53.93H17.06C17.51 53.8 17.95 53.49 18.4 52.94L18.42 52.92C18.5 52.82 18.6 52.7 18.69 52.57C18.79 52.44 18.89 52.29 18.99 52.13L19.21 50.67C19.26 50.39 19.44 50.22 19.75 50.12C22.61 49.1 36.93 56.04 42.08 54.59C42.88 54.36 43.45 53.92 43.72 53.22C44.04 52.42 44.61 51.86 45.59 51.63C46.58 51.38 47.95 51.41 49.87 51.78C49.9 51.78 49.94 51.78 49.97 51.8C50.09 51.82 50.2 51.85 50.32 51.88C50.29 47.58 49 43.45 46.56 40.12C45.72 38.98 44.77 37.96 43.73 37.06V28.51C52.09 32.53 57.5 41.85 56.76 51.79H56.79C56.91 51.77 57.24 51.71 57.44 51.67H57.59C57.59 51.39 57.56 51.35 57.56 51.34V51.17L57.54 17.95C56.03 18.02 52.77 17.68 52.17 17.58C46.48 16.58 44.29 17.08 43.52 18.07C43.47 18.14 43.42 18.22 43.37 18.29C43.37 18.31 43.35 18.32 43.34 18.36C42.52 20.03 44.69 22.71 41.88 22.56C40.11 22.46 36.39 21.25 28.72 18.01C21.11 15.33 18.88 15.72 18.45 17.01C18.45 17.04 18.45 17.06 18.43 17.09C18.08 18.36 19.28 20.42 18.86 21.39C18.71 21.72 18.39 21.93 17.76 21.94H17.61C12.81 21.87 11.5 17.1 0.159994 17.96V49.96H0.149994V49.94V49.93ZM33.44 46.85C34.09 47.37 34.34 48.11 34.21 48.89C33.64 48.32 33.04 47.85 32.3 48.14C32.6 48.91 32.35 49.7 31.95 50.28C31.58 49.23 31.18 48.66 30.51 48.69C30.63 49.39 30.01 49.88 29.14 50.16C29.27 49.31 29.31 48.44 28.65 48C28.35 48.65 27.4 48.75 26.61 48.64C26.94 48 27.4 47.35 27.13 46.67C26.49 46.95 25.64 46.74 24.99 46.05C25.59 45.73 26.4 45.53 26.41 44.68C25.59 44.48 24.97 43.84 24.7 43.09C25.52 43.22 26.26 43.22 26.66 42.71C26.01 42.04 25.82 41.27 25.89 40.58C26.44 41.02 27.08 41.53 27.88 41.35C27.61 40.6 27.83 39.79 28.16 39.19C28.39 39.89 28.73 40.83 29.67 41C29.84 40.26 30.32 39.59 30.92 39.31C30.77 39.96 30.95 40.77 31.59 41.49C31.91 40.92 32.51 40.59 33.48 40.85C32.93 41.39 32.58 42.07 33.03 42.87C33.63 42.7 34.42 42.87 35.09 43.44C34.37 43.64 33.62 44.01 33.7 44.9C34.6 44.98 35.14 45.54 35.34 46.39C34.4 45.99 33.57 45.92 33.42 46.86H33.44V46.85ZM30.48 22.17L31.1 20.35L31.59 22.46L33.55 22.71L31.94 23.68L32.54 25.72L31.05 24.16L29.23 25.03L30.03 23.14L28.54 21.67L30.5 22.19L30.48 22.17Z" fill="#2D54A5"/>
<path d="M4.4 50.35C4.3 50.35 4.22 50.32 4.12 50.3C4.22 50.3 4.32 50.33 4.4 50.35Z" fill="#2B347D"/>
<path d="M3.12999 50.17C2.87999 50.14 2.60999 50.12 2.35999 50.09C2.62999 50.12 2.87999 50.14 3.12999 50.17Z" fill="#2B347D"/>
<path d="M2.22 50.08C1.99 50.06 1.73 50.03 1.5 50.01C1.75 50.03 1.99 50.06 2.22 50.08Z" fill="#2B347D"/>
<path d="M3.14001 50.18C3.32001 50.2 3.51001 50.23 3.69001 50.25C3.57001 50.23 3.46001 50.22 3.34001 50.2C3.27001 50.2 3.21001 50.2 3.14001 50.18Z" fill="#2B347D"/>
<path d="M0.48999 49.93C0.78999 49.95 1.08999 49.96 1.37999 50C1.09999 49.98 0.78999 49.95 0.48999 49.93Z" fill="#2B347D"/>
<path d="M43.34 18.34C42.67 19.65 42.17 21.03 41.88 22.54C44.71 22.69 42.52 20.03 43.34 18.34Z" fill="#B3B3B3"/>
<path d="M18.85 21.39C19.27 20.42 18.08 18.36 18.42 17.09L18.35 17.24L17.92 19.97L17.69 21.96H17.76C18.36 21.96 18.7 21.74 18.86 21.41V21.39H18.85Z" fill="#B3B3B3"/>
<path d="M35.36 46.39C35.16 45.54 34.62 44.98 33.72 44.9C33.64 44.01 34.39 43.64 35.11 43.44C34.44 42.87 33.65 42.7 33.05 42.87C32.6 42.07 32.95 41.38 33.5 40.85C32.53 40.6 31.94 40.92 31.61 41.49C30.96 40.77 30.79 39.97 30.94 39.31C30.35 39.59 29.85 40.26 29.69 41C28.75 40.83 28.4 39.9 28.18 39.19C27.85 39.79 27.63 40.6 27.9 41.35C27.1 41.53 26.44 41.02 25.91 40.58C25.83 41.27 26.03 42.04 26.68 42.71C26.28 43.23 25.54 43.23 24.72 43.09C24.99 43.84 25.61 44.46 26.43 44.68C26.4 45.53 25.59 45.73 25.01 46.05C25.66 46.74 26.52 46.95 27.15 46.67C27.42 47.36 26.97 47.99 26.63 48.64C27.42 48.76 28.37 48.66 28.67 48C29.32 48.44 29.31 49.31 29.16 50.16C30.01 49.88 30.63 49.39 30.53 48.69C31.2 48.66 31.6 49.21 31.97 50.28C32.37 49.69 32.62 48.91 32.32 48.14C33.06 47.86 33.67 48.32 34.23 48.89C34.36 48.1 34.11 47.35 33.46 46.85C33.61 45.91 34.46 45.96 35.38 46.38H35.36V46.39Z" fill="#FFB608"/>
<path d="M29.22 25.03L31.05 24.16L32.54 25.72L31.93 23.68L33.54 22.71L31.58 22.46L31.1 20.37L30.48 22.17L28.52 21.67L30.03 23.14L29.22 25.03Z" fill="#FFB608"/>
<path d="M50.8 37.27C53.84 41.44 55.33 46.67 55.08 52.03C55.23 52.03 55.36 52 55.51 51.98H55.59C55.94 51.93 56.33 51.88 56.73 51.81C57.48 41.87 52.06 32.55 43.7 28.53V31.16C46.44 32.62 48.85 34.69 50.76 37.28L50.79 37.26L50.8 37.27Z" fill="#DF1E26"/>
<path d="M48.86 38.45C51.7 42.35 53.19 47.17 53.18 52.17H54.52C54.59 52.17 54.65 52.17 54.72 52.15H54.85C54.92 52.15 54.97 52.15 55.03 52.13C55.28 46.76 53.79 41.52 50.75 37.37C48.84 34.78 46.43 32.7 43.69 31.25V33.61C45.65 34.93 47.37 36.59 48.81 38.56L48.86 38.44V38.45Z" fill="#FFB608"/>
<path d="M50.57 51.96H50.64C50.69 51.96 50.76 51.98 50.81 51.99H50.88C50.96 51.99 51.03 52.02 51.11 52.02H51.13C51.21 52.02 51.31 52.05 51.41 52.05H51.48C51.56 52.05 51.63 52.05 51.71 52.07H51.81H53.13C53.16 47.07 51.67 42.25 48.81 38.35C47.37 36.38 45.63 34.72 43.69 33.4V36.98C44.73 37.88 45.68 38.9 46.52 40.04C48.96 43.37 50.27 47.52 50.28 51.82H50.35C50.4 51.82 50.45 51.84 50.48 51.85L50.56 51.95L50.57 51.96Z" fill="#00AF49"/>
<path d="M36.82 33.23C40.38 36.07 41.94 37.03 43.75 35.34V32.31C41.74 34.49 40.74 33.78 37.66 31.11C34.05 27.96 28.66 23.26 18.99 28.03V30.89C26.95 25.33 32.62 29.87 36.84 33.22L36.82 33.24V33.23Z" fill="#DF1E26"/>
<path d="M19 31.96V32.01V33.23C26.76 27.62 32.4 32.26 36.61 35.71C40.27 38.72 41.86 39.73 43.74 38.05V35.34C41.93 37.01 40.38 36.08 36.81 33.23C32.59 29.87 26.92 25.35 18.96 30.9V31.92C18.96 31.92 18.98 31.92 18.99 31.9V31.95L19 31.96Z" fill="#FFB608"/>
<path d="M36.62 35.71C32.4 32.25 26.77 27.63 19.01 33.23V36.98C25.92 30.7 30.23 34.24 34.78 37.97C36.92 39.73 39.41 41.79 42.02 41.79C44.63 41.79 43.17 41.69 43.76 41.47V38.09C41.89 39.76 40.3 38.74 36.63 35.75L36.61 35.72L36.62 35.71Z" fill="#00AF49"/>
<path d="M14.92 36.46C13.31 35.81 11.91 35.92 10.6 36.83C7.75999 38.8 5.77999 44.19 5.42999 50.52C6.32999 50.69 7.14999 50.87 7.90999 51.07C8.23999 45.15 9.61999 40.8 11.74 39.29C12.78 38.55 14.05 38.49 15.6 39.09C16.92 39.61 18.06 39.71 18.98 39.42V37.04C17.98 37.36 16.67 37.17 14.92 36.45V36.46Z" fill="#00AF49"/>
<path d="M18.1 35.01H17.4C17.27 35.01 17.13 34.99 17 34.98C16.92 34.98 16.85 34.96 16.77 34.95C16.64 34.93 16.52 34.92 16.39 34.9C16.29 34.88 16.21 34.87 16.11 34.85C15.99 34.83 15.86 34.8 15.74 34.77C15.62 34.74 15.51 34.72 15.39 34.69C15.27 34.66 15.17 34.64 15.06 34.61C14.91 34.58 14.76 34.53 14.61 34.48C14.53 34.45 14.43 34.43 14.33 34.4C14.08 34.32 13.83 34.23 13.56 34.13C11.95 33.51 10.52 33.69 9.13 34.67C5.85 36.98 3.54 43.34 3.34 50.27C3.46 50.29 3.57 50.3 3.69 50.32C3.82 50.34 3.96 50.35 4.09 50.37C4.19 50.37 4.29 50.4 4.37 50.42C4.6 50.45 4.84 50.49 5.06 50.54C5.18 50.56 5.29 50.57 5.41 50.59C5.76 44.26 7.75 38.88 10.58 36.9C11.88 36 13.29 35.88 14.9 36.53C16.66 37.25 17.96 37.43 18.96 37.12V34.99C18.68 35.04 18.37 35.07 18.06 35.07L18.13 35.04L18.1 35.01Z" fill="#FFB608"/>
<path d="M1.50999 50.02C1.75999 50.04 1.99999 50.07 2.22999 50.09H2.35999C2.62999 50.12 2.87999 50.14 3.12999 50.17H3.14999C3.21999 50.17 3.27999 50.17 3.34999 50.19C3.54999 43.26 5.85999 36.9 9.13999 34.59C10.51 33.62 11.97 33.44 13.57 34.05C13.82 34.15 14.09 34.23 14.34 34.32C14.44 34.35 14.52 34.37 14.62 34.4C14.77 34.45 14.92 34.5 15.07 34.53C15.19 34.56 15.3 34.6 15.4 34.61C15.52 34.64 15.63 34.68 15.75 34.69C15.87 34.72 16 34.74 16.12 34.77C16.22 34.79 16.3 34.8 16.4 34.82C16.53 34.84 16.67 34.85 16.78 34.87C16.86 34.87 16.93 34.89 17.01 34.9C17.14 34.9 17.28 34.93 17.41 34.93H18.11C18.43 34.93 18.73 34.9 19.01 34.85V31.94V31.84L18.98 31.86C18.65 32.13 17.41 32.41 14.61 31.34C12.12 30.39 9.63999 30.69 7.47999 32.21C3.49999 35.02 0.75999 42.08 0.48999 49.86C0.78999 49.88 1.07999 49.89 1.37999 49.93H1.52999L1.47999 50L1.50999 50.02Z" fill="#DF1E26"/>
<path d="M30.86 53.57L29.79 53.26V55.46L27.67 54.87V55.96L29.79 56.54V60.38L30.86 60.68V56.85L32.99 57.43V56.34L30.86 55.76V53.57Z" fill="#DF1E26"/>
<g opacity="0.3">
<g style="mix-blend-mode:darken">
<mask id="mask0_1_46" style="mask-type:luminance" maskUnits="userSpaceOnUse" x="10" y="19" width="10" height="46">
<path d="M19.54 60.56L18.94 21.12C18.94 21.2 18.91 21.29 18.87 21.37C18.84 21.44 18.8 21.49 18.77 21.55L18.75 21.57C18.7 21.62 18.65 21.67 18.6 21.7H18.58C18.45 21.78 18.28 21.85 18.04 21.88C17.96 21.88 17.87 21.88 17.77 21.9H17.62C14.84 21.85 13.22 20.23 10.14 19.04V61.81C11.18 62.25 12.08 62.71 12.88 63.13C14.75 64.12 16.23 64.89 17.8 64.33C17.92 64.28 19.26 63.39 19.46 62.62C19.51 62.44 19.53 62.24 19.54 62.05C19.57 61.67 19.56 61.3 19.54 61.01V60.52L19.52 60.54L19.54 60.56Z" fill="white"/>
</mask>
<g mask="url(#mask0_1_46)">
<mask id="mask1_1_46" style="mask-type:luminance" maskUnits="userSpaceOnUse" x="14" y="20" width="6" height="47">
<path d="M14.6 66.35H19.69L19.42 20.67L14.6 20.38V66.35Z" fill="white"/>
</mask>
<g mask="url(#mask1_1_46)">
<path d="M14.62 20.38H14.6V66.33H14.62V20.38Z" fill="white"/>
<path d="M14.64 20.38H14.62V66.33H14.64V20.38Z" fill="white"/>
<path d="M14.67 20.38H14.65V66.33H14.67V20.38Z" fill="white"/>
<path d="M14.69 20.38H14.67V66.33H14.69V20.38Z" fill="white"/>
<path d="M14.71 20.38H14.69V66.33H14.71V20.38Z" fill="white"/>
<path d="M14.72 20.38H14.7V66.33H14.72V20.38Z" fill="white"/>
<path d="M14.74 20.38H14.72V66.33H14.74V20.38Z" fill="white"/>
<path d="M14.76 20.38H14.74V66.33H14.76V20.38Z" fill="white"/>
<path d="M14.79 20.38H14.77V66.33H14.79V20.38Z" fill="white"/>
<path d="M14.81 20.38H14.79V66.33H14.81V20.38Z" fill="white"/>
<path d="M14.82 20.38H14.8V66.33H14.82V20.38Z" fill="white"/>
<path d="M14.84 20.38H14.82V66.33H14.84V20.38Z" fill="white"/>
<path d="M14.87 20.38H14.85V66.33H14.87V20.38Z" fill="white"/>
<path d="M14.89 20.38H14.87V66.33H14.89V20.38Z" fill="white"/>
<path d="M14.91 20.38H14.89V66.33H14.91V20.38Z" fill="white"/>
<path d="M14.92 20.38H14.9V66.33H14.92V20.38Z" fill="white"/>
<path d="M14.94 20.38H14.92V66.33H14.94V20.38Z" fill="white"/>
<path d="M14.96 20.38H14.94V66.33H14.96V20.38Z" fill="white"/>
<path d="M14.99 20.38H14.97V66.33H14.99V20.38Z" fill="white"/>
<path d="M15.01 20.38H14.99V66.33H15.01V20.38Z" fill="white"/>
<path d="M15.03 20.38H15.01V66.33H15.03V20.38Z" fill="white"/>
<path d="M15.04 20.38H15.02V66.33H15.04V20.38Z" fill="white"/>
<path d="M15.06 20.38H15.04V66.33H15.06V20.38Z" fill="#FAFDFF"/>
<path d="M15.09 20.38H15.07V66.33H15.09V20.38Z" fill="#FAFDFF"/>
<path d="M15.11 20.38H15.09V66.33H15.11V20.38Z" fill="#FAFDFF"/>
<path d="M15.13 20.38H15.11V66.33H15.13V20.38Z" fill="#F9F9FC"/>
<path d="M15.14 20.38H15.12V66.33H15.14V20.38Z" fill="#F9F9FC"/>
<path d="M15.16 20.38H15.14V66.33H15.16V20.38Z" fill="#F9F9FC"/>
<path d="M15.19 20.38H15.17V66.33H15.19V20.38Z" fill="#F9F9F9"/>
<path d="M15.21 20.38H15.19V66.33H15.21V20.38Z" fill="#F9F9F9"/>
<path d="M15.23 20.38H15.21V66.33H15.23V20.38Z" fill="#F7F8F9"/>
<path d="M15.24 20.38H15.22V66.33H15.24V20.38Z" fill="#F7F8F9"/>
<path d="M15.26 20.38H15.24V66.33H15.26V20.38Z" fill="#F7F8F9"/>
<path d="M15.28 20.38H15.26V66.33H15.28V20.38Z" fill="#F7F7F7"/>
<path d="M15.31 20.38H15.29V66.33H15.31V20.38Z" fill="#F7F7F7"/>
<path d="M15.33 20.38H15.31V66.33H15.33V20.38Z" fill="#F8F8F8"/>
<path d="M15.34 20.38H15.32V66.33H15.34V20.38Z" fill="#F8F8F8"/>
<path d="M15.36 20.38H15.34V66.33H15.36V20.38Z" fill="#F7F7F7"/>
<path d="M15.39 20.38H15.37V66.33H15.39V20.38Z" fill="#F7F7F7"/>
<path d="M15.41 20.38H15.39V66.33H15.41V20.38Z" fill="#F5F5F5"/>
<path d="M15.43 20.38H15.41V66.33H15.43V20.38Z" fill="#F5F5F5"/>
<path d="M15.44 20.38H15.42V66.33H15.44V20.38Z" fill="#F4F5F5"/>
<path d="M15.46 20.38H15.44V66.33H15.46V20.38Z" fill="#F4F5F5"/>
<path d="M15.48 20.38H15.46V66.33H15.48V20.38Z" fill="#F4F5F5"/>
<path d="M15.51 20.38H15.49V66.33H15.51V20.38Z" fill="#F4F5F5"/>
<path d="M15.53 20.38H15.51V66.33H15.53V20.38Z" fill="#F3F4F5"/>
<path d="M15.54 20.38H15.52V66.33H15.54V20.38Z" fill="#F3F4F5"/>
<path d="M15.56 20.38H15.54V66.33H15.56V20.38Z" fill="#F3F2F4"/>
<path d="M15.58 20.38H15.56V66.33H15.58V20.38Z" fill="#F3F2F4"/>
<path d="M15.61 20.38H15.59V66.33H15.61V20.38Z" fill="#F1F3F3"/>
<path d="M15.63 20.38H15.61V66.33H15.63V20.38Z" fill="#F1F3F3"/>
<path d="M15.64 20.38H15.62V66.33H15.64V20.38Z" fill="#F3F2F2"/>
<path d="M15.66 20.38H15.64V66.33H15.66V20.38Z" fill="#F3F2F2"/>
<path d="M15.68 20.38H15.66V66.33H15.68V20.38Z" fill="#F1F1F1"/>
<path d="M15.71 20.38H15.69V66.33H15.71V20.38Z" fill="#F0F0F0"/>
<path d="M15.73 20.38H15.71V66.33H15.73V20.38Z" fill="#F0F0F0"/>
<path d="M15.74 20.38H15.72V66.33H15.74V20.38Z" fill="#EFEFEF"/>
<path d="M15.76 20.38H15.74V66.33H15.76V20.38Z" fill="#EFEFEF"/>
<path d="M15.78 20.38H15.76V66.33H15.78V20.38Z" fill="#EFEFEF"/>
<path d="M15.81 20.38H15.79V66.33H15.81V20.38Z" fill="#EFEDEE"/>
<path d="M15.83 20.38H15.81V66.33H15.83V20.38Z" fill="#EFEDEE"/>
<path d="M15.84 20.38H15.82V66.33H15.84V20.38Z" fill="#EDEEED"/>
<path d="M15.86 20.38H15.84V66.33H15.86V20.38Z" fill="#ECECEC"/>
<path d="M15.88 20.38H15.86V66.33H15.88V20.38Z" fill="#ECECEC"/>
<path d="M15.89 20.38H15.87V66.33H15.89V20.38Z" fill="#EBEBEC"/>
<path d="M15.93 20.38H15.91V66.33H15.93V20.38Z" fill="#EBEBEA"/>
<path d="M15.95 20.38H15.93V66.33H15.95V20.38Z" fill="#EBEBEA"/>
<path d="M15.96 20.38H15.94V66.33H15.96V20.38Z" fill="#E9EAEA"/>
<path d="M15.98 20.38H15.96V66.33H15.98V20.38Z" fill="#E9E9EA"/>
<path d="M16 20.38H15.98V66.33H16V20.38Z" fill="#E9E9EA"/>
<path d="M16.03 20.38H16.01V66.33H16.03V20.38Z" fill="#E8E8E9"/>
<path d="M16.05 20.38H16.03V66.33H16.05V20.38Z" fill="#E7E9E8"/>
<path d="M16.06 20.38H16.04V66.33H16.06V20.38Z" fill="#E7E9E8"/>
<path d="M16.08 20.38H16.06V66.33H16.08V20.38Z" fill="#E7E7E7"/>
<path d="M16.1 20.38H16.08V66.33H16.1V20.38Z" fill="#E7E6E7"/>
<path d="M16.13 20.38H16.11V66.33H16.13V20.38Z" fill="#E7E6E6"/>
<path d="M16.15 20.38H16.13V66.33H16.15V20.38Z" fill="#E4E5E5"/>
<path d="M16.16 20.38H16.14V66.33H16.16V20.38Z" fill="#E4E5E5"/>
<path d="M16.18 20.38H16.16V66.33H16.18V20.38Z" fill="#E3E4E5"/>
<path d="M16.2 20.38H16.18V66.33H16.2V20.38Z" fill="#E4E4E5"/>
<path d="M16.23 20.38H16.21V66.33H16.23V20.38Z" fill="#E3E4E3"/>
<path d="M16.25 20.38H16.23V66.33H16.25V20.38Z" fill="#E3E4E3"/>
<path d="M16.26 20.38H16.24V66.33H16.26V20.38Z" fill="#E1E2E3"/>
<path d="M16.28 20.38H16.26V66.33H16.28V20.38Z" fill="#E0E1E1"/>
<path d="M16.3 20.38H16.28V66.33H16.3V20.38Z" fill="#E0E0E1"/>
<path d="M16.33 20.38H16.31V66.33H16.33V20.38Z" fill="#E0E0E1"/>
<path d="M16.35 20.38H16.33V66.33H16.35V20.38Z" fill="#DFE0E1"/>
<path d="M16.36 20.38H16.34V66.33H16.36V20.38Z" fill="#DFE0E0"/>
<path d="M16.38 20.38H16.36V66.33H16.38V20.38Z" fill="#DDDFE0"/>
<path d="M16.4 20.38H16.38V66.33H16.4V20.38Z" fill="#DFDEDE"/>
<path d="M16.41 20.38H16.39V66.33H16.41V20.38Z" fill="#DCDDDE"/>
<path d="M16.45 20.38H16.43V66.33H16.45V20.38Z" fill="#DCDDDE"/>
<path d="M16.46 20.38H16.44V66.33H16.46V20.38Z" fill="#DBDCDD"/>
<path d="M16.48 20.38H16.46V66.33H16.48V20.38Z" fill="#DBDBDC"/>
<path d="M16.5 20.38H16.48V66.33H16.5V20.38Z" fill="#DBDBDC"/>
<path d="M16.51 20.38H16.49V66.33H16.51V20.38Z" fill="#DBDBDC"/>
<path d="M16.55 20.38H16.53V66.33H16.55V20.38Z" fill="#D8DADA"/>
<path d="M16.56 20.38H16.54V66.33H16.56V20.38Z" fill="#D7D8D9"/>
<path d="M16.58 20.38H16.56V66.33H16.58V20.38Z" fill="#D7D8D9"/>
<path d="M16.6 20.38H16.58V66.33H16.6V20.38Z" fill="#D7D7D8"/>
<path d="M16.61 20.38H16.59V66.33H16.61V20.38Z" fill="#D7D7D8"/>
<path d="M16.65 20.38H16.63V66.33H16.65V20.38Z" fill="#D5D6D7"/>
<path d="M16.66 20.38H16.64V66.33H16.66V20.38Z" fill="#D4D6D7"/>
<path d="M16.68 20.38H16.66V66.33H16.68V20.38Z" fill="#D4D5D5"/>
<path d="M16.7 20.38H16.68V66.33H16.7V20.38Z" fill="#D4D5D5"/>
<path d="M16.71 20.38H16.69V66.33H16.71V20.38Z" fill="#D4D4D4"/>
<path d="M16.75 20.38H16.73V66.33H16.75V20.38Z" fill="#D2D3D3"/>
<path d="M16.76 20.38H16.74V66.33H16.76V20.38Z" fill="#D1D2D3"/>
<path d="M16.78 20.38H16.76V66.33H16.78V20.38Z" fill="#D1D2D2"/>
<path d="M16.8 20.38H16.78V66.33H16.8V20.38Z" fill="#D0D1D2"/>
<path d="M16.81 20.38H16.79V66.33H16.81V20.38Z" fill="#D0D1D2"/>
<path d="M16.85 20.38H16.83V66.33H16.85V20.38Z" fill="#CECFD1"/>
<path d="M16.87 20.38H16.85V66.33H16.87V20.38Z" fill="#CDCECF"/>
<path d="M16.88 20.38H16.86V66.33H16.88V20.38Z" fill="#CCCDCE"/>
<path d="M16.9 20.38H16.88V66.33H16.9V20.38Z" fill="#CCCDCE"/>
<path d="M16.92 20.38H16.9V66.33H16.92V20.38Z" fill="#CCCDCE"/>
<path d="M16.95 20.38H16.93V66.33H16.95V20.38Z" fill="#CACBCD"/>
<path d="M16.97 20.38H16.95V66.33H16.97V20.38Z" fill="#C9CACB"/>
<path d="M16.98 20.38H16.96V66.33H16.98V20.38Z" fill="#C9CACB"/>
<path d="M17 20.38H16.98V66.33H17V20.38Z" fill="#C9C9CA"/>
<path d="M17.02 20.38H17V66.33H17.02V20.38Z" fill="#C7C8CA"/>
<path d="M17.05 20.38H17.03V66.33H17.05V20.38Z" fill="#C6C7C9"/>
<path d="M17.07 20.38H17.05V66.33H17.07V20.38Z" fill="#C5C6C6"/>
<path d="M17.08 20.38H17.06V66.33H17.08V20.38Z" fill="#C5C5C7"/>
<path d="M17.1 20.38H17.08V66.33H17.1V20.38Z" fill="#C4C4C6"/>
<path d="M17.12 20.38H17.1V66.33H17.12V20.38Z" fill="#C2C4C5"/>
<path d="M17.15 20.38H17.13V66.33H17.15V20.38Z" fill="#C2C2C3"/>
<path d="M17.17 20.38H17.15V66.33H17.17V20.38Z" fill="#C2C2C4"/>
<path d="M17.18 20.38H17.16V66.33H17.18V20.38Z" fill="#C2C1C3"/>
<path d="M17.2 20.38H17.18V66.33H17.2V20.38Z" fill="#BFC0C2"/>
<path d="M17.22 20.38H17.2V66.33H17.22V20.38Z" fill="#BEC0C1"/>
<path d="M17.23 20.38H17.21V66.33H17.23V20.38Z" fill="#BEC0C0"/>
<path d="M17.27 20.38H17.25V66.33H17.27V20.38Z" fill="#BEBFC0"/>
<path d="M17.28 20.38H17.26V66.33H17.28V20.38Z" fill="#BDBDBF"/>
<path d="M17.3 20.38H17.28V66.33H17.3V20.38Z" fill="#BBBDBE"/>
<path d="M17.32 20.38H17.3V66.33H17.32V20.38Z" fill="#BBBCBD"/>
<path d="M17.33 20.38H17.31V66.33H17.33V20.38Z" fill="#BBBCBD"/>
<path d="M17.37 20.38H17.35V66.33H17.37V20.38Z" fill="#B8B9BC"/>
<path d="M17.38 20.38H17.36V66.33H17.38V20.38Z" fill="#B7B9BA"/>
<path d="M17.4 20.38H17.38V66.33H17.4V20.38Z" fill="#B8B8B9"/>
<path d="M17.42 20.38H17.4V66.33H17.42V20.38Z" fill="#B7B8BA"/>
<path d="M17.43 20.38H17.41V66.33H17.43V20.38Z" fill="#B6B6B8"/>
<path d="M17.47 20.38H17.45V66.33H17.47V20.38Z" fill="#B5B5B8"/>
<path d="M17.48 20.38H17.46V66.33H17.48V20.38Z" fill="#B4B6B7"/>
<path d="M17.5 20.38H17.48V66.33H17.5V20.38Z" fill="#B2B4B6"/>
<path d="M17.52 20.38H17.5V66.33H17.52V20.38Z" fill="#B1B2B4"/>
<path d="M17.53 20.38H17.51V66.33H17.53V20.38Z" fill="#B1B1B4"/>
<path d="M17.57 20.38H17.55V66.33H17.57V20.38Z" fill="#B1B2B3"/>
<path d="M17.58 20.38H17.56V66.33H17.58V20.38Z" fill="#AFB1B2"/>
<path d="M17.6 20.38H17.58V66.33H17.6V20.38Z" fill="#AFB0B2"/>
<path d="M17.62 20.38H17.6V66.33H17.62V20.38Z" fill="#ADAEB1"/>
<path d="M17.63 20.38H17.61V66.33H17.63V20.38Z" fill="#ACADAE"/>
<path d="M17.67 20.38H17.65V66.33H17.67V20.38Z" fill="#ABACAD"/>
<path d="M17.68 20.38H17.66V66.33H17.68V20.38Z" fill="#ABACAE"/>
<path d="M17.7 20.38H17.68V66.33H17.7V20.38Z" fill="#AAABAD"/>
<path d="M17.72 20.38H17.7V66.33H17.72V20.38Z" fill="#A8A9AC"/>
<path d="M17.73 20.38H17.71V66.33H17.73V20.38Z" fill="#A7A8AA"/>
<path d="M17.77 20.38H17.75V66.33H17.77V20.38Z" fill="#A5A8AA"/>
<path d="M17.79 20.38H17.77V66.33H17.79V20.38Z" fill="#A5A6A9"/>
<path d="M17.8 20.38H17.78V66.33H17.8V20.38Z" fill="#A4A5A7"/>
<path d="M17.82 20.38H17.8V66.33H17.82V20.38Z" fill="#A2A4A5"/>
<path d="M17.84 20.38H17.82V66.33H17.84V20.38Z" fill="#A1A3A5"/>
<path d="M17.85 20.38H17.83V66.33H17.85V20.38Z" fill="#A1A2A4"/>
<path d="M17.89 20.38H17.87V66.33H17.89V20.38Z" fill="#A0A1A3"/>
<path d="M17.9 20.38H17.88V66.33H17.9V20.38Z" fill="#9E9FA2"/>
<path d="M17.92 20.38H17.9V66.33H17.92V20.38Z" fill="#9D9FA0"/>
<path d="M17.94 20.38H17.92V66.33H17.94V20.38Z" fill="#9D9EA1"/>
<path d="M17.95 20.38H17.93V66.33H17.95V20.38Z" fill="#9D9EA0"/>
<path d="M17.99 20.38H17.97V66.33H17.99V20.38Z" fill="#999A9C"/>
<path d="M18 20.38H17.98V66.33H18V20.38Z" fill="#98999C"/>
<path d="M18.02 20.38H18V66.33H18.02V20.38Z" fill="#989A9A"/>
<path d="M18.04 20.38H18.02V66.33H18.04V20.38Z" fill="#97989A"/>
<path d="M18.05 20.38H18.03V66.33H18.05V20.38Z" fill="#969799"/>
<path d="M18.1 20.38H18.08V66.33H18.1V20.38Z" fill="#959596"/>
<path d="M18.12 20.38H18.1V66.33H18.12V20.38Z" fill="#929394"/>
<path d="M18.14 20.38H18.12V66.33H18.14V20.38Z" fill="#919395"/>
<path d="M18.15 20.38H18.13V66.33H18.15V20.38Z" fill="#919294"/>
<path d="M18.17 20.38H18.15V66.33H18.17V20.38Z" fill="#8F9092"/>
<path d="M18.2 20.38H18.18V66.33H18.2V20.38Z" fill="#8D8F91"/>
<path d="M18.22 20.38H18.2V66.33H18.22V20.38Z" fill="#8D8F91"/>
<path d="M18.24 20.38H18.22V66.33H18.24V20.38Z" fill="#8B8D8F"/>
<path d="M18.25 20.38H18.23V66.33H18.25V20.38Z" fill="#8D8D8F"/>
<path d="M18.29 20.38H18.27V66.33H18.29V20.38Z" fill="#8B8B8D"/>
<path d="M18.3 20.38H18.28V66.33H18.3V20.38Z" fill="#88898B"/>
<path d="M18.32 20.38H18.3V66.33H18.32V20.38Z" fill="#88888A"/>
<path d="M18.34 20.38H18.32V66.33H18.34V20.38Z" fill="#858789"/>
<path d="M18.35 20.38H18.33V66.33H18.35V20.38Z" fill="#848688"/>
<path d="M18.39 20.38H18.37V66.33H18.39V20.38Z" fill="#858587"/>
<path d="M18.4 20.38H18.38V66.33H18.4V20.38Z" fill="#828385"/>
<path d="M18.42 20.38H18.4V66.33H18.42V20.38Z" fill="#818285"/>
<path d="M18.44 20.38H18.42V66.33H18.44V20.38Z" fill="#808283"/>
<path d="M18.45 20.38H18.43V66.33H18.45V20.38Z" fill="#808181"/>
<path d="M18.47 20.38H18.45V66.33H18.47V20.38Z" fill="#808081"/>
<path d="M18.5 20.38H18.48V66.33H18.5V20.38Z" fill="#7E7F80"/>
<path d="M18.52 20.38H18.5V66.33H18.52V20.38Z" fill="#7E7E80"/>
<path d="M18.54 20.38H18.52V66.33H18.54V20.38Z" fill="#7D7E80"/>
<path d="M18.55 20.38H18.53V66.33H18.55V20.38Z" fill="#7A7C7D"/>
<path d="M18.57 20.38H18.55V66.33H18.57V20.38Z" fill="#797B7D"/>
<path d="M18.6 20.38H18.58V66.33H18.6V20.38Z" fill="#79797A"/>
<path d="M18.62 20.38H18.6V66.33H18.62V20.38Z" fill="#78797B"/>
<path d="M18.64 20.38H18.62V66.33H18.64V20.38Z" fill="#767779"/>
<path d="M18.65 20.38H18.63V66.33H18.65V20.38Z" fill="#757678"/>
<path d="M18.67 20.38H18.65V66.33H18.67V20.38Z" fill="#737576"/>
<path d="M18.69 20.38H18.67V66.33H18.69V20.38Z" fill="#737376"/>
<path d="M18.72 20.38H18.7V66.33H18.72V20.38Z" fill="#707173"/>
<path d="M18.74 20.38H18.72V66.33H18.74V20.38Z" fill="#6F7072"/>
<path d="M18.76 20.38H18.74V66.33H18.76V20.38Z" fill="#6D6F71"/>
<path d="M18.77 20.38H18.75V66.33H18.77V20.38Z" fill="#6D6D6F"/>
<path d="M18.81 20.38H18.79V66.33H18.81V20.38Z" fill="#6C6D6E"/>
<path d="M18.82 20.38H18.8V66.33H18.82V20.38Z" fill="#6A6B6D"/>
<path d="M18.84 20.38H18.82V66.33H18.84V20.38Z" fill="#696B6C"/>
<path d="M18.86 20.38H18.84V66.33H18.86V20.38Z" fill="#66686A"/>
<path d="M18.87 20.38H18.85V66.33H18.87V20.38Z" fill="#656668"/>
<path d="M18.89 20.38H18.87V66.33H18.89V20.38Z" fill="#636567"/>
<path d="M18.92 20.38H18.9V66.33H18.92V20.38Z" fill="#636465"/>
<path d="M18.94 20.38H18.92V66.33H18.94V20.38Z" fill="#616264"/>
<path d="M18.96 20.38H18.94V66.33H18.96V20.38Z" fill="#5F6162"/>
<path d="M18.97 20.38H18.95V66.33H18.97V20.38Z" fill="#5E5F60"/>
<path d="M19.01 20.38H18.99V66.33H19.01V20.38Z" fill="#5E5E5F"/>
<path d="M19.02 20.38H19V66.33H19.02V20.38Z" fill="#5C5C5E"/>
<path d="M19.04 20.38H19.02V66.33H19.04V20.38Z" fill="#5B5B5D"/>
<path d="M19.06 20.38H19.04V66.33H19.06V20.38Z" fill="#59585A"/>
<path d="M19.07 20.38H19.05V66.33H19.07V20.38Z" fill="#58585A"/>
<path d="M19.09 20.38H19.07V66.33H19.09V20.38Z" fill="#565658"/>
<path d="M19.12 20.38H19.1V66.33H19.12V20.38Z" fill="#545557"/>
<path d="M19.14 20.38H19.12V66.33H19.14V20.38Z" fill="#525354"/>
<path d="M19.16 20.38H19.14V66.33H19.16V20.38Z" fill="#515253"/>
<path d="M19.17 20.38H19.15V66.33H19.17V20.38Z" fill="#4F4F51"/>
<path d="M19.19 20.38H19.17V66.33H19.19V20.38Z" fill="#4E4D50"/>
<path d="M19.22 20.38H19.2V66.33H19.22V20.38Z" fill="#4D4D4F"/>
<path d="M19.24 20.38H19.22V66.33H19.24V20.38Z" fill="#4B4B4D"/>
<path d="M19.26 20.38H19.24V66.33H19.26V20.38Z" fill="#49494B"/>
<path d="M19.27 20.38H19.25V66.33H19.27V20.38Z" fill="#474749"/>
<path d="M19.29 20.38H19.27V66.33H19.29V20.38Z" fill="#454548"/>
<path d="M19.32 20.38H19.3V66.33H19.32V20.38Z" fill="#454547"/>
<path d="M19.34 20.38H19.32V66.33H19.34V20.38Z" fill="#444245"/>
<path d="M19.36 20.38H19.34V66.33H19.36V20.38Z" fill="#414143"/>
<path d="M19.37 20.38H19.35V66.33H19.37V20.38Z" fill="#3F3F41"/>
<path d="M19.39 20.38H19.37V66.33H19.39V20.38Z" fill="#3C3C3E"/>
<path d="M19.41 20.38H19.39V66.33H19.41V20.38Z" fill="#3B3B3D"/>
<path d="M19.44 20.38H19.42V66.33H19.44V20.38Z" fill="#39383A"/>
<path d="M19.46 20.38H19.44V66.33H19.46V20.38Z" fill="#363638"/>
<path d="M19.47 20.38H19.45V66.33H19.47V20.38Z" fill="#353437"/>
<path d="M19.49 20.38H19.47V66.33H19.49V20.38Z" fill="#323134"/>
<path d="M19.52 20.38H19.5V66.33H19.52V20.38Z" fill="#313033"/>
<path d="M19.54 20.38H19.52V66.33H19.54V20.38Z" fill="#2F2E30"/>
<path d="M19.56 20.38H19.54V66.33H19.56V20.38Z" fill="#2B2A2D"/>
</g>
</g>
</g>
<g style="mix-blend-mode:darken">
<mask id="mask2_1_46" style="mask-type:luminance" maskUnits="userSpaceOnUse" x="18" y="15" width="9" height="47">
<path d="M19.52 16.08C19.45 16.1 19.39 16.11 19.32 16.15H19.29C19.24 16.17 19.17 16.18 19.14 16.22H19.11C18.99 16.27 18.91 16.34 18.83 16.4L18.8 16.42C18.8 16.42 18.73 16.49 18.7 16.52C18.67 16.55 18.63 16.6 18.6 16.64V16.66C18.6 16.66 18.57 16.73 18.55 16.76C18.55 16.76 18.55 16.78 18.53 16.79C18.51 16.84 18.5 16.87 18.48 16.92C18.48 16.95 18.48 16.97 18.46 17C18.14 18.17 19.11 20 18.96 21.03L19.56 60.49C21.32 60.31 22.76 60.49 23.83 60.64C24.38 60.72 25.65 61.01 26.89 61.33V17.34C22.89 16.05 20.7 15.78 19.56 16.08H19.53H19.52Z" fill="white"/>
</mask>
<g mask="url(#mask2_1_46)">
<path d="M18.41 13.8199H18.38V61.4099H18.41V13.8199Z" fill="#323134"/>
<path d="M18.45 13.8199H18.42V61.4099H18.45V13.8199Z" fill="#343335"/>
<path d="M18.5 13.8199H18.47V61.4099H18.5V13.8199Z" fill="#353437"/>
<path d="M18.53 13.8199H18.5V61.4099H18.53V13.8199Z" fill="#363638"/>
<path d="M18.58 13.8199H18.55V61.4099H18.58V13.8199Z" fill="#373739"/>
<path d="M18.61 13.8199H18.58V61.4099H18.61V13.8199Z" fill="#3A393C"/>
<path d="M18.66 13.8199H18.63V61.4099H18.66V13.8199Z" fill="#3B3B3D"/>
<path d="M18.7 13.8199H18.67V61.4099H18.7V13.8199Z" fill="#3C3C3E"/>
<path d="M18.73 13.8199H18.7V61.4099H18.73V13.8199Z" fill="#3D3D3F"/>
<path d="M18.78 13.8199H18.75V61.4099H18.78V13.8199Z" fill="#3F3F41"/>
<path d="M18.82 13.8199H18.79V61.4099H18.82V13.8199Z" fill="#414143"/>
<path d="M18.85 13.8199H18.82V61.4099H18.85V13.8199Z" fill="#444245"/>
<path d="M18.92 13.8199H18.87V61.4099H18.92V13.8199Z" fill="#444346"/>
<path d="M18.93 13.8199H18.9V61.4099H18.93V13.8199Z" fill="#454547"/>
<path d="M18.98 13.8199H18.95V61.4099H18.98V13.8199Z" fill="#474749"/>
<path d="M19.02 13.8199H18.99V61.4099H19.02V13.8199Z" fill="#474749"/>
<path d="M19.07 13.8199H19.02V61.4099H19.07V13.8199Z" fill="#49494B"/>
<path d="M19.1 13.8199H19.07V61.4099H19.1V13.8199Z" fill="#49494B"/>
<path d="M19.13 13.8199H19.1V61.4099H19.13V13.8199Z" fill="#4C4C4D"/>
<path d="M19.17 13.8199H19.14V61.4099H19.17V13.8199Z" fill="#4D4D4F"/>
<path d="M19.22 13.8199H19.19V61.4099H19.22V13.8199Z" fill="#4E4D50"/>
<path d="M19.25 13.8199H19.22V61.4099H19.25V13.8199Z" fill="#4F4F51"/>
<path d="M19.3 13.8199H19.27V61.4099H19.3V13.8199Z" fill="#4F4F51"/>
<path d="M19.33 13.8199H19.3V61.4099H19.33V13.8199Z" fill="#515253"/>
<path d="M19.37 13.8199H19.34V61.4099H19.37V13.8199Z" fill="#525354"/>
<path d="M19.42 13.8199H19.39V61.4099H19.42V13.8199Z" fill="#545455"/>
<path d="M19.45 13.8199H19.42V61.4099H19.45V13.8199Z" fill="#545557"/>
<path d="M19.5 13.8199H19.47V61.4099H19.5V13.8199Z" fill="#565658"/>
<path d="M19.55 13.8199H19.5V61.4099H19.55V13.8199Z" fill="#575758"/>
<path d="M19.57 13.8199H19.54V61.4099H19.57V13.8199Z" fill="#59585A"/>
<path d="M19.62 13.8199H19.59V61.4099H19.62V13.8199Z" fill="#59595B"/>
<path d="M19.65 13.8199H19.62V61.4099H19.65V13.8199Z" fill="#5B5B5D"/>
<path d="M19.7 13.8199H19.67V61.4099H19.7V13.8199Z" fill="#5C5C5E"/>
<path d="M19.74 13.8199H19.71V61.4099H19.74V13.8199Z" fill="#5E5E5F"/>
<path d="M19.77 13.8199H19.74V61.4099H19.77V13.8199Z" fill="#5E5F60"/>
<path d="M19.82 13.8199H19.79V61.4099H19.82V13.8199Z" fill="#5F6062"/>
<path d="M19.85 13.8199H19.82V61.4099H19.85V13.8199Z" fill="#5F6162"/>
<path d="M19.89 13.8199H19.86V61.4099H19.89V13.8199Z" fill="#616264"/>
<path d="M19.94 13.8199H19.91V61.4099H19.94V13.8199Z" fill="#626264"/>
<path d="M19.97 13.8199H19.94V61.4099H19.97V13.8199Z" fill="#636465"/>
<path d="M20.02 13.8199H19.99V61.4099H20.02V13.8199Z" fill="#646667"/>
<path d="M20.05 13.8199H20.02V61.4099H20.05V13.8199Z" fill="#656668"/>
<path d="M20.09 13.8199H20.06V61.4099H20.09V13.8199Z" fill="#66686A"/>
<path d="M20.14 13.8199H20.11V61.4099H20.14V13.8199Z" fill="#68696B"/>
<path d="M20.17 13.8199H20.14V61.4099H20.17V13.8199Z" fill="#696B6C"/>
<path d="M20.22 13.8199H20.19V61.4099H20.22V13.8199Z" fill="#6A6B6D"/>
<path d="M20.25 13.8199H20.22V61.4099H20.25V13.8199Z" fill="#6C6D6E"/>
<path d="M20.29 13.8199H20.26V61.4099H20.29V13.8199Z" fill="#6D6D6F"/>
<path d="M20.34 13.8199H20.31V61.4099H20.34V13.8199Z" fill="#6D6D70"/>
<path d="M20.39 13.8199H20.34V61.4099H20.39V13.8199Z" fill="#6D6F71"/>
<path d="M20.42 13.8199H20.39V61.4099H20.42V13.8199Z" fill="#6F7072"/>
<path d="M20.45 13.8199H20.42V61.4099H20.45V13.8199Z" fill="#707173"/>
<path d="M20.49 13.8199H20.46V61.4099H20.49V13.8199Z" fill="#737376"/>
<path d="M20.54 13.8199H20.51V61.4099H20.54V13.8199Z" fill="#737476"/>
<path d="M20.57 13.8199H20.54V61.4099H20.57V13.8199Z" fill="#737576"/>
<path d="M20.62 13.8199H20.59V61.4099H20.62V13.8199Z" fill="#757678"/>
<path d="M20.66 13.8199H20.63V61.4099H20.66V13.8199Z" fill="#767779"/>
<path d="M20.69 13.8199H20.66V61.4099H20.69V13.8199Z" fill="#78797B"/>
<path d="M20.74 13.8199H20.71V61.4099H20.74V13.8199Z" fill="#79797A"/>
<path d="M20.77 13.8199H20.74V61.4099H20.77V13.8199Z" fill="#797A7C"/>
<path d="M20.81 13.8199H20.78V61.4099H20.81V13.8199Z" fill="#797B7D"/>
<path d="M20.88 13.8199H20.83V61.4099H20.88V13.8199Z" fill="#7A7C7D"/>
<path d="M20.89 13.8199H20.86V61.4099H20.89V13.8199Z" fill="#7C7E7F"/>
<path d="M20.94 13.8199H20.91V61.4099H20.94V13.8199Z" fill="#7D7E80"/>
<path d="M20.97 13.8199H20.94V61.4099H20.97V13.8199Z" fill="#7E7F80"/>
<path d="M21.01 13.8199H20.98V61.4099H21.01V13.8199Z" fill="#808080"/>
<path d="M21.06 13.8199H21.03V61.4099H21.06V13.8199Z" fill="#808081"/>
<path d="M21.09 13.8199H21.06V61.4099H21.09V13.8199Z" fill="#808181"/>
<path d="M21.14 13.8199H21.11V61.4099H21.14V13.8199Z" fill="#808183"/>
<path d="M21.17 13.8199H21.14V61.4099H21.17V13.8199Z" fill="#808283"/>
<path d="M21.21 13.8199H21.18V61.4099H21.21V13.8199Z" fill="#828385"/>
<path d="M21.26 13.8199H21.23V61.4099H21.26V13.8199Z" fill="#848486"/>
<path d="M21.29 13.8199H21.26V61.4099H21.29V13.8199Z" fill="#858587"/>
<path d="M21.34 13.8199H21.31V61.4099H21.34V13.8199Z" fill="#848688"/>
<path d="M21.37 13.8199H21.34V61.4099H21.37V13.8199Z" fill="#858789"/>
<path d="M21.41 13.8199H21.38V61.4099H21.41V13.8199Z" fill="#868789"/>
<path d="M21.46 13.8199H21.43V61.4099H21.46V13.8199Z" fill="#88888A"/>
<path d="M21.49 13.8199H21.46V61.4099H21.49V13.8199Z" fill="#8A8B8D"/>
<path d="M21.53 13.8199H21.5V61.4099H21.53V13.8199Z" fill="#8B8B8D"/>
<path d="M21.58 13.8199H21.55V61.4099H21.58V13.8199Z" fill="#8D8D8F"/>
<path d="M21.61 13.8199H21.58V61.4099H21.61V13.8199Z" fill="#8B8D8F"/>
<path d="M21.66 13.8199H21.63V61.4099H21.66V13.8199Z" fill="#8D8F90"/>
<path d="M21.69 13.8199H21.66V61.4099H21.69V13.8199Z" fill="#8D8F91"/>
<path d="M21.73 13.8199H21.7V61.4099H21.73V13.8199Z" fill="#8D8F91"/>
<path d="M21.78 13.8199H21.75V61.4099H21.78V13.8199Z" fill="#8F9092"/>
<path d="M21.81 13.8199H21.78V61.4099H21.81V13.8199Z" fill="#919194"/>
<path d="M21.86 13.8199H21.83V61.4099H21.86V13.8199Z" fill="#919294"/>
<path d="M21.89 13.8199H21.86V61.4099H21.89V13.8199Z" fill="#929394"/>
<path d="M21.93 13.8199H21.9V61.4099H21.93V13.8199Z" fill="#939496"/>
<path d="M21.98 13.8199H21.95V61.4099H21.98V13.8199Z" fill="#959596"/>
<path d="M22.01 13.8199H21.98V61.4099H22.01V13.8199Z" fill="#949698"/>
<path d="M22.08 13.8199H22.03V61.4099H22.08V13.8199Z" fill="#969799"/>
<path d="M22.09 13.8199H22.06V61.4099H22.09V13.8199Z" fill="#97989A"/>
<path d="M22.13 13.8199H22.1V61.4099H22.13V13.8199Z" fill="#97999B"/>
<path d="M22.2 13.8199H22.15V61.4099H22.2V13.8199Z" fill="#989A9A"/>
<path d="M22.21 13.8199H22.18V61.4099H22.21V13.8199Z" fill="#98999C"/>
<path d="M22.24 13.8199H22.21V61.4099H22.24V13.8199Z" fill="#999A9C"/>
<path d="M22.29 13.8199H22.26V61.4099H22.29V13.8199Z" fill="#9D9EA0"/>
<path d="M22.33 13.8199H22.3V61.4099H22.33V13.8199Z" fill="#9D9EA1"/>
<path d="M22.38 13.8199H22.35V61.4099H22.38V13.8199Z" fill="#9D9FA0"/>
<path d="M22.41 13.8199H22.38V61.4099H22.41V13.8199Z" fill="#9E9FA2"/>
<path d="M22.46 13.8199H22.43V61.4099H22.46V13.8199Z" fill="#9FA1A3"/>
<path d="M22.5 13.8199H22.47V61.4099H22.5V13.8199Z" fill="#A0A1A3"/>
<path d="M22.53 13.8199H22.5V61.4099H22.53V13.8199Z" fill="#A1A2A4"/>
<path d="M22.58 13.8199H22.55V61.4099H22.58V13.8199Z" fill="#A1A3A5"/>
<path d="M22.61 13.8199H22.58V61.4099H22.61V13.8199Z" fill="#A2A4A5"/>
<path d="M22.65 13.8199H22.62V61.4099H22.65V13.8199Z" fill="#A4A5A6"/>
<path d="M22.7 13.8199H22.67V61.4099H22.7V13.8199Z" fill="#A4A5A7"/>
<path d="M22.73 13.8199H22.7V61.4099H22.73V13.8199Z" fill="#A5A6A9"/>
<path d="M22.78 13.8199H22.75V61.4099H22.78V13.8199Z" fill="#A7A8AA"/>
<path d="M22.81 13.8199H22.78V61.4099H22.81V13.8199Z" fill="#A8A9AB"/>
<path d="M22.85 13.8199H22.82V61.4099H22.85V13.8199Z" fill="#A8A9AC"/>
<path d="M22.9 13.8199H22.87V61.4099H22.9V13.8199Z" fill="#AAABAD"/>
<path d="M22.93 13.8199H22.9V61.4099H22.93V13.8199Z" fill="#ABACAE"/>
<path d="M22.96 13.8199H22.93V61.4099H22.96V13.8199Z" fill="#ABACAD"/>
<path d="M23.01 13.8199H22.98V61.4099H23.01V13.8199Z" fill="#ACADAE"/>
<path d="M23.05 13.8199H23.02V61.4099H23.05V13.8199Z" fill="#ADAEB0"/>
<path d="M23.1 13.8199H23.07V61.4099H23.1V13.8199Z" fill="#ADAEB1"/>
<path d="M23.13 13.8199H23.1V61.4099H23.13V13.8199Z" fill="#AFB0B2"/>
<path d="M23.18 13.8199H23.15V61.4099H23.18V13.8199Z" fill="#AFB1B2"/>
<path d="M23.22 13.8199H23.19V61.4099H23.22V13.8199Z" fill="#B1B2B3"/>
<path d="M23.25 13.8199H23.22V61.4099H23.25V13.8199Z" fill="#B1B1B4"/>
<path d="M23.3 13.8199H23.27V61.4099H23.3V13.8199Z" fill="#B1B2B4"/>
<path d="M23.33 13.8199H23.3V61.4099H23.33V13.8199Z" fill="#B2B4B6"/>
<path d="M23.37 13.8199H23.34V61.4099H23.37V13.8199Z" fill="#B4B4B5"/>
<path d="M23.42 13.8199H23.39V61.4099H23.42V13.8199Z" fill="#B4B6B7"/>
<path d="M23.45 13.8199H23.42V61.4099H23.45V13.8199Z" fill="#B5B5B8"/>
<path d="M23.5 13.8199H23.47V61.4099H23.5V13.8199Z" fill="#B6B6B8"/>
<path d="M23.53 13.8199H23.5V61.4099H23.53V13.8199Z" fill="#B7B8BA"/>
<path d="M23.57 13.8199H23.54V61.4099H23.57V13.8199Z" fill="#B8B8B9"/>
<path d="M23.62 13.8199H23.59V61.4099H23.62V13.8199Z" fill="#B7B9BA"/>
<path d="M23.65 13.8199H23.62V61.4099H23.65V13.8199Z" fill="#B8B9BC"/>
<path d="M23.7 13.8199H23.67V61.4099H23.7V13.8199Z" fill="#B9BABC"/>
<path d="M23.73 13.8199H23.7V61.4099H23.73V13.8199Z" fill="#BBBCBD"/>
<path d="M23.77 13.8199H23.74V61.4099H23.77V13.8199Z" fill="#BBBCBD"/>
<path d="M23.82 13.8199H23.79V61.4099H23.82V13.8199Z" fill="#BBBDBE"/>
<path d="M23.85 13.8199H23.82V61.4099H23.85V13.8199Z" fill="#BDBDBF"/>
<path d="M23.9 13.8199H23.87V61.4099H23.9V13.8199Z" fill="#BEC0C0"/>
<path d="M23.93 13.8199H23.9V61.4099H23.93V13.8199Z" fill="#BEC0C1"/>
<path d="M23.97 13.8199H23.94V61.4099H23.97V13.8199Z" fill="#BFC0C2"/>
<path d="M24.04 13.8199H23.99V61.4099H24.04V13.8199Z" fill="#C2C1C3"/>
<path d="M24.05 13.8199H24.02V61.4099H24.05V13.8199Z" fill="#C2C2C4"/>
<path d="M24.1 13.8199H24.07V61.4099H24.1V13.8199Z" fill="#C2C2C3"/>
<path d="M24.14 13.8199H24.11V61.4099H24.14V13.8199Z" fill="#C2C4C5"/>
<path d="M24.17 13.8199H24.14V61.4099H24.17V13.8199Z" fill="#C4C4C6"/>
<path d="M24.22 13.8199H24.19V61.4099H24.22V13.8199Z" fill="#C4C4C6"/>
<path d="M24.25 13.8199H24.22V61.4099H24.25V13.8199Z" fill="#C5C5C7"/>
<path d="M24.29 13.8199H24.26V61.4099H24.29V13.8199Z" fill="#C5C6C6"/>
<path d="M24.34 13.8199H24.31V61.4099H24.34V13.8199Z" fill="#C6C7C9"/>
<path d="M24.37 13.8199H24.34V61.4099H24.37V13.8199Z" fill="#C7C8CA"/>
<path d="M24.42 13.8199H24.39V61.4099H24.42V13.8199Z" fill="#C9C9CA"/>
<path d="M24.45 13.8199H24.42V61.4099H24.45V13.8199Z" fill="#C9C9CA"/>
<path d="M24.49 13.8199H24.46V61.4099H24.49V13.8199Z" fill="#C9CACB"/>
<path d="M24.54 13.8199H24.51V61.4099H24.54V13.8199Z" fill="#C9CACB"/>
<path d="M24.57 13.8199H24.54V61.4099H24.57V13.8199Z" fill="#CACBCD"/>
<path d="M24.62 13.8199H24.59V61.4099H24.62V13.8199Z" fill="#CCCDCE"/>
<path d="M24.65 13.8199H24.62V61.4099H24.65V13.8199Z" fill="#CCCDCE"/>
<path d="M24.69 13.8199H24.66V61.4099H24.69V13.8199Z" fill="#CDCECF"/>
<path d="M24.74 13.8199H24.71V61.4099H24.74V13.8199Z" fill="#CECFD1"/>
<path d="M24.77 13.8199H24.74V61.4099H24.77V13.8199Z" fill="#CECFD0"/>
<path d="M24.8 13.8199H24.77V61.4099H24.8V13.8199Z" fill="#D0D1D2"/>
<path d="M24.85 13.8199H24.82V61.4099H24.85V13.8199Z" fill="#D1D2D2"/>
<path d="M24.89 13.8199H24.86V61.4099H24.89V13.8199Z" fill="#D1D2D3"/>
<path d="M24.94 13.8199H24.91V61.4099H24.94V13.8199Z" fill="#D2D3D3"/>
<path d="M24.97 13.8199H24.94V61.4099H24.97V13.8199Z" fill="#D4D4D4"/>
<path d="M25 13.8199H24.97V61.4099H25V13.8199Z" fill="#D4D5D5"/>
<path d="M25.06 13.8199H25.03V61.4099H25.06V13.8199Z" fill="#D4D5D5"/>
<path d="M25.09 13.8199H25.06V61.4099H25.09V13.8199Z" fill="#D4D6D7"/>
<path d="M25.14 13.8199H25.11V61.4099H25.14V13.8199Z" fill="#D5D6D7"/>
<path d="M25.17 13.8199H25.14V61.4099H25.17V13.8199Z" fill="#D5D6D7"/>
<path d="M25.21 13.8199H25.18V61.4099H25.21V13.8199Z" fill="#D7D7D8"/>
<path d="M25.28 13.8199H25.23V61.4099H25.28V13.8199Z" fill="#D7D8D9"/>
<path d="M25.29 13.8199H25.26V61.4099H25.29V13.8199Z" fill="#D7D8D9"/>
<path d="M25.34 13.8199H25.31V61.4099H25.34V13.8199Z" fill="#D8DADA"/>
<path d="M25.37 13.8199H25.34V61.4099H25.37V13.8199Z" fill="#DBDBDC"/>
<path d="M25.41 13.8199H25.38V61.4099H25.41V13.8199Z" fill="#DBDBDC"/>
<path d="M25.46 13.8199H25.43V61.4099H25.46V13.8199Z" fill="#DBDBDC"/>
<path d="M25.49 13.8199H25.46V61.4099H25.49V13.8199Z" fill="#DBDCDD"/>
<path d="M25.54 13.8199H25.51V61.4099H25.54V13.8199Z" fill="#DCDDDE"/>
<path d="M25.57 13.8199H25.54V61.4099H25.57V13.8199Z" fill="#DFDEDE"/>
<path d="M25.61 13.8199H25.58V61.4099H25.61V13.8199Z" fill="#DFDEDE"/>
<path d="M25.66 13.8199H25.63V61.4099H25.66V13.8199Z" fill="#DDDFE0"/>
<path d="M25.69 13.8199H25.66V61.4099H25.69V13.8199Z" fill="#DFE0E0"/>
<path d="M25.72 13.8199H25.69V61.4099H25.72V13.8199Z" fill="#DFE0E1"/>
<path d="M25.77 13.8199H25.74V61.4099H25.77V13.8199Z" fill="#E0E0E1"/>
<path d="M25.81 13.8199H25.78V61.4099H25.81V13.8199Z" fill="#E0E1E1"/>
<path d="M25.86 13.8199H25.83V61.4099H25.86V13.8199Z" fill="#E1E2E3"/>
<path d="M25.89 13.8199H25.86V61.4099H25.89V13.8199Z" fill="#E3E4E3"/>
<path d="M25.92 13.8199H25.89V61.4099H25.92V13.8199Z" fill="#E4E4E5"/>
<path d="M25.98 13.8199H25.95V61.4099H25.98V13.8199Z" fill="#E4E4E5"/>
<path d="M26.01 13.8199H25.98V61.4099H26.01V13.8199Z" fill="#E3E4E5"/>
<path d="M26.04 13.8199H26.01V61.4099H26.04V13.8199Z" fill="#E4E5E5"/>
<path d="M26.09 13.8199H26.06V61.4099H26.09V13.8199Z" fill="#E7E6E6"/>
<path d="M26.13 13.8199H26.1V61.4099H26.13V13.8199Z" fill="#E7E6E7"/>
<path d="M26.18 13.8199H26.15V61.4099H26.18V13.8199Z" fill="#E7E7E7"/>
<path d="M26.21 13.8199H26.18V61.4099H26.21V13.8199Z" fill="#E7E9E8"/>
<path d="M26.26 13.8199H26.23V61.4099H26.26V13.8199Z" fill="#E7E9E8"/>
<path d="M26.29 13.8199H26.26V61.4099H26.29V13.8199Z" fill="#E8E8E9"/>
<path d="M26.33 13.8199H26.3V61.4099H26.33V13.8199Z" fill="#E9E9EA"/>
<path d="M26.38 13.8199H26.35V61.4099H26.38V13.8199Z" fill="#E9EAEA"/>
<path d="M26.41 13.8199H26.38V61.4099H26.41V13.8199Z" fill="#EBEBEA"/>
<path d="M26.44 13.8199H26.41V61.4099H26.44V13.8199Z" fill="#EBEBEA"/>
<path d="M26.49 13.8199H26.46V61.4099H26.49V13.8199Z" fill="#EBEBEC"/>
<path d="M26.53 13.8199H26.5V61.4099H26.53V13.8199Z" fill="#ECECEC"/>
<path d="M26.58 13.8199H26.55V61.4099H26.58V13.8199Z" fill="#EDEEED"/>
<path d="M26.61 13.8199H26.58V61.4099H26.61V13.8199Z" fill="#EFEDEE"/>
<path d="M26.64 13.8199H26.61V61.4099H26.64V13.8199Z" fill="#EFEDEE"/>
<path d="M26.69 13.8199H26.66V61.4099H26.69V13.8199Z" fill="#EFEFEF"/>
<path d="M26.73 13.8199H26.7V61.4099H26.73V13.8199Z" fill="#EFEFEF"/>
<path d="M26.76 13.8199H26.73V61.4099H26.76V13.8199Z" fill="#F0F0F0"/>
<path d="M26.81 13.8199H26.78V61.4099H26.81V13.8199Z" fill="#F1F1F1"/>
<path d="M26.84 13.8199H26.81V61.4099H26.84V13.8199Z" fill="#F1F1F1"/>
<path d="M26.9 13.8199H26.87V61.4099H26.9V13.8199Z" fill="#F3F2F2"/>
</g>
</g>
<g style="mix-blend-mode:darken">
<mask id="mask3_1_46" style="mask-type:luminance" maskUnits="userSpaceOnUse" x="35" y="20" width="9" height="45">
<path d="M43.28 22.02C43.11 22.37 42.73 22.57 41.89 22.52C40.72 22.45 38.68 21.9 35.2 20.58V64.09C37.27 64.69 38.83 64.91 40 64.91C42.06 64.91 42.93 64.24 43.33 63.94C43.9 63.5 43.92 62.23 43.92 62.08V61.23L43.28 21.99V22.02Z" fill="white"/>
</mask>
<g mask="url(#mask3_1_46)">
<path d="M38.56 21.0499H38.54V66.4499H38.56V21.0499Z" fill="white"/>
<path d="M38.58 21.0499H38.56V66.4499H38.58V21.0499Z" fill="white"/>
<path d="M38.61 21.0499H38.59V66.4499H38.61V21.0499Z" fill="white"/>
<path d="M38.63 21.0499H38.61V66.4499H38.63V21.0499Z" fill="white"/>
<path d="M38.64 21.0499H38.62V66.4499H38.64V21.0499Z" fill="white"/>
<path d="M38.68 21.0499H38.66V66.4499H38.68V21.0499Z" fill="white"/>
<path d="M38.7 21.0499H38.68V66.4499H38.7V21.0499Z" fill="white"/>
<path d="M38.73 21.0499H38.71V66.4499H38.73V21.0499Z" fill="white"/>
<path d="M38.75 21.0499H38.73V66.4499H38.75V21.0499Z" fill="white"/>
<path d="M38.76 21.0499H38.74V66.4499H38.76V21.0499Z" fill="white"/>
<path d="M38.8 21.0499H38.78V66.4499H38.8V21.0499Z" fill="white"/>
<path d="M38.81 21.0499H38.79V66.4499H38.81V21.0499Z" fill="white"/>
<path d="M38.84 21.0499H38.81V66.4499H38.84V21.0499Z" fill="white"/>
<path d="M38.86 21.0499H38.84V66.4499H38.86V21.0499Z" fill="white"/>
<path d="M38.88 21.0499H38.86V66.4499H38.88V21.0499Z" fill="white"/>
<path d="M38.91 21.0499H38.89V66.4499H38.91V21.0499Z" fill="white"/>
<path d="M38.93 21.0499H38.91V66.4499H38.93V21.0499Z" fill="white"/>
<path d="M38.95 21.0499H38.93V66.4499H38.95V21.0499Z" fill="white"/>
<path d="M38.98 21.0499H38.96V66.4499H38.98V21.0499Z" fill="white"/>
<path d="M39 21.0499H38.98V66.4499H39V21.0499Z" fill="white"/>
<path d="M39.01 21.0499H38.99V66.4499H39.01V21.0499Z" fill="white"/>
<path d="M39.05 21.0499H39.03V66.4499H39.05V21.0499Z" fill="white"/>
<path d="M39.06 21.0499H39.04V66.4499H39.06V21.0499Z" fill="#FAFDFF"/>
<path d="M39.08 21.0499H39.06V66.4499H39.08V21.0499Z" fill="#FAFDFF"/>
<path d="M39.11 21.0499H39.09V66.4499H39.11V21.0499Z" fill="#FAFDFF"/>
<path d="M39.13 21.0499H39.11V66.4499H39.13V21.0499Z" fill="#F9F9FC"/>
<path d="M39.16 21.0499H39.14V66.4499H39.16V21.0499Z" fill="#F9F9FC"/>
<path d="M39.18 21.0499H39.16V66.4499H39.18V21.0499Z" fill="#F9F9FC"/>
<path d="M39.2 21.0499H39.18V66.4499H39.2V21.0499Z" fill="#F9F9F9"/>
<path d="M39.23 21.0499H39.21V66.4499H39.23V21.0499Z" fill="#F9F9F9"/>
<path d="M39.25 21.0499H39.23V66.4499H39.25V21.0499Z" fill="#F7F8F9"/>
<path d="M39.26 21.0499H39.24V66.4499H39.26V21.0499Z" fill="#F7F8F9"/>
<path d="M39.3 21.0499H39.28V66.4499H39.3V21.0499Z" fill="#F7F8F9"/>
<path d="M39.31 21.0499H39.29V66.4499H39.31V21.0499Z" fill="#F7F7F7"/>
<path d="M39.35 21.0499H39.33V66.4499H39.35V21.0499Z" fill="#F7F7F7"/>
<path d="M39.36 21.0499H39.34V66.4499H39.36V21.0499Z" fill="#F8F8F8"/>
<path d="M39.39 21.0499H39.36V66.4499H39.39V21.0499Z" fill="#F8F8F8"/>
<path d="M39.41 21.0499H39.39V66.4499H39.41V21.0499Z" fill="#F7F7F7"/>
<path d="M39.43 21.0499H39.41V66.4499H39.43V21.0499Z" fill="#F7F7F7"/>
<path d="M39.45 21.0499H39.43V66.4499H39.45V21.0499Z" fill="#F5F5F5"/>
<path d="M39.48 21.0499H39.46V66.4499H39.48V21.0499Z" fill="#F5F5F5"/>
<path d="M39.5 21.0499H39.48V66.4499H39.5V21.0499Z" fill="#F4F5F5"/>
<path d="M39.51 21.0499H39.49V66.4499H39.51V21.0499Z" fill="#F4F5F5"/>
<path d="M39.55 21.0499H39.53V66.4499H39.55V21.0499Z" fill="#F4F5F5"/>
<path d="M39.56 21.0499H39.54V66.4499H39.56V21.0499Z" fill="#F4F5F5"/>
<path d="M39.6 21.0499H39.58V66.4499H39.6V21.0499Z" fill="#F3F4F5"/>
<path d="M39.62 21.0499H39.6V66.4499H39.62V21.0499Z" fill="#F3F4F5"/>
<path d="M39.63 21.0499H39.61V66.4499H39.63V21.0499Z" fill="#F3F2F4"/>
<path d="M39.67 21.0499H39.65V66.4499H39.67V21.0499Z" fill="#F3F2F4"/>
<path d="M39.68 21.0499H39.66V66.4499H39.68V21.0499Z" fill="#F1F3F3"/>
<path d="M39.7 21.0499H39.68V66.4499H39.7V21.0499Z" fill="#F1F3F3"/>
<path d="M39.73 21.0499H39.71V66.4499H39.73V21.0499Z" fill="#F3F2F2"/>
<path d="M39.75 21.0499H39.73V66.4499H39.75V21.0499Z" fill="#F3F2F2"/>
<path d="M39.78 21.0499H39.76V66.4499H39.78V21.0499Z" fill="#F1F1F1"/>
<path d="M39.8 21.0499H39.78V66.4499H39.8V21.0499Z" fill="#F0F0F0"/>
<path d="M39.82 21.0499H39.8V66.4499H39.82V21.0499Z" fill="#F0F0F0"/>
<path d="M39.85 21.0499H39.83V66.4499H39.85V21.0499Z" fill="#EFEFEF"/>
<path d="M39.87 21.0499H39.85V66.4499H39.87V21.0499Z" fill="#EFEFEF"/>
<path d="M39.88 21.0499H39.86V66.4499H39.88V21.0499Z" fill="#EFEFEF"/>
<path d="M39.92 21.0499H39.9V66.4499H39.92V21.0499Z" fill="#EFEDEE"/>
<path d="M39.93 21.0499H39.91V66.4499H39.93V21.0499Z" fill="#EFEDEE"/>
<path d="M39.96 21.0499H39.93V66.4499H39.96V21.0499Z" fill="#EDEEED"/>
<path d="M39.98 21.0499H39.96V66.4499H39.98V21.0499Z" fill="#ECECEC"/>
<path d="M40 21.0499H39.98V66.4499H40V21.0499Z" fill="#ECECEC"/>
<path d="M40.03 21.0499H40.01V66.4499H40.03V21.0499Z" fill="#EBEBEC"/>
<path d="M40.05 21.0499H40.03V66.4499H40.05V21.0499Z" fill="#EBEBEA"/>
<path d="M40.07 21.0499H40.05V66.4499H40.07V21.0499Z" fill="#EBEBEA"/>
<path d="M40.1 21.0499H40.08V66.4499H40.1V21.0499Z" fill="#E9EAEA"/>
<path d="M40.12 21.0499H40.1V66.4499H40.12V21.0499Z" fill="#E9E9EA"/>
<path d="M40.13 21.0499H40.11V66.4499H40.13V21.0499Z" fill="#E9E9EA"/>
<path d="M40.17 21.0499H40.15V66.4499H40.17V21.0499Z" fill="#E8E8E9"/>
<path d="M40.18 21.0499H40.16V66.4499H40.18V21.0499Z" fill="#E7E9E8"/>
<path d="M40.22 21.0499H40.2V66.4499H40.22V21.0499Z" fill="#E7E9E8"/>
<path d="M40.23 21.0499H40.21V66.4499H40.23V21.0499Z" fill="#E7E7E7"/>
<path d="M40.25 21.0499H40.23V66.4499H40.25V21.0499Z" fill="#E7E6E7"/>
<path d="M40.28 21.0499H40.26V66.4499H40.28V21.0499Z" fill="#E7E6E6"/>
<path d="M40.3 21.0499H40.28V66.4499H40.3V21.0499Z" fill="#E4E5E5"/>
<path d="M40.32 21.0499H40.3V66.4499H40.32V21.0499Z" fill="#E4E5E5"/>
<path d="M40.36 21.0499H40.33V66.4499H40.36V21.0499Z" fill="#E3E4E5"/>
<path d="M40.37 21.0499H40.35V66.4499H40.37V21.0499Z" fill="#E4E4E5"/>
<path d="M40.39 21.0499H40.36V66.4499H40.39V21.0499Z" fill="#E3E4E3"/>
<path d="M40.42 21.0499H40.4V66.4499H40.42V21.0499Z" fill="#E3E4E3"/>
<path d="M40.43 21.0499H40.41V66.4499H40.43V21.0499Z" fill="#E1E2E3"/>
<path d="M40.47 21.0499H40.45V66.4499H40.47V21.0499Z" fill="#E0E1E1"/>
<path d="M40.49 21.0499H40.47V66.4499H40.49V21.0499Z" fill="#E0E0E1"/>
<path d="M40.5 21.0499H40.48V66.4499H40.5V21.0499Z" fill="#E0E0E1"/>
<path d="M40.54 21.0499H40.52V66.4499H40.54V21.0499Z" fill="#DFE0E1"/>
<path d="M40.56 21.0499H40.53V66.4499H40.56V21.0499Z" fill="#DFE0E0"/>
<path d="M40.57 21.0499H40.55V66.4499H40.57V21.0499Z" fill="#DDDFE0"/>
<path d="M40.6 21.0499H40.58V66.4499H40.6V21.0499Z" fill="#DFDEDE"/>
<path d="M40.62 21.0499H40.6V66.4499H40.62V21.0499Z" fill="#DCDDDE"/>
<path d="M40.65 21.0499H40.63V66.4499H40.65V21.0499Z" fill="#DCDDDE"/>
<path d="M40.67 21.0499H40.65V66.4499H40.67V21.0499Z" fill="#DBDCDD"/>
<path d="M40.69 21.0499H40.67V66.4499H40.69V21.0499Z" fill="#DBDBDC"/>
<path d="M40.72 21.0499H40.7V66.4499H40.72V21.0499Z" fill="#DBDBDC"/>
<path d="M40.74 21.0499H40.72V66.4499H40.74V21.0499Z" fill="#DBDBDC"/>
<path d="M40.75 21.0499H40.73V66.4499H40.75V21.0499Z" fill="#D8DADA"/>
<path d="M40.79 21.0499H40.77V66.4499H40.79V21.0499Z" fill="#D7D8D9"/>
<path d="M40.8 21.0499H40.78V66.4499H40.8V21.0499Z" fill="#D7D8D9"/>
<path d="M40.82 21.0499H40.8V66.4499H40.82V21.0499Z" fill="#D7D7D8"/>
<path d="M40.85 21.0499H40.83V66.4499H40.85V21.0499Z" fill="#D7D7D8"/>
<path d="M40.87 21.0499H40.85V66.4499H40.87V21.0499Z" fill="#D5D6D7"/>
<path d="M40.9 21.0499H40.88V66.4499H40.9V21.0499Z" fill="#D4D6D7"/>
<path d="M40.92 21.0499H40.9V66.4499H40.92V21.0499Z" fill="#D4D5D5"/>
<path d="M40.94 21.0499H40.92V66.4499H40.94V21.0499Z" fill="#D4D5D5"/>
<path d="M40.97 21.0499H40.95V66.4499H40.97V21.0499Z" fill="#D4D4D4"/>
<path d="M40.99 21.0499H40.97V66.4499H40.99V21.0499Z" fill="#D2D3D3"/>
<path d="M41 21.0499H40.98V66.4499H41V21.0499Z" fill="#D1D2D3"/>
<path d="M41.04 21.0499H41.02V66.4499H41.04V21.0499Z" fill="#D1D2D2"/>
<path d="M41.05 21.0499H41.03V66.4499H41.05V21.0499Z" fill="#D0D1D2"/>
<path d="M41.09 21.0499H41.07V66.4499H41.09V21.0499Z" fill="#D0D1D2"/>
<path d="M41.1 21.0499H41.08V66.4499H41.1V21.0499Z" fill="#CECFD1"/>
<path d="M41.12 21.0499H41.1V66.4499H41.12V21.0499Z" fill="#CDCECF"/>
<path d="M41.15 21.0499H41.13V66.4499H41.15V21.0499Z" fill="#CCCDCE"/>
<path d="M41.17 21.0499H41.15V66.4499H41.17V21.0499Z" fill="#CCCDCE"/>
<path d="M41.19 21.0499H41.17V66.4499H41.19V21.0499Z" fill="#CCCDCE"/>
<path d="M41.22 21.0499H41.2V66.4499H41.22V21.0499Z" fill="#CACBCD"/>
<path d="M41.24 21.0499H41.22V66.4499H41.24V21.0499Z" fill="#C9CACB"/>
<path d="M41.25 21.0499H41.23V66.4499H41.25V21.0499Z" fill="#C9CACB"/>
<path d="M41.29 21.0499H41.27V66.4499H41.29V21.0499Z" fill="#C9C9CA"/>
<path d="M41.3 21.0499H41.28V66.4499H41.3V21.0499Z" fill="#C7C8CA"/>
<path d="M41.34 21.0499H41.32V66.4499H41.34V21.0499Z" fill="#C6C7C9"/>
<path d="M41.35 21.0499H41.33V66.4499H41.35V21.0499Z" fill="#C5C6C6"/>
<path d="M41.37 21.0499H41.35V66.4499H41.37V21.0499Z" fill="#C5C5C7"/>
<path d="M41.41 21.0499H41.39V66.4499H41.41V21.0499Z" fill="#C4C4C6"/>
<path d="M41.42 21.0499H41.4V66.4499H41.42V21.0499Z" fill="#C2C4C5"/>
<path d="M41.44 21.0499H41.42V66.4499H41.44V21.0499Z" fill="#C2C2C3"/>
<path d="M41.47 21.0499H41.45V66.4499H41.47V21.0499Z" fill="#C2C2C4"/>
<path d="M41.49 21.0499H41.47V66.4499H41.49V21.0499Z" fill="#C2C1C3"/>
<path d="M41.51 21.0499H41.49V66.4499H41.51V21.0499Z" fill="#BFC0C2"/>
<path d="M41.54 21.0499H41.52V66.4499H41.54V21.0499Z" fill="#BEC0C1"/>
<path d="M41.56 21.0499H41.54V66.4499H41.56V21.0499Z" fill="#BEC0C0"/>
<path d="M41.59 21.0499H41.57V66.4499H41.59V21.0499Z" fill="#BEBFC0"/>
<path d="M41.61 21.0499H41.59V66.4499H41.61V21.0499Z" fill="#BDBDBF"/>
<path d="M41.62 21.0499H41.6V66.4499H41.62V21.0499Z" fill="#BBBDBE"/>
<path d="M41.66 21.0499H41.64V66.4499H41.66V21.0499Z" fill="#BBBCBD"/>
<path d="M41.67 21.0499H41.65V66.4499H41.67V21.0499Z" fill="#BBBCBD"/>
<path d="M41.69 21.0499H41.67V66.4499H41.69V21.0499Z" fill="#B8B9BC"/>
<path d="M41.72 21.0499H41.7V66.4499H41.72V21.0499Z" fill="#B7B9BA"/>
<path d="M41.74 21.0499H41.72V66.4499H41.74V21.0499Z" fill="#B8B8B9"/>
<path d="M41.77 21.0499H41.75V66.4499H41.77V21.0499Z" fill="#B7B8BA"/>
<path d="M41.79 21.0499H41.77V66.4499H41.79V21.0499Z" fill="#B6B6B8"/>
<path d="M41.81 21.0499H41.79V66.4499H41.81V21.0499Z" fill="#B5B5B8"/>
<path d="M41.84 21.0499H41.82V66.4499H41.84V21.0499Z" fill="#B4B6B7"/>
<path d="M41.86 21.0499H41.84V66.4499H41.86V21.0499Z" fill="#B2B4B6"/>
<path d="M41.87 21.0499H41.85V66.4499H41.87V21.0499Z" fill="#B1B2B4"/>
<path d="M41.91 21.0499H41.89V66.4499H41.91V21.0499Z" fill="#B1B1B4"/>
<path d="M41.92 21.0499H41.9V66.4499H41.92V21.0499Z" fill="#B1B2B3"/>
<path d="M41.96 21.0499H41.94V66.4499H41.96V21.0499Z" fill="#AFB1B2"/>
<path d="M41.97 21.0499H41.95V66.4499H41.97V21.0499Z" fill="#AFB0B2"/>
<path d="M41.99 21.0499H41.97V66.4499H41.99V21.0499Z" fill="#ADAEB1"/>
<path d="M42.02 21.0499H42V66.4499H42.02V21.0499Z" fill="#ACADAE"/>
<path d="M42.04 21.0499H42.02V66.4499H42.04V21.0499Z" fill="#ABACAD"/>
<path d="M42.06 21.0499H42.04V66.4499H42.06V21.0499Z" fill="#ABACAE"/>
<path d="M42.09 21.0499H42.07V66.4499H42.09V21.0499Z" fill="#AAABAD"/>
<path d="M42.11 21.0499H42.09V66.4499H42.11V21.0499Z" fill="#A8A9AC"/>
<path d="M42.12 21.0499H42.1V66.4499H42.12V21.0499Z" fill="#A7A8AA"/>
<path d="M42.16 21.0499H42.14V66.4499H42.16V21.0499Z" fill="#A5A8AA"/>
<path d="M42.17 21.0499H42.15V66.4499H42.17V21.0499Z" fill="#A5A6A9"/>
<path d="M42.21 21.0499H42.19V66.4499H42.21V21.0499Z" fill="#A4A5A7"/>
<path d="M42.22 21.0499H42.2V66.4499H42.22V21.0499Z" fill="#A2A4A5"/>
<path d="M42.24 21.0499H42.22V66.4499H42.24V21.0499Z" fill="#A1A3A5"/>
<path d="M42.27 21.0499H42.25V66.4499H42.27V21.0499Z" fill="#A1A2A4"/>
<path d="M42.29 21.0499H42.27V66.4499H42.29V21.0499Z" fill="#A0A1A3"/>
<path d="M42.31 21.0499H42.29V66.4499H42.31V21.0499Z" fill="#9E9FA2"/>
<path d="M42.34 21.0499H42.32V66.4499H42.34V21.0499Z" fill="#9D9FA0"/>
<path d="M42.36 21.0499H42.34V66.4499H42.36V21.0499Z" fill="#9D9EA1"/>
<path d="M42.39 21.0499H42.37V66.4499H42.39V21.0499Z" fill="#9D9EA0"/>
<path d="M42.41 21.0499H42.39V66.4499H42.41V21.0499Z" fill="#999A9C"/>
<path d="M42.43 21.0499H42.41V66.4499H42.43V21.0499Z" fill="#98999C"/>
<path d="M42.46 21.0499H42.44V66.4499H42.46V21.0499Z" fill="#989A9A"/>
<path d="M42.48 21.0499H42.46V66.4499H42.48V21.0499Z" fill="#97989A"/>
<path d="M42.49 21.0499H42.47V66.4499H42.49V21.0499Z" fill="#969799"/>
<path d="M42.53 21.0499H42.51V66.4499H42.53V21.0499Z" fill="#949698"/>
<path d="M42.54 21.0499H42.52V66.4499H42.54V21.0499Z" fill="#959596"/>
<path d="M42.58 21.0499H42.56V66.4499H42.58V21.0499Z" fill="#929394"/>
<path d="M42.59 21.0499H42.57V66.4499H42.59V21.0499Z" fill="#919395"/>
<path d="M42.61 21.0499H42.59V66.4499H42.61V21.0499Z" fill="#919294"/>
<path d="M42.64 21.0499H42.62V66.4499H42.64V21.0499Z" fill="#8F9092"/>
<path d="M42.66 21.0499H42.64V66.4499H42.66V21.0499Z" fill="#8D8F91"/>
<path d="M42.68 21.0499H42.66V66.4499H42.68V21.0499Z" fill="#8D8F91"/>
<path d="M42.71 21.0499H42.69V66.4499H42.71V21.0499Z" fill="#8B8D8F"/>
<path d="M42.73 21.0499H42.71V66.4499H42.73V21.0499Z" fill="#8D8D8F"/>
<path d="M42.74 21.0499H42.72V66.4499H42.74V21.0499Z" fill="#8B8B8D"/>
<path d="M42.78 21.0499H42.76V66.4499H42.78V21.0499Z" fill="#88898B"/>
<path d="M42.79 21.0499H42.77V66.4499H42.79V21.0499Z" fill="#88888A"/>
<path d="M42.83 21.0499H42.81V66.4499H42.83V21.0499Z" fill="#858789"/>
<path d="M42.84 21.0499H42.82V66.4499H42.84V21.0499Z" fill="#848688"/>
<path d="M42.86 21.0499H42.84V66.4499H42.86V21.0499Z" fill="#858587"/>
<path d="M42.89 21.0499H42.87V66.4499H42.89V21.0499Z" fill="#828385"/>
<path d="M42.91 21.0499H42.89V66.4499H42.91V21.0499Z" fill="#818285"/>
<path d="M42.93 21.0499H42.91V66.4499H42.93V21.0499Z" fill="#808283"/>
<path d="M42.96 21.0499H42.94V66.4499H42.96V21.0499Z" fill="#808181"/>
<path d="M42.98 21.0499H42.96V66.4499H42.98V21.0499Z" fill="#808081"/>
<path d="M42.99 21.0499H42.97V66.4499H42.99V21.0499Z" fill="#7E7F80"/>
<path d="M43.03 21.0499H43.01V66.4499H43.03V21.0499Z" fill="#7E7E80"/>
<path d="M43.04 21.0499H43.02V66.4499H43.04V21.0499Z" fill="#7D7E80"/>
<path d="M43.08 21.0499H43.06V66.4499H43.08V21.0499Z" fill="#7A7C7D"/>
<path d="M43.09 21.0499H43.07V66.4499H43.09V21.0499Z" fill="#797B7D"/>
<path d="M43.11 21.0499H43.09V66.4499H43.11V21.0499Z" fill="#79797A"/>
<path d="M43.14 21.0499H43.12V66.4499H43.14V21.0499Z" fill="#78797B"/>
<path d="M43.16 21.0499H43.14V66.4499H43.16V21.0499Z" fill="#767779"/>
<path d="M43.18 21.0499H43.16V66.4499H43.18V21.0499Z" fill="#757678"/>
<path d="M43.21 21.0499H43.19V66.4499H43.21V21.0499Z" fill="#737576"/>
<path d="M43.23 21.0499H43.21V66.4499H43.23V21.0499Z" fill="#737376"/>
<path d="M43.25 21.0499H43.23V66.4499H43.25V21.0499Z" fill="#707173"/>
<path d="M43.28 21.0499H43.26V66.4499H43.28V21.0499Z" fill="#6F7072"/>
<path d="M43.3 21.0499H43.28V66.4499H43.3V21.0499Z" fill="#6D6F71"/>
<path d="M43.33 21.0499H43.31V66.4499H43.33V21.0499Z" fill="#6D6D6F"/>
<path d="M43.35 21.0499H43.33V66.4499H43.35V21.0499Z" fill="#6C6D6E"/>
<path d="M43.36 21.0499H43.34V66.4499H43.36V21.0499Z" fill="#6A6B6D"/>
<path d="M43.41 21.0499H43.38V66.4499H43.41V21.0499Z" fill="#696B6C"/>
<path d="M43.41 21.0499H43.39V66.4499H43.41V21.0499Z" fill="#66686A"/>
<path d="M43.45 21.0499H43.43V66.4499H43.45V21.0499Z" fill="#656668"/>
<path d="M43.46 21.0499H43.44V66.4499H43.46V21.0499Z" fill="#636567"/>
<path d="M43.48 21.0499H43.46V66.4499H43.48V21.0499Z" fill="#636465"/>
<path d="M43.51 21.0499H43.49V66.4499H43.51V21.0499Z" fill="#616264"/>
<path d="M43.53 21.0499H43.51V66.4499H43.53V21.0499Z" fill="#5F6162"/>
<path d="M43.55 21.0499H43.53V66.4499H43.55V21.0499Z" fill="#5E5F60"/>
<path d="M43.58 21.0499H43.56V66.4499H43.58V21.0499Z" fill="#5E5E5F"/>
<path d="M43.6 21.0499H43.58V66.4499H43.6V21.0499Z" fill="#5C5C5E"/>
<path d="M43.61 21.0499H43.59V66.4499H43.61V21.0499Z" fill="#5B5B5D"/>
<path d="M43.65 21.0499H43.63V66.4499H43.65V21.0499Z" fill="#59585A"/>
<path d="M43.66 21.0499H43.64V66.4499H43.66V21.0499Z" fill="#58585A"/>
<path d="M43.7 21.0499H43.68V66.4499H43.7V21.0499Z" fill="#565658"/>
<path d="M43.71 21.0499H43.69V66.4499H43.71V21.0499Z" fill="#545557"/>
<path d="M43.73 21.0499H43.71V66.4499H43.73V21.0499Z" fill="#525354"/>
<path d="M43.76 21.0499H43.74V66.4499H43.76V21.0499Z" fill="#515253"/>
<path d="M43.78 21.0499H43.76V66.4499H43.78V21.0499Z" fill="#4F4F51"/>
<path d="M43.8 21.0499H43.78V66.4499H43.8V21.0499Z" fill="#4E4D50"/>
<path d="M43.83 21.0499H43.81V66.4499H43.83V21.0499Z" fill="#4D4D4F"/>
<path d="M43.85 21.0499H43.83V66.4499H43.85V21.0499Z" fill="#4B4B4D"/>
<path d="M43.86 21.0499H43.84V66.4499H43.86V21.0499Z" fill="#49494B"/>
<path d="M43.9 21.0499H43.88V66.4499H43.9V21.0499Z" fill="#474749"/>
<path d="M43.91 21.0499H43.89V66.4499H43.91V21.0499Z" fill="#454548"/>
</g>
</g>
<g style="mix-blend-mode:darken">
<mask id="mask4_1_46" style="mask-type:luminance" maskUnits="userSpaceOnUse" x="43" y="17" width="9" height="45">
<path d="M43.53 18.06C43.48 18.13 43.43 18.21 43.38 18.28C43.38 18.3 43.36 18.31 43.35 18.35C42.76 19.54 43.68 21.21 43.28 22.05L43.92 61.29C43.92 61.19 43.94 61.12 44.02 61.06C44.57 60.49 47.03 60.44 48.85 60.47C49.87 60.47 50.79 60.49 51.81 60.49V17.5C46.41 16.6 44.28 17.08 43.53 18.04V18.06Z" fill="white"/>
</mask>
<g mask="url(#mask4_1_46)">
<path d="M43.2 15.29H43.17V63.4H43.2V15.29Z" fill="#1A171B"/>
<path d="M43.23 15.29H43.21V63.4H43.23V15.29Z" fill="#1C181C"/>
<path d="M43.25 15.29H43.23V63.4H43.25V15.29Z" fill="#1D1B1F"/>
<path d="M43.26 15.29H43.2401V63.4H43.26V15.29Z" fill="#1F1D21"/>
<path d="M43.31 15.29H43.28V63.4H43.31V15.29Z" fill="#211F22"/>
<path d="M43.31 15.29H43.29V63.4H43.31V15.29Z" fill="#242225"/>
<path d="M43.36 15.29H43.33V63.4H43.36V15.29Z" fill="#252427"/>
<path d="M43.37 15.29H43.34V63.4H43.37V15.29Z" fill="#272629"/>
<path d="M43.4 15.29H43.38V63.4H43.4V15.29Z" fill="#29272A"/>
<path d="M43.42 15.29H43.39V63.4H43.42V15.29Z" fill="#2B2A2D"/>
<path d="M43.45 15.29H43.43V63.4H43.45V15.29Z" fill="#2E2C2F"/>
<path d="M43.47 15.29H43.44V63.4H43.47V15.29Z" fill="#2F2E30"/>
<path d="M43.5 15.29H43.48V63.4H43.5V15.29Z" fill="#302F31"/>
<path d="M43.5201 15.29H43.4901V63.4H43.5201V15.29Z" fill="#323134"/>
<path d="M43.56 15.29H43.53V63.4H43.56V15.29Z" fill="#343335"/>
<path d="M43.56 15.29H43.54V63.4H43.56V15.29Z" fill="#353437"/>
<path d="M43.6 15.29H43.58V63.4H43.6V15.29Z" fill="#363638"/>
<path d="M43.62 15.29H43.59V63.4H43.62V15.29Z" fill="#373739"/>
<path d="M43.65 15.29H43.63V63.4H43.65V15.29Z" fill="#3A393C"/>
<path d="M43.67 15.29H43.64V63.4H43.67V15.29Z" fill="#3B3B3D"/>
<path d="M43.7 15.29H43.68V63.4H43.7V15.29Z" fill="#3C3C3E"/>
<path d="M43.71 15.29H43.69V63.4H43.71V15.29Z" fill="#3D3D3F"/>
<path d="M43.73 15.29H43.71V63.4H43.73V15.29Z" fill="#3F3F41"/>
<path d="M43.76 15.29H43.7401V63.4H43.76V15.29Z" fill="#414143"/>
<path d="M43.79 15.29H43.76V63.4H43.79V15.29Z" fill="#444245"/>
<path d="M43.81 15.29H43.79V63.4H43.81V15.29Z" fill="#444346"/>
<path d="M43.84 15.29H43.81V63.4H43.84V15.29Z" fill="#454547"/>
<path d="M43.86 15.29H43.84V63.4H43.86V15.29Z" fill="#474749"/>
<path d="M43.88 15.29H43.86V63.4H43.88V15.29Z" fill="#474749"/>
<path d="M43.92 15.29H43.89V63.4H43.92V15.29Z" fill="#49494B"/>
<path d="M43.94 15.29H43.91V63.4H43.94V15.29Z" fill="#49494B"/>
<path d="M43.96 15.29H43.94V63.4H43.96V15.29Z" fill="#4C4C4D"/>
<path d="M43.99 15.29H43.96V63.4H43.99V15.29Z" fill="#4D4D4F"/>
<path d="M44.01 15.29H43.9901V63.4H44.01V15.29Z" fill="#4E4D50"/>
<path d="M44.03 15.29H44.01V63.4H44.03V15.29Z" fill="#4F4F51"/>
<path d="M44.06 15.29H44.04V63.4H44.06V15.29Z" fill="#4F4F51"/>
<path d="M44.09 15.29H44.06V63.4H44.09V15.29Z" fill="#515253"/>
<path d="M44.12 15.29H44.1V63.4H44.12V15.29Z" fill="#525354"/>
<path d="M44.14 15.29H44.11V63.4H44.14V15.29Z" fill="#545455"/>
<path d="M44.16 15.29H44.13V63.4H44.16V15.29Z" fill="#545557"/>
<path d="M44.18 15.29H44.16V63.4H44.18V15.29Z" fill="#565658"/>
<path d="M44.21 15.29H44.18V63.4H44.21V15.29Z" fill="#575758"/>
<path d="M44.23 15.29H44.21V63.4H44.23V15.29Z" fill="#59585A"/>
<path d="M44.26 15.29H44.23V63.4H44.26V15.29Z" fill="#59595B"/>
<path d="M44.29 15.29H44.26V63.4H44.29V15.29Z" fill="#5B5B5D"/>
<path d="M44.3 15.29H44.28V63.4H44.3V15.29Z" fill="#5C5C5E"/>
<path d="M44.34 15.29H44.31V63.4H44.34V15.29Z" fill="#5E5E5F"/>
<path d="M44.35 15.29H44.33V63.4H44.35V15.29Z" fill="#5E5F60"/>
<path d="M44.39 15.29H44.36V63.4H44.39V15.29Z" fill="#5F6062"/>
<path d="M44.4 15.29H44.38V63.4H44.4V15.29Z" fill="#5F6162"/>
<path d="M44.43 15.29H44.41V63.4H44.43V15.29Z" fill="#616264"/>
<path d="M44.45 15.29H44.43V63.4H44.45V15.29Z" fill="#626264"/>
<path d="M44.49 15.29H44.46V63.4H44.49V15.29Z" fill="#636465"/>
<path d="M44.51 15.29H44.48V63.4H44.51V15.29Z" fill="#646667"/>
<path d="M44.53 15.29H44.51V63.4H44.53V15.29Z" fill="#656668"/>
<path d="M44.56 15.29H44.53V63.4H44.56V15.29Z" fill="#66686A"/>
<path d="M44.58 15.29H44.56V63.4H44.58V15.29Z" fill="#68696B"/>
<path d="M44.61 15.29H44.58V63.4H44.61V15.29Z" fill="#696B6C"/>
<path d="M44.63 15.29H44.61V63.4H44.63V15.29Z" fill="#6A6B6D"/>
<path d="M44.66 15.29H44.63V63.4H44.66V15.29Z" fill="#6C6D6E"/>
<path d="M44.68 15.29H44.65V63.4H44.68V15.29Z" fill="#6D6D6F"/>
<path d="M44.7 15.29H44.68V63.4H44.7V15.29Z" fill="#6D6D70"/>
<path d="M44.72 15.29H44.7V63.4H44.72V15.29Z" fill="#6D6F71"/>
<path d="M44.75 15.29H44.73V63.4H44.75V15.29Z" fill="#6F7072"/>
<path d="M44.78 15.29H44.75V63.4H44.78V15.29Z" fill="#707173"/>
<path d="M44.8 15.29H44.78V63.4H44.8V15.29Z" fill="#737376"/>
<path d="M44.8301 15.29H44.8V63.4H44.8301V15.29Z" fill="#737476"/>
<path d="M44.86 15.29H44.83V63.4H44.86V15.29Z" fill="#737576"/>
<path d="M44.87 15.29H44.85V63.4H44.87V15.29Z" fill="#757678"/>
<path d="M44.9 15.29H44.88V63.4H44.9V15.29Z" fill="#767779"/>
<path d="M44.93 15.29H44.9V63.4H44.93V15.29Z" fill="#78797B"/>
<path d="M44.96 15.29H44.93V63.4H44.96V15.29Z" fill="#79797A"/>
<path d="M44.97 15.29H44.95V63.4H44.97V15.29Z" fill="#797A7C"/>
<path d="M45.01 15.29H44.98V63.4H45.01V15.29Z" fill="#797B7D"/>
<path d="M45.02 15.29H45V63.4H45.02V15.29Z" fill="#7A7C7D"/>
<path d="M45.05 15.29H45.02V63.4H45.05V15.29Z" fill="#7C7E7F"/>
<path d="M45.0801 15.29H45.05V63.4H45.0801V15.29Z" fill="#7D7E80"/>
<path d="M45.1 15.29H45.08V63.4H45.1V15.29Z" fill="#7E7F80"/>
<path d="M45.13 15.29H45.1V63.4H45.13V15.29Z" fill="#808080"/>
<path d="M45.14 15.29H45.12V63.4H45.14V15.29Z" fill="#808081"/>
<path d="M45.18 15.29H45.15V63.4H45.18V15.29Z" fill="#808181"/>
<path d="M45.2 15.29H45.17V63.4H45.2V15.29Z" fill="#808183"/>
<path d="M45.22 15.29H45.2V63.4H45.22V15.29Z" fill="#808283"/>
<path d="M45.25 15.29H45.22V63.4H45.25V15.29Z" fill="#828385"/>
<path d="M45.27 15.29H45.25V63.4H45.27V15.29Z" fill="#848486"/>
<path d="M45.3 15.29H45.27V63.4H45.3V15.29Z" fill="#858587"/>
<path d="M45.32 15.29H45.3V63.4H45.32V15.29Z" fill="#848688"/>
<path d="M45.35 15.29H45.32V63.4H45.35V15.29Z" fill="#858789"/>
<path d="M45.38 15.29H45.35V63.4H45.38V15.29Z" fill="#868789"/>
<path d="M45.39 15.29H45.37V63.4H45.39V15.29Z" fill="#88888A"/>
<path d="M45.42 15.29H45.4V63.4H45.42V15.29Z" fill="#8A8B8D"/>
<path d="M45.44 15.29H45.42V63.4H45.44V15.29Z" fill="#8B8B8D"/>
<path d="M45.48 15.29H45.45V63.4H45.48V15.29Z" fill="#8D8D8F"/>
<path d="M45.49 15.29H45.47V63.4H45.49V15.29Z" fill="#8B8D8F"/>
<path d="M45.51 15.29H45.48V63.4H45.51V15.29Z" fill="#8D8F90"/>
<path d="M45.54 15.29H45.52V63.4H45.54V15.29Z" fill="#8D8F91"/>
<path d="M45.56 15.29H45.53V63.4H45.56V15.29Z" fill="#8D8F91"/>
<path d="M45.59 15.29H45.57V63.4H45.59V15.29Z" fill="#8F9092"/>
<path d="M45.61 15.29H45.58V63.4H45.61V15.29Z" fill="#919194"/>
<path d="M45.64 15.29H45.62V63.4H45.64V15.29Z" fill="#919294"/>
<path d="M45.66 15.29H45.63V63.4H45.66V15.29Z" fill="#929394"/>
<path d="M45.7 15.29H45.67V63.4H45.7V15.29Z" fill="#939496"/>
<path d="M45.71 15.29H45.68V63.4H45.71V15.29Z" fill="#959596"/>
<path d="M45.74 15.29H45.72V63.4H45.74V15.29Z" fill="#949698"/>
<path d="M45.75 15.29H45.73V63.4H45.75V15.29Z" fill="#969799"/>
<path d="M45.8 15.29H45.77V63.4H45.8V15.29Z" fill="#97989A"/>
<path d="M45.8 15.29H45.78V63.4H45.8V15.29Z" fill="#97999B"/>
<path d="M45.84 15.29H45.82V63.4H45.84V15.29Z" fill="#989A9A"/>
<path d="M45.86 15.29H45.83V63.4H45.86V15.29Z" fill="#98999C"/>
<path d="M45.89 15.29H45.87V63.4H45.89V15.29Z" fill="#999A9C"/>
<path d="M45.91 15.29H45.88V63.4H45.91V15.29Z" fill="#9D9EA0"/>
<path d="M45.94 15.29H45.92V63.4H45.94V15.29Z" fill="#9D9EA1"/>
<path d="M45.96 15.29H45.94V63.4H45.96V15.29Z" fill="#9D9FA0"/>
<path d="M45.97 15.29H45.95V63.4H45.97V15.29Z" fill="#9E9FA2"/>
<path d="M46.0201 15.29H45.9901V63.4H46.0201V15.29Z" fill="#9FA1A3"/>
<path d="M46.03 15.29H46V63.4H46.03V15.29Z" fill="#A0A1A3"/>
<path d="M46.06 15.29H46.04V63.4H46.06V15.29Z" fill="#A1A2A4"/>
<path d="M46.0801 15.29H46.05V63.4H46.0801V15.29Z" fill="#A1A3A5"/>
<path d="M46.12 15.29H46.09V63.4H46.12V15.29Z" fill="#A2A4A5"/>
<path d="M46.13 15.29H46.1V63.4H46.13V15.29Z" fill="#A4A5A6"/>
<path d="M46.17 15.29H46.14V63.4H46.17V15.29Z" fill="#A4A5A7"/>
<path d="M46.17 15.29H46.15V63.4H46.17V15.29Z" fill="#A5A6A9"/>
<path d="M46.21 15.29H46.19V63.4H46.21V15.29Z" fill="#A7A8AA"/>
<path d="M46.22 15.29H46.2V63.4H46.22V15.29Z" fill="#A8A9AB"/>
<path d="M46.2701 15.29H46.2401V63.4H46.2701V15.29Z" fill="#A8A9AC"/>
<path d="M46.28 15.29H46.25V63.4H46.28V15.29Z" fill="#AAABAD"/>
<path d="M46.31 15.29H46.29V63.4H46.31V15.29Z" fill="#ABACAE"/>
<path d="M46.3301 15.29H46.3V63.4H46.3301V15.29Z" fill="#ABACAD"/>
<path d="M46.36 15.29H46.34V63.4H46.36V15.29Z" fill="#ACADAE"/>
<path d="M46.38 15.29H46.35V63.4H46.38V15.29Z" fill="#ADAEB0"/>
<path d="M46.41 15.29H46.39V63.4H46.41V15.29Z" fill="#ADAEB1"/>
<path d="M46.43 15.29H46.4V63.4H46.43V15.29Z" fill="#AFB0B2"/>
<path d="M46.47 15.29H46.44V63.4H46.47V15.29Z" fill="#AFB1B2"/>
<path d="M46.47 15.29H46.45V63.4H46.47V15.29Z" fill="#B1B2B3"/>
<path d="M46.51 15.29H46.4901V63.4H46.51V15.29Z" fill="#B1B1B4"/>
<path d="M46.52 15.29H46.5V63.4H46.52V15.29Z" fill="#B1B2B4"/>
<path d="M46.55 15.29H46.52V63.4H46.55V15.29Z" fill="#B2B4B6"/>
<path d="M46.57 15.29H46.55V63.4H46.57V15.29Z" fill="#B4B4B5"/>
<path d="M46.6 15.29H46.57V63.4H46.6V15.29Z" fill="#B4B6B7"/>
<path d="M46.62 15.29H46.6V63.4H46.62V15.29Z" fill="#B5B5B8"/>
<path d="M46.65 15.29H46.62V63.4H46.65V15.29Z" fill="#B6B6B8"/>
<path d="M46.67 15.29H46.65V63.4H46.67V15.29Z" fill="#B7B8BA"/>
<path d="M46.7 15.29H46.67V63.4H46.7V15.29Z" fill="#B8B8B9"/>
<path d="M46.73 15.29H46.7V63.4H46.73V15.29Z" fill="#B7B9BA"/>
<path d="M46.74 15.29H46.72V63.4H46.74V15.29Z" fill="#B8B9BC"/>
<path d="M46.78 15.29H46.75V63.4H46.78V15.29Z" fill="#B9BABC"/>
<path d="M46.79 15.29H46.77V63.4H46.79V15.29Z" fill="#BBBCBD"/>
<path d="M46.8301 15.29H46.8V63.4H46.8301V15.29Z" fill="#BBBCBD"/>
<path d="M46.84 15.29H46.82V63.4H46.84V15.29Z" fill="#BBBDBE"/>
<path d="M46.87 15.29H46.84V63.4H46.87V15.29Z" fill="#BDBDBF"/>
<path d="M46.9 15.29H46.87V63.4H46.9V15.29Z" fill="#BEC0C0"/>
<path d="M46.93 15.29H46.91V63.4H46.93V15.29Z" fill="#BEC0C1"/>
<path d="M46.95 15.29H46.92V63.4H46.95V15.29Z" fill="#BFC0C2"/>
<path d="M46.96 15.29H46.94V63.4H46.96V15.29Z" fill="#C2C1C3"/>
<path d="M47 15.29H46.97V63.4H47V15.29Z" fill="#C2C2C4"/>
<path d="M47.01 15.29H46.9901V63.4H47.01V15.29Z" fill="#C2C2C3"/>
<path d="M47.05 15.29H47.02V63.4H47.05V15.29Z" fill="#C2C4C5"/>
<path d="M47.06 15.29H47.04V63.4H47.06V15.29Z" fill="#C4C4C6"/>
<path d="M47.1 15.29H47.07V63.4H47.1V15.29Z" fill="#C4C4C6"/>
<path d="M47.12 15.29H47.09V63.4H47.12V15.29Z" fill="#C5C5C7"/>
<path d="M47.14 15.29H47.12V63.4H47.14V15.29Z" fill="#C5C6C6"/>
<path d="M47.17 15.29H47.14V63.4H47.17V15.29Z" fill="#C6C7C9"/>
<path d="M47.19 15.29H47.17V63.4H47.19V15.29Z" fill="#C7C8CA"/>
<path d="M47.22 15.29H47.19V63.4H47.22V15.29Z" fill="#C9C9CA"/>
<path d="M47.25 15.29H47.22V63.4H47.25V15.29Z" fill="#C9C9CA"/>
<path d="M47.26 15.29H47.2401V63.4H47.26V15.29Z" fill="#C9CACB"/>
<path d="M47.3 15.29H47.27V63.4H47.3V15.29Z" fill="#C9CACB"/>
<path d="M47.31 15.29H47.29V63.4H47.31V15.29Z" fill="#CACBCD"/>
<path d="M47.34 15.29H47.32V63.4H47.34V15.29Z" fill="#CCCDCE"/>
<path d="M47.37 15.29H47.34V63.4H47.37V15.29Z" fill="#CCCDCE"/>
<path d="M47.39 15.29H47.37V63.4H47.39V15.29Z" fill="#CDCECF"/>
<path d="M47.42 15.29H47.39V63.4H47.42V15.29Z" fill="#CECFD1"/>
<path d="M47.44 15.29H47.42V63.4H47.44V15.29Z" fill="#CECFD0"/>
<path d="M47.47 15.29H47.44V63.4H47.47V15.29Z" fill="#D0D1D2"/>
<path d="M47.49 15.29H47.47V63.4H47.49V15.29Z" fill="#D1D2D2"/>
<path d="M47.5201 15.29H47.4901V63.4H47.5201V15.29Z" fill="#D1D2D3"/>
<path d="M47.53 15.29H47.51V63.4H47.53V15.29Z" fill="#D2D3D3"/>
<path d="M47.57 15.29H47.54V63.4H47.57V15.29Z" fill="#D4D4D4"/>
<path d="M47.59 15.29H47.56V63.4H47.59V15.29Z" fill="#D4D5D5"/>
<path d="M47.61 15.29H47.59V63.4H47.61V15.29Z" fill="#D4D5D5"/>
<path d="M47.64 15.29H47.61V63.4H47.64V15.29Z" fill="#D4D6D7"/>
<path d="M47.66 15.29H47.64V63.4H47.66V15.29Z" fill="#D5D6D7"/>
<path d="M47.69 15.29H47.66V63.4H47.69V15.29Z" fill="#D5D6D7"/>
<path d="M47.71 15.29H47.69V63.4H47.71V15.29Z" fill="#D7D7D8"/>
<path d="M47.73 15.29H47.71V63.4H47.73V15.29Z" fill="#D7D8D9"/>
<path d="M47.76 15.29H47.7401V63.4H47.76V15.29Z" fill="#D7D8D9"/>
<path d="M47.79 15.29H47.76V63.4H47.79V15.29Z" fill="#D8DADA"/>
<path d="M47.82 15.29H47.79V63.4H47.82V15.29Z" fill="#DBDBDC"/>
<path d="M47.83 15.29H47.81V63.4H47.83V15.29Z" fill="#DBDBDC"/>
<path d="M47.86 15.29H47.84V63.4H47.86V15.29Z" fill="#DBDBDC"/>
<path d="M47.89 15.29H47.86V63.4H47.89V15.29Z" fill="#DBDCDD"/>
<path d="M47.91 15.29H47.88V63.4H47.91V15.29Z" fill="#DCDDDE"/>
<path d="M47.93 15.29H47.91V63.4H47.93V15.29Z" fill="#DFDEDE"/>
<path d="M47.96 15.29H47.93V63.4H47.96V15.29Z" fill="#DFDEDE"/>
<path d="M47.99 15.29H47.96V63.4H47.99V15.29Z" fill="#DDDFE0"/>
<path d="M48 15.29H47.98V63.4H48V15.29Z" fill="#DFE0E0"/>
<path d="M48.04 15.29H48.01V63.4H48.04V15.29Z" fill="#DFE0E1"/>
<path d="M48.05 15.29H48.03V63.4H48.05V15.29Z" fill="#E0E0E1"/>
<path d="M48.09 15.29H48.06V63.4H48.09V15.29Z" fill="#E0E1E1"/>
<path d="M48.1 15.29H48.08V63.4H48.1V15.29Z" fill="#E1E2E3"/>
<path d="M48.13 15.29H48.11V63.4H48.13V15.29Z" fill="#E3E4E3"/>
<path d="M48.15 15.29H48.13V63.4H48.15V15.29Z" fill="#E4E4E5"/>
<path d="M48.19 15.29H48.16V63.4H48.19V15.29Z" fill="#E4E4E5"/>
<path d="M48.21 15.29H48.18V63.4H48.21V15.29Z" fill="#E3E4E5"/>
<path d="M48.23 15.29H48.21V63.4H48.23V15.29Z" fill="#E4E5E5"/>
<path d="M48.26 15.29H48.23V63.4H48.26V15.29Z" fill="#E7E6E6"/>
<path d="M48.28 15.29H48.26V63.4H48.28V15.29Z" fill="#E7E6E7"/>
<path d="M48.31 15.29H48.28V63.4H48.31V15.29Z" fill="#E7E7E7"/>
<path d="M48.34 15.29H48.31V63.4H48.34V15.29Z" fill="#E7E9E8"/>
<path d="M48.35 15.29H48.33V63.4H48.35V15.29Z" fill="#E7E9E8"/>
<path d="M48.37 15.29H48.34V63.4H48.37V15.29Z" fill="#E8E8E9"/>
<path d="M48.4 15.29H48.38V63.4H48.4V15.29Z" fill="#E9E9EA"/>
<path d="M48.42 15.29H48.39V63.4H48.42V15.29Z" fill="#E9EAEA"/>
<path d="M48.45 15.29H48.43V63.4H48.45V15.29Z" fill="#EBEBEA"/>
<path d="M48.47 15.29H48.44V63.4H48.47V15.29Z" fill="#EBEBEA"/>
<path d="M48.5 15.29H48.48V63.4H48.5V15.29Z" fill="#EBEBEC"/>
<path d="M48.5201 15.29H48.4901V63.4H48.5201V15.29Z" fill="#ECECEC"/>
<path d="M48.56 15.29H48.53V63.4H48.56V15.29Z" fill="#EDEEED"/>
<path d="M48.56 15.29H48.54V63.4H48.56V15.29Z" fill="#EFEDEE"/>
<path d="M48.61 15.29H48.58V63.4H48.61V15.29Z" fill="#EFEDEE"/>
<path d="M48.61 15.29H48.59V63.4H48.61V15.29Z" fill="#EFEFEF"/>
<path d="M48.66 15.29H48.63V63.4H48.66V15.29Z" fill="#EFEFEF"/>
<path d="M48.68 15.29H48.65V63.4H48.68V15.29Z" fill="#F0F0F0"/>
<path d="M48.7 15.29H48.68V63.4H48.7V15.29Z" fill="#F1F1F1"/>
<path d="M48.72 15.29H48.7V63.4H48.72V15.29Z" fill="#F1F1F1"/>
<path d="M48.75 15.29H48.73V63.4H48.75V15.29Z" fill="#F3F2F2"/>
<path d="M48.78 15.29H48.75V63.4H48.78V15.29Z" fill="#F1F3F3"/>
<path d="M48.8 15.29H48.78V63.4H48.8V15.29Z" fill="#F1F3F3"/>
<path d="M48.82 15.29H48.8V63.4H48.82V15.29Z" fill="#F3F2F4"/>
<path d="M48.83 15.29H48.81V63.4H48.83V15.29Z" fill="#F3F4F5"/>
<path d="M48.88 15.29H48.85V63.4H48.88V15.29Z" fill="#F4F5F5"/>
<path d="M48.89 15.29H48.86V63.4H48.89V15.29Z" fill="#F4F5F5"/>
<path d="M48.92 15.29H48.9V63.4H48.92V15.29Z" fill="#F4F5F5"/>
<path d="M48.94 15.29H48.91V63.4H48.94V15.29Z" fill="#F5F5F5"/>
<path d="M48.97 15.29H48.95V63.4H48.97V15.29Z" fill="#F5F5F5"/>
<path d="M48.99 15.29H48.96V63.4H48.99V15.29Z" fill="#F7F7F7"/>
<path d="M49.02 15.29H49V63.4H49.02V15.29Z" fill="#F8F8F8"/>
<path d="M49.04 15.29H49.01V63.4H49.04V15.29Z" fill="#F7F7F7"/>
<path d="M49.0801 15.29H49.05V63.4H49.0801V15.29Z" fill="#F7F7F7"/>
<path d="M49.08 15.29H49.06V63.4H49.08V15.29Z" fill="#F7F8F9"/>
<path d="M49.12 15.29H49.1V63.4H49.12V15.29Z" fill="#F7F8F9"/>
<path d="M49.13 15.29H49.11V63.4H49.13V15.29Z" fill="#F9F9F9"/>
<path d="M49.18 15.29H49.15V63.4H49.18V15.29Z" fill="#F9F9FC"/>
<path d="M49.18 15.29H49.16V63.4H49.18V15.29Z" fill="#F9F9FC"/>
<path d="M49.21 15.29H49.18V63.4H49.21V15.29Z" fill="#FAFDFF"/>
<path d="M49.23 15.29H49.21V63.4H49.23V15.29Z" fill="#FAFDFF"/>
<path d="M49.26 15.29H49.23V63.4H49.26V15.29Z" fill="white"/>
<path d="M49.28 15.29H49.26V63.4H49.28V15.29Z" fill="white"/>
<path d="M49.31 15.29H49.28V63.4H49.31V15.29Z" fill="white"/>
<path d="M49.34 15.29H49.31V63.4H49.34V15.29Z" fill="white"/>
<path d="M49.35 15.29H49.33V63.4H49.35V15.29Z" fill="white"/>
<path d="M49.38 15.29H49.36V63.4H49.38V15.29Z" fill="white"/>
<path d="M49.41 15.29H49.38V63.4H49.41V15.29Z" fill="white"/>
<path d="M49.43 15.29H49.41V63.4H49.43V15.29Z" fill="white"/>
<path d="M49.46 15.29H49.43V63.4H49.46V15.29Z" fill="white"/>
</g>
</g>
</g>
<path d="M71.85 61.38V25.92H89.25V62.7C89.25 71.03 87.43 76.99 83.8 80.57C80.17 84.15 74.01 85.92 65.37 85.92C56.73 85.92 61.72 85.85 60.05 85.74C58.39 85.61 56.65 85.37 54.83 84.99V68.99C55.83 69.17 56.95 69.32 58.21 69.41C59.46 69.51 60.97 69.54 62.73 69.54C66.43 69.54 68.87 68.99 70.06 67.9C71.25 66.8 71.85 64.62 71.85 61.36L71.87 61.38H71.85Z" fill="white"/>
<path d="M122.9 69.56C125.41 69.56 128.12 69.31 131.03 68.81C133.94 68.31 136.53 67.66 138.79 66.84V82.27C135.34 83.64 132.22 84.61 129.44 85.13C126.65 85.67 123.72 85.93 120.66 85.93C115.02 85.93 110.56 85.31 107.26 84.09C103.96 82.87 101.36 80.91 99.41 78.22C97.79 75.84 96.55 72.76 95.75 69C94.93 65.23 94.53 60.7 94.53 55.36C94.53 44.88 96.86 37.2 101.49 32.32C106.12 27.43 113.52 24.99 123.69 24.99C133.86 24.99 129.14 25.06 131.4 25.17C133.66 25.3 135.7 25.52 137.51 25.82V41.15C135.5 41.03 133.41 40.93 131.2 40.87C129.01 40.8 126.57 40.77 123.87 40.77C119.29 40.77 116.29 41.79 114.84 43.83C113.4 45.87 112.68 49.7 112.68 55.36C112.68 61.02 113.35 64.4 114.7 66.45C116.05 68.53 118.8 69.55 122.93 69.55L122.9 69.57V69.56Z" fill="white"/>
<path d="M53.43 52.11C53.68 52.11 53.97 52.09 54.25 52.06C53.95 52.08 53.66 52.09 53.41 52.11H53.43Z" fill="#DF1E26"/>
<path d="M54.27 52.06C54.42 52.06 54.57 52.04 54.74 52.03H54.79C54.62 52.03 54.44 52.06 54.29 52.08L54.27 52.06Z" fill="#DF1E26"/>
<path d="M54.8 52.03C54.95 52.03 55.12 52 55.29 51.98C55.12 52 54.96 52.01 54.8 52.03Z" fill="#DF1E26"/>
<path d="M171.41 83.94C187.2 83.94 200 71.1353 200 55.34C200 39.5446 187.2 26.74 171.41 26.74C155.62 26.74 142.82 39.5446 142.82 55.34C142.82 71.1353 155.62 83.94 171.41 83.94Z" fill="#F7F7F7"/>
<path d="M155.9 59.74V67.92H152.47V42.64H161.05C164.63 42.64 167.19 43.29 168.73 44.58C170.27 45.87 171.06 47.98 171.06 50.91C171.06 53.84 170.26 56.11 168.63 57.57C167.02 59.03 164.53 59.75 161.17 59.75H155.88H155.9V59.74ZM167.6 50.92C167.6 49.06 167.1 47.74 166.09 46.95C165.08 46.16 163.41 45.76 161.07 45.76H155.92V56.72H161.07C163.41 56.72 165.08 56.27 166.09 55.35C167.1 54.43 167.6 52.96 167.6 50.92Z" fill="#DF1E26"/>
<path d="M191.95 64.71V67.94H175.19V42.66H191.6V45.77H178.62V53.52H190.11V56.55H178.62V64.73H191.97L191.95 64.71Z" fill="#DF1E26"/>
</g>
<defs>
<clipPath id="clip0_1_46">
<rect width="200" height="112" fill="white"/>
</clipPath>
</defs>
</svg>
